ply
format ascii 1.0
comment Created by Blender 3.4.1 - www.blender.org
element vertex 252
property float x
property float y
property float z
property float nx
property float ny
property float nz
property float s
property float t
element face 216
property list uchar uint vertex_indices
end_header
-4.026393 0.030666 1.409334 -0.577350 -0.577350 -0.577350 0.500000 0.347887
-4.026393 0.128090 1.409334 -0.577350 0.577350 -0.577350 0.500000 0.289275
-3.684463 0.128090 1.409334 0.577350 0.577350 -0.577350 0.710725 0.289275
-3.684463 0.030666 1.409334 0.577350 -0.577350 -0.577350 0.710725 0.347887
-4.026393 0.030666 1.875475 -0.577350 -0.577350 0.577350 0.212725 0.347887
-3.684463 0.030666 1.875475 0.577350 -0.577350 0.577350 0.002000 0.347887
-3.684463 0.128090 1.875475 0.577350 0.577350 0.577350 0.002000 0.289275
-4.026393 0.128090 1.875475 -0.577350 0.577350 0.577350 0.212725 0.289275
-3.684463 0.030666 1.875475 0.577350 -0.577350 0.577350 0.710725 0.635162
-4.026393 0.030666 1.875475 -0.577350 -0.577350 0.577350 0.500000 0.635162
-3.684463 0.128090 1.875475 0.577350 0.577350 0.577350 0.998000 0.289275
-3.684463 0.030666 1.875475 0.577350 -0.577350 0.577350 0.998000 0.347887
-4.026393 0.128090 1.875475 -0.577350 0.577350 0.577350 0.500000 0.002000
-3.684463 0.128090 1.875475 0.577350 0.577350 0.577350 0.710725 0.002000
-4.026393 0.134741 1.409334 -0.577350 -0.577350 -0.577350 0.500000 0.347887
-4.026393 0.232165 1.409334 -0.577350 0.577350 -0.577350 0.500000 0.289275
-3.684463 0.232165 1.409334 0.577350 0.577350 -0.577350 0.710725 0.289275
-3.684463 0.134741 1.409334 0.577350 -0.577350 -0.577350 0.710725 0.347887
-4.026393 0.134741 1.875475 -0.577350 -0.577350 0.577350 0.212725 0.347887
-3.684463 0.134741 1.875475 0.577350 -0.577350 0.577350 0.002000 0.347887
-3.684463 0.232165 1.875475 0.577350 0.577350 0.577350 0.002000 0.289275
-4.026393 0.232165 1.875475 -0.577350 0.577350 0.577350 0.212725 0.289275
-3.684463 0.134741 1.875475 0.577350 -0.577350 0.577350 0.710725 0.635162
-4.026393 0.134741 1.875475 -0.577350 -0.577350 0.577350 0.500000 0.635162
-3.684463 0.232165 1.875475 0.577350 0.577350 0.577350 0.998000 0.289275
-3.684463 0.134741 1.875475 0.577350 -0.577350 0.577350 0.998000 0.347887
-4.026393 0.232165 1.875475 -0.577350 0.577350 0.577350 0.500000 0.002000
-3.684463 0.232165 1.875475 0.577350 0.577350 0.577350 0.710725 0.002000
-4.026393 0.238816 1.409334 -0.577350 -0.577350 -0.577350 0.500000 0.347887
-4.026393 0.336239 1.409334 -0.577350 0.577350 -0.577350 0.500000 0.289275
-3.684463 0.336239 1.409334 0.577350 0.577350 -0.577350 0.710725 0.289275
-3.684463 0.238816 1.409334 0.577350 -0.577350 -0.577350 0.710725 0.347887
-4.026393 0.238816 1.875475 -0.577350 -0.577350 0.577350 0.212725 0.347887
-3.684463 0.238816 1.875475 0.577350 -0.577350 0.577350 0.002000 0.347887
-3.684463 0.336240 1.875475 0.577350 0.577350 0.577350 0.002000 0.289275
-4.026393 0.336240 1.875475 -0.577350 0.577350 0.577350 0.212725 0.289275
-3.684463 0.238816 1.875475 0.577350 -0.577350 0.577350 0.710725 0.635162
-4.026393 0.238816 1.875475 -0.577350 -0.577350 0.577350 0.500000 0.635162
-3.684463 0.336240 1.875475 0.577350 0.577350 0.577350 0.998000 0.289275
-3.684463 0.238816 1.875475 0.577350 -0.577350 0.577350 0.998000 0.347887
-4.026393 0.336240 1.875475 -0.577350 0.577350 0.577350 0.500000 0.002000
-3.684463 0.336240 1.875475 0.577350 0.577350 0.577350 0.710725 0.002000
-4.026393 0.342890 1.409334 -0.577350 -0.577350 -0.577350 0.500000 0.347887
-4.026393 0.440314 1.409334 -0.577350 0.577350 -0.577350 0.500000 0.289275
-3.684463 0.440314 1.409334 0.577350 0.577350 -0.577350 0.710725 0.289275
-3.684463 0.342890 1.409334 0.577350 -0.577350 -0.577350 0.710725 0.347887
-4.026393 0.342890 1.875475 -0.577350 -0.577350 0.577351 0.212725 0.347887
-3.684463 0.342890 1.875475 0.577350 -0.577350 0.577351 0.002000 0.347887
-3.684463 0.440314 1.875475 0.577351 0.577351 0.577350 0.002000 0.289275
-4.026393 0.440314 1.875475 -0.577350 0.577351 0.577350 0.212725 0.289275
-3.684463 0.342890 1.875475 0.577350 -0.577350 0.577351 0.710725 0.635162
-4.026393 0.342890 1.875475 -0.577350 -0.577350 0.577351 0.500000 0.635162
-3.684463 0.440314 1.875475 0.577351 0.577351 0.577350 0.998000 0.289275
-3.684463 0.342890 1.875475 0.577350 -0.577350 0.577351 0.998000 0.347887
-4.026393 0.440314 1.875475 -0.577350 0.577351 0.577350 0.500000 0.002000
-3.684463 0.440314 1.875475 0.577351 0.577351 0.577350 0.710725 0.002000
-4.026393 0.446965 1.409334 -0.577350 -0.577350 -0.577350 0.500000 0.347887
-4.026393 0.544389 1.409334 -0.577350 0.577350 -0.577350 0.500000 0.289275
-3.684463 0.544389 1.409334 0.577350 0.577350 -0.577350 0.710725 0.289275
-3.684463 0.446965 1.409334 0.577350 -0.577350 -0.577350 0.710725 0.347887
-4.026393 0.446965 1.875475 -0.577350 -0.577350 0.577350 0.212725 0.347887
-3.684463 0.446965 1.875475 0.577350 -0.577350 0.577350 0.002000 0.347887
-3.684463 0.544389 1.875475 0.577350 0.577350 0.577350 0.002000 0.289275
-4.026393 0.544389 1.875475 -0.577350 0.577350 0.577350 0.212725 0.289275
-3.684463 0.446965 1.875475 0.577350 -0.577350 0.577350 0.710725 0.635162
-4.026393 0.446965 1.875475 -0.577350 -0.577350 0.577350 0.500000 0.635162
-3.684463 0.544389 1.875475 0.577350 0.577350 0.577350 0.998000 0.289275
-3.684463 0.446965 1.875475 0.577350 -0.577350 0.577350 0.998000 0.347887
-4.026393 0.544389 1.875475 -0.577350 0.577350 0.577350 0.500000 0.002000
-3.684463 0.544389 1.875475 0.577350 0.577350 0.577350 0.710725 0.002000
-4.026393 0.551040 1.409334 -0.577350 -0.577350 -0.577350 0.500000 0.347887
-4.026393 0.648464 1.409334 -0.577350 0.577350 -0.577350 0.500000 0.289275
-3.684463 0.648464 1.409334 0.577350 0.577350 -0.577350 0.710725 0.289275
-3.684463 0.551040 1.409334 0.577350 -0.577350 -0.577350 0.710725 0.347887
-4.026393 0.551040 1.875475 -0.577350 -0.577350 0.577350 0.212725 0.347887
-3.684463 0.551040 1.875475 0.577350 -0.577350 0.577350 0.002000 0.347887
-3.684463 0.648464 1.875475 0.577350 0.577350 0.577350 0.002000 0.289275
-4.026393 0.648464 1.875475 -0.577350 0.577350 0.577350 0.212725 0.289275
-3.684463 0.551040 1.875475 0.577350 -0.577350 0.577350 0.710725 0.635162
-4.026393 0.551040 1.875475 -0.577350 -0.577350 0.577350 0.500000 0.635162
-3.684463 0.648464 1.875475 0.577350 0.577350 0.577350 0.998000 0.289275
-3.684463 0.551040 1.875475 0.577350 -0.577350 0.577350 0.998000 0.347887
-4.026393 0.648464 1.875475 -0.577350 0.577350 0.577350 0.500000 0.002000
-3.684463 0.648464 1.875475 0.577350 0.577350 0.577350 0.710725 0.002000
-4.026393 0.655115 1.409334 -0.577350 -0.577350 -0.577350 0.500000 0.347887
-4.026393 0.752538 1.409334 -0.577350 0.577350 -0.577350 0.500000 0.289275
-3.684463 0.752538 1.409334 0.577350 0.577350 -0.577350 0.710725 0.289275
-3.684463 0.655115 1.409334 0.577350 -0.577350 -0.577350 0.710725 0.347887
-4.026393 0.655115 1.875475 -0.577350 -0.577350 0.577350 0.212725 0.347887
-3.684463 0.655115 1.875475 0.577350 -0.577350 0.577350 0.002000 0.347887
-3.684463 0.752538 1.875475 0.577350 0.577350 0.577350 0.002000 0.289275
-4.026393 0.752538 1.875475 -0.577350 0.577350 0.577350 0.212725 0.289275
-3.684463 0.655115 1.875475 0.577350 -0.577350 0.577350 0.710725 0.635162
-4.026393 0.655115 1.875475 -0.577350 -0.577350 0.577350 0.500000 0.635162
-3.684463 0.752538 1.875475 0.577350 0.577350 0.577350 0.998000 0.289275
-3.684463 0.655115 1.875475 0.577350 -0.577350 0.577350 0.998000 0.347887
-4.026393 0.752538 1.875475 -0.577350 0.577350 0.577350 0.500000 0.002000
-3.684463 0.752538 1.875475 0.577350 0.577350 0.577350 0.710725 0.002000
-4.026393 0.759189 1.409334 -0.577350 -0.577350 -0.577350 0.500000 0.347887
-4.026393 0.856613 1.409334 -0.577350 0.577350 -0.577350 0.500000 0.289275
-3.684463 0.856613 1.409334 0.577350 0.577350 -0.577350 0.710725 0.289275
-3.684463 0.759189 1.409334 0.577350 -0.577350 -0.577350 0.710725 0.347887
-4.026393 0.759189 1.875475 -0.577350 -0.577350 0.577350 0.212725 0.347887
-3.684463 0.759189 1.875475 0.577350 -0.577350 0.577350 0.002000 0.347887
-3.684463 0.856613 1.875475 0.577350 0.577350 0.577350 0.002000 0.289275
-4.026393 0.856613 1.875475 -0.577350 0.577350 0.577350 0.212725 0.289275
-3.684463 0.759189 1.875475 0.577350 -0.577350 0.577350 0.710725 0.635162
-4.026393 0.759189 1.875475 -0.577350 -0.577350 0.577350 0.500000 0.635162
-3.684463 0.856613 1.875475 0.577350 0.577350 0.577350 0.998000 0.289275
-3.684463 0.759189 1.875475 0.577350 -0.577350 0.577350 0.998000 0.347887
-4.026393 0.856613 1.875475 -0.577350 0.577350 0.577350 0.500000 0.002000
-3.684463 0.856613 1.875475 0.577350 0.577350 0.577350 0.710725 0.002000
-4.026393 0.863264 1.409334 -0.577350 -0.577351 -0.577350 0.500000 0.347887
-4.026393 0.960687 1.409334 -0.577350 0.577350 -0.577351 0.500000 0.289275
-3.684463 0.960687 1.409334 0.577350 0.577350 -0.577351 0.710725 0.289275
-3.684463 0.863264 1.409334 0.577350 -0.577351 -0.577350 0.710725 0.347887
-4.026393 0.863264 1.875475 -0.577350 -0.577350 0.577350 0.212725 0.347887
-3.684463 0.863264 1.875475 0.577350 -0.577350 0.577350 0.002000 0.347887
-3.684463 0.960687 1.875475 0.577350 0.577350 0.577350 0.002000 0.289275
-4.026393 0.960687 1.875475 -0.577350 0.577350 0.577350 0.212725 0.289275
-3.684463 0.863264 1.875475 0.577350 -0.577350 0.577350 0.710725 0.635162
-4.026393 0.863264 1.875475 -0.577350 -0.577350 0.577350 0.500000 0.635162
-3.684463 0.960687 1.875475 0.577350 0.577350 0.577350 0.998000 0.289275
-3.684463 0.863264 1.875475 0.577350 -0.577350 0.577350 0.998000 0.347887
-4.026393 0.960687 1.875475 -0.577350 0.577350 0.577350 0.500000 0.002000
-3.684463 0.960687 1.875475 0.577350 0.577350 0.577350 0.710725 0.002000
-4.026393 0.967338 1.409334 -0.577350 -0.577350 -0.577350 0.500000 0.347887
-4.026393 1.064762 1.409334 -0.577350 0.577350 -0.577350 0.500000 0.289275
-3.684463 1.064762 1.409334 0.577350 0.577350 -0.577350 0.710725 0.289275
-3.684463 0.967338 1.409334 0.577350 -0.577350 -0.577350 0.710725 0.347887
-4.026393 0.967338 1.875475 -0.577350 -0.577350 0.577350 0.212725 0.347887
-3.684463 0.967338 1.875475 0.577350 -0.577350 0.577350 0.002000 0.347887
-3.684463 1.064762 1.875475 0.577350 0.577350 0.577350 0.002000 0.289275
-4.026393 1.064762 1.875475 -0.577350 0.577350 0.577350 0.212725 0.289275
-3.684463 0.967338 1.875475 0.577350 -0.577350 0.577350 0.710725 0.635162
-4.026393 0.967338 1.875475 -0.577350 -0.577350 0.577350 0.500000 0.635162
-3.684463 1.064762 1.875475 0.577350 0.577350 0.577350 0.998000 0.289275
-3.684463 0.967338 1.875475 0.577350 -0.577350 0.577350 0.998000 0.347887
-4.026393 1.064762 1.875475 -0.577350 0.577350 0.577350 0.500000 0.002000
-3.684463 1.064762 1.875475 0.577350 0.577350 0.577350 0.710725 0.002000
-4.026393 1.071413 1.409334 -0.577350 -0.577350 -0.577350 0.500000 0.347887
-4.026393 1.168837 1.409334 -0.577350 0.577350 -0.577350 0.500000 0.289275
-3.684463 1.168837 1.409334 0.577350 0.577350 -0.577350 0.710725 0.289275
-3.684463 1.071413 1.409334 0.577350 -0.577350 -0.577350 0.710725 0.347887
-4.026393 1.071413 1.875475 -0.577350 -0.577350 0.577350 0.212725 0.347887
-3.684463 1.071413 1.875475 0.577350 -0.577350 0.577350 0.002000 0.347887
-3.684463 1.168837 1.875475 0.577350 0.577350 0.577350 0.002000 0.289275
-4.026393 1.168837 1.875475 -0.577350 0.577350 0.577350 0.212725 0.289275
-3.684463 1.071413 1.875475 0.577350 -0.577350 0.577350 0.710725 0.635162
-4.026393 1.071413 1.875475 -0.577350 -0.577350 0.577350 0.500000 0.635162
-3.684463 1.168837 1.875475 0.577350 0.577350 0.577350 0.998000 0.289275
-3.684463 1.071413 1.875475 0.577350 -0.577350 0.577350 0.998000 0.347887
-4.026393 1.168837 1.875475 -0.577350 0.577350 0.577350 0.500000 0.002000
-3.684463 1.168837 1.875475 0.577350 0.577350 0.577350 0.710725 0.002000
-4.026393 1.175488 1.409334 -0.577350 -0.577350 -0.577350 0.500000 0.347887
-4.026393 1.272912 1.409334 -0.577350 0.577350 -0.577350 0.500000 0.289275
-3.684463 1.272912 1.409334 0.577350 0.577350 -0.577350 0.710725 0.289275
-3.684463 1.175488 1.409334 0.577350 -0.577350 -0.577350 0.710725 0.347887
-4.026393 1.175488 1.875475 -0.577350 -0.577350 0.577350 0.212725 0.347887
-3.684463 1.175488 1.875475 0.577350 -0.577350 0.577350 0.002000 0.347887
-3.684463 1.272912 1.875475 0.577350 0.577350 0.577350 0.002000 0.289275
-4.026393 1.272912 1.875475 -0.577350 0.577350 0.577350 0.212725 0.289275
-3.684463 1.175488 1.875475 0.577350 -0.577350 0.577350 0.710725 0.635162
-4.026393 1.175488 1.875475 -0.577350 -0.577350 0.577350 0.500000 0.635162
-3.684463 1.272912 1.875475 0.577350 0.577350 0.577350 0.998000 0.289275
-3.684463 1.175488 1.875475 0.577350 -0.577350 0.577350 0.998000 0.347887
-4.026393 1.272912 1.875475 -0.577350 0.577350 0.577350 0.500000 0.002000
-3.684463 1.272912 1.875475 0.577350 0.577350 0.577350 0.710725 0.002000
-4.026393 1.279562 1.409334 -0.577350 -0.577350 -0.577350 0.500000 0.347887
-4.026393 1.376986 1.409334 -0.577350 0.577350 -0.577350 0.500000 0.289275
-3.684463 1.376986 1.409334 0.577350 0.577350 -0.577350 0.710725 0.289275
-3.684463 1.279562 1.409334 0.577350 -0.577350 -0.577350 0.710725 0.347887
-4.026393 1.279562 1.875475 -0.577350 -0.577350 0.577350 0.212725 0.347887
-3.684463 1.279562 1.875475 0.577350 -0.577350 0.577350 0.002000 0.347887
-3.684463 1.376986 1.875475 0.577350 0.577350 0.577350 0.002000 0.289275
-4.026393 1.376986 1.875475 -0.577350 0.577350 0.577350 0.212725 0.289275
-3.684463 1.279562 1.875475 0.577350 -0.577350 0.577350 0.710725 0.635162
-4.026393 1.279562 1.875475 -0.577350 -0.577350 0.577350 0.500000 0.635162
-3.684463 1.376986 1.875475 0.577350 0.577350 0.577350 0.998000 0.289275
-3.684463 1.279562 1.875475 0.577350 -0.577350 0.577350 0.998000 0.347887
-4.026393 1.376986 1.875475 -0.577350 0.577350 0.577350 0.500000 0.002000
-3.684463 1.376986 1.875475 0.577350 0.577350 0.577350 0.710725 0.002000
-4.026393 1.383637 1.409334 -0.577350 -0.577350 -0.577350 0.500000 0.347887
-4.026393 1.481061 1.409334 -0.577350 0.577350 -0.577350 0.500000 0.289275
-3.684463 1.481061 1.409334 0.577350 0.577350 -0.577350 0.710725 0.289275
-3.684463 1.383637 1.409334 0.577350 -0.577350 -0.577350 0.710725 0.347887
-4.026393 1.383637 1.875475 -0.577350 -0.577350 0.577350 0.212725 0.347887
-3.684463 1.383637 1.875475 0.577350 -0.577350 0.577350 0.002000 0.347887
-3.684463 1.481061 1.875475 0.577350 0.577350 0.577350 0.002000 0.289275
-4.026393 1.481061 1.875475 -0.577350 0.577350 0.577350 0.212725 0.289275
-3.684463 1.383637 1.875475 0.577350 -0.577350 0.577350 0.710725 0.635162
-4.026393 1.383637 1.875475 -0.577350 -0.577350 0.577350 0.500000 0.635162
-3.684463 1.481061 1.875475 0.577350 0.577350 0.577350 0.998000 0.289275
-3.684463 1.383637 1.875475 0.577350 -0.577350 0.577350 0.998000 0.347887
-4.026393 1.481061 1.875475 -0.577350 0.577350 0.577350 0.500000 0.002000
-3.684463 1.481061 1.875475 0.577350 0.577350 0.577350 0.710725 0.002000
-4.026393 1.487712 1.409334 -0.577350 -0.577350 -0.577350 0.500000 0.347887
-4.026393 1.585136 1.409334 -0.577350 0.577350 -0.577350 0.500000 0.289275
-3.684463 1.585136 1.409334 0.577350 0.577350 -0.577350 0.710725 0.289275
-3.684463 1.487712 1.409334 0.577350 -0.577350 -0.577350 0.710725 0.347887
-4.026393 1.487712 1.875475 -0.577350 -0.577350 0.577350 0.212725 0.347887
-3.684463 1.487712 1.875475 0.577350 -0.577350 0.577350 0.002000 0.347887
-3.684463 1.585136 1.875475 0.577350 0.577350 0.577350 0.002000 0.289275
-4.026393 1.585136 1.875475 -0.577350 0.577350 0.577350 0.212725 0.289275
-3.684463 1.487712 1.875475 0.577350 -0.577350 0.577350 0.710725 0.635162
-4.026393 1.487712 1.875475 -0.577350 -0.577350 0.577350 0.500000 0.635162
-3.684463 1.585136 1.875475 0.577350 0.577350 0.577350 0.998000 0.289275
-3.684463 1.487712 1.875475 0.577350 -0.577350 0.577350 0.998000 0.347887
-4.026393 1.585136 1.875475 -0.577350 0.577350 0.577350 0.500000 0.002000
-3.684463 1.585136 1.875475 0.577350 0.577350 0.577350 0.710725 0.002000
-4.026393 1.591787 1.409334 -0.577350 -0.577350 -0.577350 0.500000 0.347887
-4.026393 1.689211 1.409334 -0.577350 0.577350 -0.577350 0.500000 0.289275
-3.684463 1.689211 1.409334 0.577350 0.577350 -0.577350 0.710725 0.289275
-3.684463 1.591787 1.409334 0.577350 -0.577350 -0.577350 0.710725 0.347887
-4.026393 1.591787 1.875475 -0.577350 -0.577350 0.577350 0.212725 0.347887
-3.684463 1.591787 1.875475 0.577350 -0.577350 0.577350 0.002000 0.347887
-3.684463 1.689211 1.875475 0.577350 0.577350 0.577350 0.002000 0.289275
-4.026393 1.689211 1.875475 -0.577350 0.577350 0.577350 0.212725 0.289275
-3.684463 1.591787 1.875475 0.577350 -0.577350 0.577350 0.710725 0.635162
-4.026393 1.591787 1.875475 -0.577350 -0.577350 0.577350 0.500000 0.635162
-3.684463 1.689211 1.875475 0.577350 0.577350 0.577350 0.998000 0.289275
-3.684463 1.591787 1.875475 0.577350 -0.577350 0.577350 0.998000 0.347887
-4.026393 1.689211 1.875475 -0.577350 0.577350 0.577350 0.500000 0.002000
-3.684463 1.689211 1.875475 0.577350 0.577350 0.577350 0.710725 0.002000
-4.026393 1.695861 1.409334 -0.577350 -0.577350 -0.577350 0.500000 0.347887
-4.026393 1.793285 1.409334 -0.577350 0.577350 -0.577350 0.500000 0.289275
-3.684463 1.793285 1.409334 0.577350 0.577350 -0.577350 0.710725 0.289275
-3.684463 1.695861 1.409334 0.577350 -0.577350 -0.577350 0.710725 0.347887
-4.026393 1.695861 1.875475 -0.577350 -0.577350 0.577350 0.212725 0.347887
-3.684463 1.695861 1.875475 0.577350 -0.577350 0.577350 0.002000 0.347887
-3.684463 1.793285 1.875475 0.577350 0.577350 0.577350 0.002000 0.289275
-4.026393 1.793285 1.875475 -0.577350 0.577350 0.577350 0.212725 0.289275
-3.684463 1.695861 1.875475 0.577350 -0.577350 0.577350 0.710725 0.635162
-4.026393 1.695861 1.875475 -0.577350 -0.577350 0.577350 0.500000 0.635162
-3.684463 1.793285 1.875475 0.577350 0.577350 0.577350 0.998000 0.289275
-3.684463 1.695861 1.875475 0.577350 -0.577350 0.577350 0.998000 0.347887
-4.026393 1.793285 1.875475 -0.577350 0.577350 0.577350 0.500000 0.002000
-3.684463 1.793285 1.875475 0.577350 0.577350 0.577350 0.710725 0.002000
-4.026393 1.799936 1.409334 -0.577350 -0.577350 -0.577350 0.500000 0.347887
-4.026393 1.897360 1.409334 -0.577350 0.577350 -0.577350 0.500000 0.289275
-3.684463 1.897360 1.409334 0.577350 0.577350 -0.577350 0.710725 0.289275
-3.684463 1.799936 1.409334 0.577350 -0.577350 -0.577350 0.710725 0.347887
-4.026393 1.799936 1.875475 -0.577350 -0.577350 0.577350 0.212725 0.347887
-3.684463 1.799936 1.875475 0.577350 -0.577350 0.577350 0.002000 0.347887
-3.684463 1.897360 1.875475 0.577350 0.577350 0.577350 0.002000 0.289275
-4.026393 1.897360 1.875475 -0.577350 0.577350 0.577350 0.212725 0.289275
-3.684463 1.799936 1.875475 0.577350 -0.577350 0.577350 0.710725 0.635162
-4.026393 1.799936 1.875475 -0.577350 -0.577350 0.577350 0.500000 0.635162
-3.684463 1.897360 1.875475 0.577350 0.577350 0.577350 0.998000 0.289275
-3.684463 1.799936 1.875475 0.577350 -0.577350 0.577350 0.998000 0.347887
-4.026393 1.897360 1.875475 -0.577350 0.577350 0.577350 0.500000 0.002000
-3.684463 1.897360 1.875475 0.577350 0.577350 0.577350 0.710725 0.002000
3 0 1 2
3 2 3 0
3 4 5 6
3 6 7 4
3 0 3 8
3 8 9 0
3 3 2 10
3 10 11 3
3 2 1 12
3 12 13 2
3 1 0 4
3 4 7 1
3 14 15 16
3 16 17 14
3 18 19 20
3 20 21 18
3 14 17 22
3 22 23 14
3 17 16 24
3 24 25 17
3 16 15 26
3 26 27 16
3 15 14 18
3 18 21 15
3 28 29 30
3 30 31 28
3 32 33 34
3 34 35 32
3 28 31 36
3 36 37 28
3 31 30 38
3 38 39 31
3 30 29 40
3 40 41 30
3 29 28 32
3 32 35 29
3 42 43 44
3 44 45 42
3 46 47 48
3 48 49 46
3 42 45 50
3 50 51 42
3 45 44 52
3 52 53 45
3 44 43 54
3 54 55 44
3 43 42 46
3 46 49 43
3 56 57 58
3 58 59 56
3 60 61 62
3 62 63 60
3 56 59 64
3 64 65 56
3 59 58 66
3 66 67 59
3 58 57 68
3 68 69 58
3 57 56 60
3 60 63 57
3 70 71 72
3 72 73 70
3 74 75 76
3 76 77 74
3 70 73 78
3 78 79 70
3 73 72 80
3 80 81 73
3 72 71 82
3 82 83 72
3 71 70 74
3 74 77 71
3 84 85 86
3 86 87 84
3 88 89 90
3 90 91 88
3 84 87 92
3 92 93 84
3 87 86 94
3 94 95 87
3 86 85 96
3 96 97 86
3 85 84 88
3 88 91 85
3 98 99 100
3 100 101 98
3 102 103 104
3 104 105 102
3 98 101 106
3 106 107 98
3 101 100 108
3 108 109 101
3 100 99 110
3 110 111 100
3 99 98 102
3 102 105 99
3 112 113 114
3 114 115 112
3 116 117 118
3 118 119 116
3 112 115 120
3 120 121 112
3 115 114 122
3 122 123 115
3 114 113 124
3 124 125 114
3 113 112 116
3 116 119 113
3 126 127 128
3 128 129 126
3 130 131 132
3 132 133 130
3 126 129 134
3 134 135 126
3 129 128 136
3 136 137 129
3 128 127 138
3 138 139 128
3 127 126 130
3 130 133 127
3 140 141 142
3 142 143 140
3 144 145 146
3 146 147 144
3 140 143 148
3 148 149 140
3 143 142 150
3 150 151 143
3 142 141 152
3 152 153 142
3 141 140 144
3 144 147 141
3 154 155 156
3 156 157 154
3 158 159 160
3 160 161 158
3 154 157 162
3 162 163 154
3 157 156 164
3 164 165 157
3 156 155 166
3 166 167 156
3 155 154 158
3 158 161 155
3 168 169 170
3 170 171 168
3 172 173 174
3 174 175 172
3 168 171 176
3 176 177 168
3 171 170 178
3 178 179 171
3 170 169 180
3 180 181 170
3 169 168 172
3 172 175 169
3 182 183 184
3 184 185 182
3 186 187 188
3 188 189 186
3 182 185 190
3 190 191 182
3 185 184 192
3 192 193 185
3 184 183 194
3 194 195 184
3 183 182 186
3 186 189 183
3 196 197 198
3 198 199 196
3 200 201 202
3 202 203 200
3 196 199 204
3 204 205 196
3 199 198 206
3 206 207 199
3 198 197 208
3 208 209 198
3 197 196 200
3 200 203 197
3 210 211 212
3 212 213 210
3 214 215 216
3 216 217 214
3 210 213 218
3 218 219 210
3 213 212 220
3 220 221 213
3 212 211 222
3 222 223 212
3 211 210 214
3 214 217 211
3 224 225 226
3 226 227 224
3 228 229 230
3 230 231 228
3 224 227 232
3 232 233 224
3 227 226 234
3 234 235 227
3 226 225 236
3 236 237 226
3 225 224 228
3 228 231 225
3 238 239 240
3 240 241 238
3 242 243 244
3 244 245 242
3 238 241 246
3 246 247 238
3 241 240 248
3 248 249 241
3 240 239 250
3 250 251 240
3 239 238 242
3 242 245 239
