ply
format ascii 1.0
comment Created by Blender 3.4.1 - www.blender.org
element vertex 60
property float x
property float y
property float z
property float nx
property float ny
property float nz
property float s
property float t
element face 48
property list uchar uint vertex_indices
end_header
-4.026393 0.016853 3.140460 -0.577350 -0.577350 -0.577350 0.500000 0.358105
-4.026393 0.140492 3.140460 -0.577350 0.577350 -0.577350 0.500000 0.277735
-3.684463 0.140492 3.140460 0.577350 0.577350 -0.577350 0.722265 0.277735
-3.684463 0.016853 3.140460 0.577350 -0.577350 -0.577350 0.722265 0.358105
-4.026393 0.016853 3.564648 -0.577350 -0.577350 0.577350 0.224265 0.358105
-3.684463 0.016853 3.564648 0.577350 -0.577350 0.577350 0.002000 0.358104
-3.684463 0.140492 3.564648 0.577350 0.577350 0.577350 0.002000 0.277735
-4.026393 0.140492 3.564648 -0.577350 0.577350 0.577350 0.224265 0.277735
-3.684463 0.016853 3.564648 0.577350 -0.577350 0.577350 0.722265 0.633840
-4.026393 0.016853 3.564648 -0.577350 -0.577350 0.577350 0.500000 0.633840
-3.684463 0.140492 3.564648 0.577350 0.577350 0.577350 0.998000 0.277735
-3.684463 0.016853 3.564648 0.577350 -0.577350 0.577350 0.998000 0.358105
-4.026393 0.140492 3.564648 -0.577350 0.577350 0.577350 0.500000 0.002000
-3.684463 0.140492 3.564648 0.577350 0.577350 0.577350 0.722265 0.002000
-4.026393 0.140492 3.564648 -0.577350 0.577350 0.577350 0.224265 0.277735
-4.026393 0.146393 3.140460 -0.577350 -0.577350 -0.577350 0.500000 0.358105
-4.026393 0.270032 3.140460 -0.577350 0.577350 -0.577350 0.500000 0.277735
-3.684463 0.270032 3.140460 0.577350 0.577350 -0.577350 0.722265 0.277735
-3.684463 0.146393 3.140460 0.577350 -0.577350 -0.577350 0.722265 0.358105
-4.026393 0.146393 3.564648 -0.577350 -0.577350 0.577350 0.224265 0.358105
-3.684463 0.146393 3.564648 0.577350 -0.577350 0.577350 0.002000 0.358104
-3.684463 0.270032 3.564648 0.577350 0.577350 0.577350 0.002000 0.277735
-4.026393 0.270032 3.564648 -0.577350 0.577350 0.577350 0.224265 0.277735
-3.684463 0.146393 3.564648 0.577350 -0.577350 0.577350 0.722265 0.633840
-4.026393 0.146393 3.564648 -0.577350 -0.577350 0.577350 0.500000 0.633840
-3.684463 0.270032 3.564648 0.577350 0.577350 0.577350 0.998000 0.277735
-3.684463 0.146393 3.564648 0.577350 -0.577350 0.577350 0.998000 0.358105
-4.026393 0.270032 3.564648 -0.577350 0.577350 0.577350 0.500000 0.002000
-3.684463 0.270032 3.564648 0.577350 0.577350 0.577350 0.722265 0.002000
-4.026393 0.270032 3.564648 -0.577350 0.577350 0.577350 0.224265 0.277735
-4.026393 0.275933 3.140460 -0.577350 -0.577350 -0.577350 0.500000 0.358105
-4.026393 0.399572 3.140460 -0.577350 0.577350 -0.577350 0.500000 0.277735
-3.684463 0.399572 3.140460 0.577350 0.577350 -0.577350 0.722265 0.277735
-3.684463 0.275933 3.140460 0.577350 -0.577350 -0.577350 0.722265 0.358105
-4.026393 0.275933 3.564648 -0.577350 -0.577350 0.577350 0.224265 0.358105
-3.684463 0.275933 3.564648 0.577350 -0.577350 0.577350 0.002000 0.358104
-3.684463 0.399572 3.564648 0.577350 0.577350 0.577350 0.002000 0.277735
-4.026393 0.399572 3.564648 -0.577350 0.577350 0.577350 0.224265 0.277735
-3.684463 0.275933 3.564648 0.577350 -0.577350 0.577350 0.722265 0.633840
-4.026393 0.275933 3.564648 -0.577350 -0.577350 0.577350 0.500000 0.633840
-3.684463 0.399572 3.564648 0.577350 0.577350 0.577350 0.998000 0.277735
-3.684463 0.275933 3.564648 0.577350 -0.577350 0.577350 0.998000 0.358105
-4.026393 0.399572 3.564648 -0.577350 0.577350 0.577350 0.500000 0.002000
-3.684463 0.399572 3.564648 0.577350 0.577350 0.577350 0.722265 0.002000
-4.026393 0.399572 3.564648 -0.577350 0.577350 0.577350 0.224265 0.277735
-4.026393 0.405473 3.140460 -0.577350 -0.577350 -0.577350 0.500000 0.358105
-4.026393 0.529112 3.140460 -0.577350 0.577350 -0.577350 0.500000 0.277735
-3.684463 0.529112 3.140460 0.577350 0.577350 -0.577350 0.722265 0.277735
-3.684463 0.405473 3.140460 0.577350 -0.577350 -0.577350 0.722265 0.358105
-4.026393 0.405473 3.564648 -0.577350 -0.577350 0.577350 0.224265 0.358105
-3.684463 0.405473 3.564648 0.577350 -0.577350 0.577350 0.002000 0.358104
-3.684463 0.529112 3.564648 0.577350 0.577350 0.577350 0.002000 0.277735
-4.026393 0.529112 3.564648 -0.577350 0.577350 0.577350 0.224265 0.277735
-3.684463 0.405473 3.564648 0.577350 -0.577350 0.577350 0.722265 0.633840
-4.026393 0.405473 3.564648 -0.577350 -0.577350 0.577350 0.500000 0.633840
-3.684463 0.529112 3.564648 0.577350 0.577350 0.577350 0.998000 0.277735
-3.684463 0.405473 3.564648 0.577350 -0.577350 0.577350 0.998000 0.358105
-4.026393 0.529112 3.564648 -0.577350 0.577350 0.577350 0.500000 0.002000
-3.684463 0.529112 3.564648 0.577350 0.577350 0.577350 0.722265 0.002000
-4.026393 0.529112 3.564648 -0.577350 0.577350 0.577350 0.224265 0.277735
3 0 1 2
3 2 3 0
3 4 5 6
3 6 7 4
3 0 3 8
3 8 9 0
3 3 2 10
3 10 11 3
3 2 1 12
3 12 13 2
3 1 0 4
3 4 14 1
3 15 16 17
3 17 18 15
3 19 20 21
3 21 22 19
3 15 18 23
3 23 24 15
3 18 17 25
3 25 26 18
3 17 16 27
3 27 28 17
3 16 15 19
3 19 29 16
3 30 31 32
3 32 33 30
3 34 35 36
3 36 37 34
3 30 33 38
3 38 39 30
3 33 32 40
3 40 41 33
3 32 31 42
3 42 43 32
3 31 30 34
3 34 44 31
3 45 46 47
3 47 48 45
3 49 50 51
3 51 52 49
3 45 48 53
3 53 54 45
3 48 47 55
3 55 56 48
3 47 46 57
3 57 58 47
3 46 45 49
3 49 59 46
