ply
format ascii 1.0
comment Created by Blender 3.4.1 - www.blender.org
element vertex 140
property float x
property float y
property float z
property float nx
property float ny
property float nz
property float s
property float t
element face 120
property list uchar uint vertex_indices
end_header
-4.026393 1.335613 2.273578 -0.577350 -0.577350 -0.577350 0.500000 0.326749
-4.026393 1.385068 2.273578 -0.577350 0.577350 -0.577350 0.500000 0.297453
-3.684463 1.385068 2.273578 0.577350 0.577350 -0.577350 0.702547 0.297453
-3.684463 1.335613 2.273578 0.577350 -0.577350 -0.577350 0.702547 0.326749
-4.026393 1.335613 2.772349 -0.577350 -0.577350 0.577350 0.204547 0.326749
-3.684463 1.335613 2.772349 0.577350 -0.577350 0.577350 0.002000 0.326749
-3.684463 1.385068 2.772349 0.577350 0.577350 0.577350 0.002000 0.297453
-4.026393 1.385068 2.772349 -0.577350 0.577350 0.577350 0.204547 0.297453
-3.684463 1.335613 2.772349 0.577350 -0.577350 0.577350 0.702547 0.622203
-4.026393 1.335613 2.772349 -0.577350 -0.577350 0.577350 0.500000 0.622203
-3.684463 1.385068 2.772349 0.577350 0.577350 0.577350 0.998000 0.297453
-3.684463 1.335613 2.772349 0.577350 -0.577350 0.577350 0.998000 0.326749
-4.026393 1.385068 2.772349 -0.577350 0.577350 0.577350 0.500000 0.002000
-3.684463 1.385068 2.772349 0.577350 0.577350 0.577350 0.702547 0.002000
-4.026393 1.391492 2.273578 -0.577350 -0.577350 -0.577350 0.500000 0.326749
-4.026393 1.440948 2.273578 -0.577350 0.577350 -0.577350 0.500000 0.297453
-3.684463 1.440948 2.273578 0.577350 0.577350 -0.577350 0.702547 0.297453
-3.684463 1.391492 2.273578 0.577350 -0.577350 -0.577350 0.702547 0.326749
-4.026393 1.391492 2.772350 -0.577350 -0.577350 0.577350 0.204547 0.326749
-3.684463 1.391492 2.772350 0.577350 -0.577350 0.577350 0.002000 0.326749
-3.684463 1.440948 2.772350 0.577350 0.577350 0.577350 0.002000 0.297453
-4.026393 1.440948 2.772350 -0.577350 0.577350 0.577350 0.204547 0.297453
-3.684463 1.391492 2.772350 0.577350 -0.577350 0.577350 0.702547 0.622203
-4.026393 1.391492 2.772350 -0.577350 -0.577350 0.577350 0.500000 0.622203
-3.684463 1.440948 2.772350 0.577350 0.577350 0.577350 0.998000 0.297453
-3.684463 1.391492 2.772350 0.577350 -0.577350 0.577350 0.998000 0.326749
-4.026393 1.440948 2.772350 -0.577350 0.577350 0.577350 0.500000 0.002000
-3.684463 1.440948 2.772350 0.577350 0.577350 0.577350 0.702547 0.002000
-4.026393 1.447372 2.273578 -0.577350 -0.577350 -0.577350 0.500000 0.326749
-4.026393 1.496828 2.273578 -0.577350 0.577350 -0.577350 0.500000 0.297453
-3.684463 1.496828 2.273578 0.577350 0.577350 -0.577350 0.702547 0.297453
-3.684463 1.447372 2.273578 0.577350 -0.577350 -0.577350 0.702547 0.326749
-4.026393 1.447373 2.772350 -0.577350 -0.577350 0.577350 0.204547 0.326749
-3.684463 1.447373 2.772350 0.577350 -0.577350 0.577350 0.002000 0.326749
-3.684463 1.496828 2.772350 0.577350 0.577350 0.577350 0.002000 0.297453
-4.026393 1.496828 2.772350 -0.577350 0.577350 0.577350 0.204547 0.297453
-3.684463 1.447373 2.772350 0.577350 -0.577350 0.577350 0.702547 0.622203
-4.026393 1.447373 2.772350 -0.577350 -0.577350 0.577350 0.500000 0.622203
-3.684463 1.496828 2.772350 0.577350 0.577350 0.577350 0.998000 0.297453
-3.684463 1.447373 2.772350 0.577350 -0.577350 0.577350 0.998000 0.326749
-4.026393 1.496828 2.772350 -0.577350 0.577350 0.577350 0.500000 0.002000
-3.684463 1.496828 2.772350 0.577350 0.577350 0.577350 0.702547 0.002000
-4.026393 1.503253 2.273578 -0.577350 -0.577350 -0.577350 0.500000 0.326749
-4.026393 1.552708 2.273578 -0.577350 0.577350 -0.577350 0.500000 0.297453
-3.684463 1.552708 2.273578 0.577350 0.577350 -0.577350 0.702547 0.297453
-3.684463 1.503253 2.273578 0.577350 -0.577350 -0.577350 0.702547 0.326749
-4.026393 1.503253 2.772350 -0.577350 -0.577350 0.577350 0.204547 0.326749
-3.684463 1.503253 2.772350 0.577350 -0.577350 0.577350 0.002000 0.326749
-3.684463 1.552708 2.772350 0.577350 0.577350 0.577350 0.002000 0.297453
-4.026393 1.552708 2.772350 -0.577350 0.577350 0.577350 0.204547 0.297453
-3.684463 1.503253 2.772350 0.577350 -0.577350 0.577350 0.702547 0.622203
-4.026393 1.503253 2.772350 -0.577350 -0.577350 0.577350 0.500000 0.622203
-3.684463 1.552708 2.772350 0.577350 0.577350 0.577350 0.998000 0.297453
-3.684463 1.503253 2.772350 0.577350 -0.577350 0.577350 0.998000 0.326749
-4.026393 1.552708 2.772350 -0.577350 0.577350 0.577350 0.500000 0.002000
-3.684463 1.552708 2.772350 0.577350 0.577350 0.577350 0.702547 0.002000
-4.026393 1.559132 2.273578 -0.577350 -0.577350 -0.577350 0.500000 0.326749
-4.026393 1.608588 2.273578 -0.577350 0.577350 -0.577350 0.500000 0.297453
-3.684463 1.608588 2.273578 0.577350 0.577350 -0.577350 0.702547 0.297453
-3.684463 1.559132 2.273578 0.577350 -0.577350 -0.577350 0.702547 0.326749
-4.026393 1.559132 2.772350 -0.577350 -0.577350 0.577350 0.204547 0.326749
-3.684463 1.559132 2.772350 0.577350 -0.577350 0.577350 0.002000 0.326749
-3.684463 1.608588 2.772350 0.577350 0.577350 0.577350 0.002000 0.297453
-4.026393 1.608588 2.772350 -0.577350 0.577350 0.577350 0.204547 0.297453
-3.684463 1.559132 2.772350 0.577350 -0.577350 0.577350 0.702547 0.622203
-4.026393 1.559132 2.772350 -0.577350 -0.577350 0.577350 0.500000 0.622203
-3.684463 1.608588 2.772350 0.577350 0.577350 0.577350 0.998000 0.297453
-3.684463 1.559132 2.772350 0.577350 -0.577350 0.577350 0.998000 0.326749
-4.026393 1.608588 2.772350 -0.577350 0.577350 0.577350 0.500000 0.002000
-3.684463 1.608588 2.772350 0.577350 0.577350 0.577350 0.702547 0.002000
-4.026393 1.615012 2.273578 -0.577350 -0.577350 -0.577350 0.500000 0.326749
-4.026393 1.664468 2.273578 -0.577350 0.577350 -0.577350 0.500000 0.297453
-3.684463 1.664468 2.273578 0.577350 0.577350 -0.577350 0.702547 0.297453
-3.684463 1.615012 2.273578 0.577350 -0.577350 -0.577350 0.702547 0.326749
-4.026393 1.615012 2.772350 -0.577350 -0.577350 0.577350 0.204547 0.326749
-3.684463 1.615012 2.772350 0.577350 -0.577350 0.577350 0.002000 0.326749
-3.684463 1.664468 2.772350 0.577350 0.577350 0.577350 0.002000 0.297453
-4.026393 1.664468 2.772350 -0.577350 0.577350 0.577350 0.204547 0.297453
-3.684463 1.615012 2.772350 0.577350 -0.577350 0.577350 0.702547 0.622203
-4.026393 1.615012 2.772350 -0.577350 -0.577350 0.577350 0.500000 0.622203
-3.684463 1.664468 2.772350 0.577350 0.577350 0.577350 0.998000 0.297453
-3.684463 1.615012 2.772350 0.577350 -0.577350 0.577350 0.998000 0.326749
-4.026393 1.664468 2.772350 -0.577350 0.577350 0.577350 0.500000 0.002000
-3.684463 1.664468 2.772350 0.577350 0.577350 0.577350 0.702547 0.002000
-4.026393 1.670892 2.273578 -0.577350 -0.577350 -0.577350 0.500000 0.326749
-4.026393 1.720348 2.273578 -0.577350 0.577350 -0.577350 0.500000 0.297453
-3.684463 1.720348 2.273578 0.577350 0.577350 -0.577350 0.702547 0.297453
-3.684463 1.670892 2.273578 0.577350 -0.577350 -0.577350 0.702547 0.326749
-4.026393 1.670892 2.772350 -0.577350 -0.577350 0.577350 0.204547 0.326749
-3.684463 1.670892 2.772350 0.577350 -0.577350 0.577350 0.002000 0.326749
-3.684463 1.720348 2.772350 0.577350 0.577350 0.577350 0.002000 0.297453
-4.026393 1.720348 2.772350 -0.577350 0.577350 0.577350 0.204547 0.297453
-3.684463 1.670892 2.772350 0.577350 -0.577350 0.577350 0.702547 0.622203
-4.026393 1.670892 2.772350 -0.577350 -0.577350 0.577350 0.500000 0.622203
-3.684463 1.720348 2.772350 0.577350 0.577350 0.577350 0.998000 0.297453
-3.684463 1.670892 2.772350 0.577350 -0.577350 0.577350 0.998000 0.326749
-4.026393 1.720348 2.772350 -0.577350 0.577350 0.577350 0.500000 0.002000
-3.684463 1.720348 2.772350 0.577350 0.577350 0.577350 0.702547 0.002000
-4.026393 1.726772 2.273578 -0.577350 -0.577350 -0.577350 0.500000 0.326749
-4.026393 1.776228 2.273578 -0.577350 0.577350 -0.577350 0.500000 0.297453
-3.684463 1.776228 2.273578 0.577350 0.577350 -0.577350 0.702547 0.297453
-3.684463 1.726772 2.273578 0.577350 -0.577350 -0.577350 0.702547 0.326749
-4.026393 1.726772 2.772350 -0.577350 -0.577350 0.577350 0.204547 0.326749
-3.684463 1.726772 2.772350 0.577350 -0.577350 0.577350 0.002000 0.326749
-3.684463 1.776228 2.772350 0.577350 0.577350 0.577350 0.002000 0.297453
-4.026393 1.776228 2.772350 -0.577350 0.577350 0.577350 0.204547 0.297453
-3.684463 1.726772 2.772350 0.577350 -0.577350 0.577350 0.702547 0.622203
-4.026393 1.726772 2.772350 -0.577350 -0.577350 0.577350 0.500000 0.622203
-3.684463 1.776228 2.772350 0.577350 0.577350 0.577350 0.998000 0.297453
-3.684463 1.726772 2.772350 0.577350 -0.577350 0.577350 0.998000 0.326749
-4.026393 1.776228 2.772350 -0.577350 0.577350 0.577350 0.500000 0.002000
-3.684463 1.776228 2.772350 0.577350 0.577350 0.577350 0.702547 0.002000
-4.026393 1.782652 2.273578 -0.577350 -0.577350 -0.577350 0.500000 0.326749
-4.026393 1.832107 2.273578 -0.577350 0.577350 -0.577350 0.500000 0.297453
-3.684463 1.832107 2.273578 0.577350 0.577350 -0.577350 0.702547 0.297453
-3.684463 1.782652 2.273578 0.577350 -0.577350 -0.577350 0.702547 0.326749
-4.026393 1.782652 2.772350 -0.577350 -0.577350 0.577350 0.204547 0.326749
-3.684463 1.782652 2.772350 0.577350 -0.577350 0.577350 0.002000 0.326749
-3.684463 1.832107 2.772350 0.577350 0.577350 0.577350 0.002000 0.297453
-4.026393 1.832107 2.772350 -0.577350 0.577350 0.577350 0.204547 0.297453
-3.684463 1.782652 2.772350 0.577350 -0.577350 0.577350 0.702547 0.622203
-4.026393 1.782652 2.772350 -0.577350 -0.577350 0.577350 0.500000 0.622203
-3.684463 1.832107 2.772350 0.577350 0.577350 0.577350 0.998000 0.297453
-3.684463 1.782652 2.772350 0.577350 -0.577350 0.577350 0.998000 0.326749
-4.026393 1.832107 2.772350 -0.577350 0.577350 0.577350 0.500000 0.002000
-3.684463 1.832107 2.772350 0.577350 0.577350 0.577350 0.702547 0.002000
-4.026393 1.838532 2.273578 -0.577350 -0.577350 -0.577350 0.500000 0.326749
-4.026393 1.887987 2.273578 -0.577350 0.577350 -0.577350 0.500000 0.297453
-3.684463 1.887987 2.273578 0.577350 0.577350 -0.577350 0.702547 0.297453
-3.684463 1.838532 2.273578 0.577350 -0.577350 -0.577350 0.702547 0.326749
-4.026393 1.838532 2.772350 -0.577350 -0.577350 0.577350 0.204547 0.326749
-3.684463 1.838532 2.772350 0.577350 -0.577350 0.577350 0.002000 0.326749
-3.684463 1.887987 2.772350 0.577350 0.577350 0.577350 0.002000 0.297453
-4.026393 1.887987 2.772350 -0.577350 0.577350 0.577350 0.204547 0.297453
-3.684463 1.838532 2.772350 0.577350 -0.577350 0.577350 0.702547 0.622203
-4.026393 1.838532 2.772350 -0.577350 -0.577350 0.577350 0.500000 0.622203
-3.684463 1.887987 2.772350 0.577350 0.577350 0.577350 0.998000 0.297453
-3.684463 1.838532 2.772350 0.577350 -0.577350 0.577350 0.998000 0.326749
-4.026393 1.887987 2.772350 -0.577350 0.577350 0.577350 0.500000 0.002000
-3.684463 1.887987 2.772350 0.577350 0.577350 0.577350 0.702547 0.002000
3 0 1 2
3 2 3 0
3 4 5 6
3 6 7 4
3 0 3 8
3 8 9 0
3 3 2 10
3 10 11 3
3 2 1 12
3 12 13 2
3 1 0 4
3 4 7 1
3 14 15 16
3 16 17 14
3 18 19 20
3 20 21 18
3 14 17 22
3 22 23 14
3 17 16 24
3 24 25 17
3 16 15 26
3 26 27 16
3 15 14 18
3 18 21 15
3 28 29 30
3 30 31 28
3 32 33 34
3 34 35 32
3 28 31 36
3 36 37 28
3 31 30 38
3 38 39 31
3 30 29 40
3 40 41 30
3 29 28 32
3 32 35 29
3 42 43 44
3 44 45 42
3 46 47 48
3 48 49 46
3 42 45 50
3 50 51 42
3 45 44 52
3 52 53 45
3 44 43 54
3 54 55 44
3 43 42 46
3 46 49 43
3 56 57 58
3 58 59 56
3 60 61 62
3 62 63 60
3 56 59 64
3 64 65 56
3 59 58 66
3 66 67 59
3 58 57 68
3 68 69 58
3 57 56 60
3 60 63 57
3 70 71 72
3 72 73 70
3 74 75 76
3 76 77 74
3 70 73 78
3 78 79 70
3 73 72 80
3 80 81 73
3 72 71 82
3 82 83 72
3 71 70 74
3 74 77 71
3 84 85 86
3 86 87 84
3 88 89 90
3 90 91 88
3 84 87 92
3 92 93 84
3 87 86 94
3 94 95 87
3 86 85 96
3 96 97 86
3 85 84 88
3 88 91 85
3 98 99 100
3 100 101 98
3 102 103 104
3 104 105 102
3 98 101 106
3 106 107 98
3 101 100 108
3 108 109 101
3 100 99 110
3 110 111 100
3 99 98 102
3 102 105 99
3 112 113 114
3 114 115 112
3 116 117 118
3 118 119 116
3 112 115 120
3 120 121 112
3 115 114 122
3 122 123 115
3 114 113 124
3 124 125 114
3 113 112 116
3 116 119 113
3 126 127 128
3 128 129 126
3 130 131 132
3 132 133 130
3 126 129 134
3 134 135 126
3 129 128 136
3 136 137 129
3 128 127 138
3 138 139 128
3 127 126 130
3 130 133 127
