ply
format ascii 1.0
comment Created by Blender 3.4.1 - www.blender.org
element vertex 410
property float x
property float y
property float z
property float nx
property float ny
property float nz
property float s
property float t
element face 168
property list uchar uint vertex_indices
end_header
10.304644 -3.817302 0.197556 0.000000 0.000000 1.000000 0.027616 0.030390
16.965702 -3.817302 0.197556 0.000000 0.000000 1.000000 0.339198 0.030390
16.965702 3.582509 0.197556 0.000000 0.000000 1.000000 0.339198 0.376529
10.304644 3.582509 0.197556 0.000000 0.000000 1.000000 0.027616 0.376529
9.756858 2.036823 6.511791 0.000000 0.000000 -1.000000 0.735317 0.304227
9.756858 4.191050 6.511791 0.000000 -0.707107 -0.707107 0.735317 0.404994
11.696013 4.191050 6.511791 0.000000 -0.707068 -0.707145 0.644610 0.404994
13.635176 4.191050 6.511791 0.000000 -0.707107 -0.707107 0.553902 0.404994
15.574333 4.191050 6.511791 0.000000 -0.707068 -0.707145 0.463195 0.404994
17.513489 4.191050 6.511791 -0.577351 -0.577351 -0.577350 0.372488 0.404994
9.756858 -0.117399 6.511791 0.000000 0.000000 -1.000000 0.735317 0.203459
9.756858 -2.271624 6.511791 0.000000 0.000000 -1.000000 0.735317 0.102692
9.756858 -4.425843 6.511791 0.000000 0.707107 -0.707107 0.735317 0.001925
17.513489 2.036824 6.511791 -0.707107 0.000000 -0.707107 0.372488 0.304227
17.513489 -0.117398 6.511791 -0.707107 0.000000 -0.707107 0.372488 0.203459
17.513489 -2.271622 6.511791 -0.707107 0.000000 -0.707107 0.372488 0.102692
17.513489 -4.425843 6.511791 -0.577350 0.577350 -0.577350 0.372488 0.001925
16.543907 -4.425843 6.511791 0.000000 0.707162 -0.707052 0.417842 0.001925
15.574331 -4.425843 6.511791 0.000000 0.707162 -0.707052 0.463195 0.001925
13.635172 -4.425843 6.511791 0.000000 0.707146 -0.707068 0.553903 0.001925
11.696014 -4.425843 6.511791 0.000000 0.707107 -0.707107 0.644610 0.001925
10.726434 -4.425843 6.511791 0.000000 0.707146 -0.707068 0.689964 0.001925
9.756858 4.191050 0.197556 0.000000 -0.707107 0.707107 0.001992 0.404994
9.756858 -4.425843 0.197556 0.000000 0.707107 0.707107 0.001992 0.001925
10.726434 -4.425843 0.197556 0.000000 0.707146 0.707068 0.047346 0.001925
11.696014 -4.425843 0.197556 0.000000 0.707107 0.707107 0.092699 0.001925
13.635172 -4.425843 0.197556 0.000000 0.707146 0.707068 0.183407 0.001925
15.574331 -4.425843 0.197556 0.000000 0.707162 0.707052 0.274114 0.001925
16.543907 -4.425843 0.197556 0.000000 0.707162 0.707052 0.319468 0.001925
17.513489 -4.425843 0.197556 -0.577350 0.577350 0.577350 0.364821 0.001925
17.513489 -2.271623 0.197556 -0.707107 0.000000 0.707107 0.364821 0.102692
17.513489 -1.733067 0.197556 -0.577350 -0.577350 0.577350 0.364821 0.127884
17.513489 -1.194510 0.197556 -0.531083 0.601584 0.596697 0.364821 0.153076
17.419397 -0.117398 0.197556 -0.651895 0.009822 0.758245 0.360420 0.203459
17.513489 0.959713 0.197556 -0.521020 -0.606293 0.600789 0.364821 0.253843
17.513489 1.498268 0.197556 -0.577350 0.577350 0.577350 0.364821 0.279035
17.513489 2.036824 0.197556 -0.707107 0.000000 0.707107 0.364821 0.304227
17.513489 4.191050 0.197556 -0.577350 -0.577350 0.577350 0.364821 0.404994
9.756858 4.191050 0.197556 0.000000 -0.707107 0.707107 0.401155 0.771815
17.513489 4.191050 0.197556 -0.577350 -0.577350 0.577350 0.401155 0.408986
17.513489 4.191050 6.308313 0.000000 -1.000000 0.000000 0.686996 0.408986
9.756858 4.191050 6.308313 0.000000 -1.000000 0.000000 0.686996 0.771815
17.513489 4.191050 6.511791 -0.577351 -0.577351 -0.577350 0.696514 0.408986
15.574333 4.191050 6.511791 0.000000 -0.707068 -0.707145 0.696514 0.499693
13.635176 4.191050 6.511791 0.000000 -0.707107 -0.707107 0.696514 0.590400
11.696013 4.191050 6.511791 0.000000 -0.707068 -0.707145 0.696514 0.681108
9.756858 4.191050 6.511791 0.000000 -0.707107 -0.707107 0.696514 0.771815
17.513489 4.191050 0.197556 -0.577350 -0.577350 0.577350 0.702649 0.812055
17.513489 2.036824 0.197556 -0.707107 0.000000 0.707107 0.702649 0.711288
17.513489 2.036824 3.923716 -1.000000 0.000000 0.000000 0.876946 0.711288
17.513489 4.191050 3.923716 -1.000000 0.000000 0.000000 0.876946 0.812055
17.513489 2.036824 6.511791 -0.707107 0.000000 -0.707107 0.998008 0.711288
17.513489 4.191050 6.511791 -0.577351 -0.577351 -0.577350 0.998008 0.812055
17.513489 -4.425843 5.641685 0.000000 1.000000 0.000000 0.140361 0.408986
16.543907 -4.425843 5.641685 0.000000 1.000000 0.000000 0.140361 0.454340
16.543907 -4.425843 6.511791 0.000000 0.707162 -0.707052 0.099661 0.454340
17.513489 -4.425843 6.511791 -0.577350 0.577350 -0.577350 0.099661 0.408986
17.513489 -4.425843 1.614462 0.000000 1.000000 0.000000 0.328741 0.408986
16.543907 -4.425843 1.614462 0.000000 1.000000 0.000000 0.328741 0.454340
16.543907 -4.425843 3.031367 0.000000 1.000000 -0.000000 0.262464 0.454340
17.513489 -4.425843 3.031367 0.000000 1.000000 -0.000000 0.262464 0.408986
17.513489 -1.733067 3.923716 -0.904534 -0.301511 0.301511 0.876946 0.534945
17.513489 -1.733067 0.197556 -0.577350 -0.577350 0.577350 0.702649 0.534945
17.513489 -2.271623 0.197556 -0.707107 0.000000 0.707107 0.702649 0.509753
17.513489 -2.271622 3.923716 -1.000000 0.000000 0.000000 0.876946 0.509753
17.513489 -2.271622 6.511791 -0.707107 0.000000 -0.707107 0.998008 0.509753
17.513489 -0.117398 6.511791 -0.707107 0.000000 -0.707107 0.998008 0.610520
17.513489 -0.117398 3.923716 -0.707107 0.000000 0.707107 0.876946 0.610520
17.513489 -1.194510 3.923716 -0.707107 0.000000 0.707107 0.876946 0.560137
17.513489 -4.425843 0.197556 -0.577350 0.577350 0.577350 0.702649 0.408986
17.513489 -4.425843 3.923716 -1.000000 0.000000 0.000000 0.876946 0.408986
17.513489 -4.425843 6.511791 -0.577350 0.577350 -0.577350 0.998008 0.408986
17.614565 0.017822 1.012151 -0.577350 0.577350 -0.577350 0.882616 0.816047
17.614565 0.824493 1.012151 -0.577350 -0.577350 -0.577350 0.882616 0.853780
17.614565 0.824493 0.314502 -0.577350 -0.577350 0.577350 0.849982 0.853780
17.614565 0.017822 0.314502 -0.577350 0.577350 0.577350 0.849982 0.816047
17.513489 1.498268 3.923716 -0.904534 0.301511 0.301511 0.876946 0.686096
17.513489 0.959713 3.923716 -0.707107 0.000000 0.707107 0.876946 0.660904
17.180851 1.498268 3.923716 -0.577350 0.577351 0.577350 0.269194 0.950104
17.180851 1.498268 0.197556 -0.577350 0.577351 -0.577350 0.269194 0.775807
17.180851 0.959713 0.197556 -0.577351 -0.577350 -0.577351 0.294385 0.775807
17.180851 0.959713 2.060636 -0.707069 -0.707145 0.000000 0.294385 0.862955
17.180851 0.959713 2.992176 -0.707107 -0.707106 0.000000 0.294385 0.906530
17.180851 0.959713 3.457946 -0.904522 -0.301528 -0.301530 0.294385 0.928317
17.180851 0.959713 3.923716 -0.707107 0.000001 0.707107 0.294385 0.950104
17.180851 -0.117398 3.923716 -0.707107 0.000000 0.707107 0.344769 0.950104
17.180851 -0.117398 3.457946 -0.707107 0.000000 -0.707107 0.344769 0.928317
17.180851 -1.194510 3.457946 -0.904521 0.301531 -0.301529 0.395153 0.928317
17.180851 -1.194510 3.923716 -0.707107 0.000001 0.707107 0.395153 0.950104
17.513489 1.498268 0.197556 -0.577350 0.577350 0.577350 0.702649 0.686096
17.180851 -1.194510 2.992176 -0.707067 0.707147 0.000000 0.395153 0.906530
17.180851 -1.194510 2.060637 -0.707067 0.707147 -0.000000 0.395153 0.862955
17.180851 -1.194510 0.197556 -0.577350 0.577352 -0.577349 0.395153 0.775807
17.180851 -1.733067 0.197556 -0.577351 -0.577349 -0.577351 0.420345 0.775807
17.180851 -1.733067 3.923716 -0.577351 -0.577349 0.577351 0.420345 0.950104
17.614565 0.011128 2.769865 -0.577350 0.577350 -0.577350 0.736323 0.882397
17.614565 0.831188 2.769865 -0.577350 -0.577350 -0.577350 0.697963 0.882397
17.614565 0.831188 2.060636 -0.707107 -0.707107 0.000000 0.697963 0.849222
17.614565 0.011128 2.060636 -0.707107 0.707107 -0.000000 0.736323 0.849222
17.614565 -1.056297 2.060636 -0.707107 0.707107 0.000000 0.791937 0.848438
17.614565 -0.255611 2.060636 -0.707107 -0.707107 0.000000 0.754483 0.848438
17.614565 -0.255611 1.368163 -0.577350 -0.577350 0.577350 0.754483 0.816047
17.614565 -1.056297 1.368163 -0.577350 0.577350 0.577350 0.791937 0.816047
17.614565 0.017944 3.399420 -0.577350 0.577350 -0.577350 0.928659 0.816047
17.614565 0.824371 3.399420 -0.577350 -0.577350 -0.577350 0.928659 0.853769
17.614565 0.824371 3.050702 -0.577350 -0.577350 0.577350 0.912347 0.853769
17.614565 0.017944 3.050702 -0.577350 0.577350 0.577350 0.912347 0.816047
17.614565 -1.056297 2.753110 -0.577348 0.577350 -0.577353 0.791937 0.880830
17.614565 -0.255611 2.753110 -0.577348 -0.577350 -0.577353 0.754483 0.880830
17.614565 -1.041343 3.391713 -0.577350 0.577350 -0.577350 0.938710 0.857760
17.614565 -0.270564 3.391713 -0.577350 -0.577350 -0.577350 0.938710 0.893815
17.614565 -0.270564 3.058409 -0.577350 -0.577350 0.577350 0.923119 0.893815
17.614565 -1.041343 3.058409 -0.577350 0.577350 0.577350 0.923119 0.857760
17.513489 1.498268 3.923716 -0.904534 0.301511 0.301511 0.442618 0.775807
17.513489 1.498268 0.197556 -0.577350 0.577350 0.577350 0.442618 0.950104
17.180851 1.498268 0.197556 -0.577350 0.577351 -0.577350 0.427059 0.950104
17.180851 1.498268 3.923716 -0.577350 0.577351 0.577350 0.427059 0.775807
17.180851 0.959713 0.197556 -0.577351 -0.577350 -0.577351 0.349262 0.253843
17.180851 1.498268 0.197556 -0.577350 0.577351 -0.577350 0.349262 0.279035
17.513489 0.959713 0.197556 -0.521020 -0.606293 0.600789 0.473833 0.928317
17.419397 0.959713 1.129096 -0.665164 -0.746223 -0.026599 0.478235 0.884743
17.513489 0.959713 2.060636 -0.609837 -0.792527 0.000000 0.473833 0.841168
17.180851 0.959713 2.060636 -0.707069 -0.707145 0.000000 0.489393 0.841168
17.180851 0.959713 0.197556 -0.577351 -0.577350 -0.577351 0.489393 0.928317
17.419397 0.959713 2.992176 -0.595026 -0.802103 0.050737 0.478235 0.797594
17.180851 0.959713 2.992176 -0.707107 -0.707106 0.000000 0.489393 0.797594
17.513489 0.959713 3.457946 -0.514501 -0.627614 -0.584286 0.473833 0.775807
17.180851 0.959713 3.457946 -0.904522 -0.301528 -0.301530 0.489393 0.775807
17.513489 0.959713 3.923716 -0.707107 0.000000 0.707107 0.651156 0.901766
17.513489 1.498268 3.923716 -0.904534 0.301511 0.301511 0.651156 0.926958
17.180851 1.498268 3.923716 -0.577350 0.577351 0.577350 0.635597 0.926958
17.180851 0.959713 3.923716 -0.707107 0.000001 0.707107 0.635597 0.901766
17.419397 -0.117398 3.457946 -0.595983 0.012841 -0.802894 0.663385 0.826190
17.513489 -1.194510 3.457946 -0.529347 0.618229 -0.581020 0.658984 0.775807
17.180851 -1.194510 3.457946 -0.904521 0.301531 -0.301529 0.674543 0.775807
17.180851 -0.117398 3.457946 -0.707107 0.000000 -0.707107 0.674543 0.826190
17.513489 -1.194510 3.923716 -0.707107 0.000000 0.707107 0.651156 0.800999
17.513489 -0.117398 3.923716 -0.707107 0.000000 0.707107 0.651156 0.851382
17.180851 -0.117398 3.923716 -0.707107 0.000000 0.707107 0.635597 0.851382
17.180851 -1.194510 3.923716 -0.707107 0.000001 0.707107 0.635597 0.800999
17.513489 -1.194510 3.457946 -0.529347 0.618229 -0.581020 0.512780 0.775807
17.419397 -1.194510 2.992176 -0.603244 0.796231 0.045961 0.508379 0.797594
17.180851 -1.194510 2.992176 -0.707067 0.707147 0.000000 0.497221 0.797594
17.180851 -1.194510 3.457946 -0.904521 0.301531 -0.301529 0.497221 0.775807
17.513489 -1.194510 2.060636 -0.619744 0.784804 -0.000000 0.512780 0.841168
17.180851 -1.194510 2.060637 -0.707067 0.707147 -0.000000 0.497221 0.841168
17.419397 -1.194510 1.129096 -0.671446 0.740695 -0.023029 0.508379 0.884743
17.513489 -1.194510 0.197556 -0.531083 0.601584 0.596697 0.512780 0.928317
17.180851 -1.194510 0.197556 -0.577350 0.577352 -0.577349 0.497221 0.928317
17.180851 -1.733067 0.197556 -0.577351 -0.577349 -0.577351 0.349262 0.127884
17.180851 -1.194510 0.197556 -0.577350 0.577352 -0.577349 0.349262 0.153076
17.513489 -1.733067 0.197556 -0.577350 -0.577350 0.577350 0.450446 0.950104
17.513489 -1.733067 3.923716 -0.904534 -0.301511 0.301511 0.450446 0.775807
17.180851 -1.733067 3.923716 -0.577351 -0.577349 0.577351 0.466005 0.775807
17.180851 -1.733067 0.197556 -0.577351 -0.577349 -0.577351 0.466005 0.950104
17.513489 -1.733067 3.923716 -0.904534 -0.301511 0.301511 0.651156 0.775807
17.180851 -1.733067 3.923716 -0.577351 -0.577349 0.577351 0.635597 0.775807
17.513489 0.959713 3.457946 -0.514501 -0.627614 -0.584286 0.658984 0.876574
17.180851 0.959713 3.457946 -0.904522 -0.301528 -0.301530 0.674543 0.876574
17.614565 0.831188 1.351407 -0.577351 -0.577350 0.577349 0.697963 0.816047
17.614565 0.011127 1.351407 -0.577351 0.577350 0.577349 0.736323 0.816047
17.614565 -1.044480 0.999343 -0.577350 0.577350 -0.577350 0.998008 0.857491
17.614565 -0.267428 0.999343 -0.577350 -0.577350 -0.577350 0.998008 0.893839
17.614565 -0.267428 0.327309 -0.577350 -0.577350 0.577351 0.966573 0.893839
17.614565 -1.044480 0.327309 -0.577350 0.577350 0.577350 0.966573 0.857491
17.419397 -0.117398 2.992176 -0.998601 0.015237 0.050635 0.570993 0.906530
17.419397 0.959713 2.992176 -0.595026 -0.802103 0.050737 0.520609 0.906530
17.513489 0.831188 2.769865 -0.781856 -0.424037 -0.457049 0.526621 0.896131
17.513489 0.011128 2.769865 -0.712358 0.554483 -0.430227 0.564981 0.896131
17.513489 0.959713 2.060636 -0.609837 -0.792527 0.000000 0.520609 0.862955
17.513489 0.831188 2.060636 -0.590448 -0.807076 0.000000 0.526621 0.862955
17.419397 -0.117398 2.060636 -0.999854 0.017114 0.000000 0.682371 0.819381
17.419397 -0.117398 2.992176 -0.998601 0.015237 0.050635 0.682371 0.775807
17.513489 0.011128 2.769865 -0.712358 0.554483 -0.430227 0.686773 0.786205
17.513489 0.011128 2.060636 -0.452379 0.891826 -0.000000 0.686773 0.819381
17.419397 0.959713 1.129096 -0.665164 -0.746223 -0.026599 0.520609 0.819381
17.513489 0.831188 1.351407 -0.781857 -0.424036 0.457049 0.526621 0.829780
17.419397 -0.117398 1.129096 -0.999415 0.011823 -0.032092 0.570993 0.819381
17.513489 0.011127 1.351407 -0.712359 0.554482 0.430227 0.564981 0.829780
17.419397 -0.117398 1.129096 -0.999415 0.011823 -0.032092 0.682371 0.862955
17.513489 0.011127 1.351407 -0.712359 0.554482 0.430227 0.686773 0.852556
17.513489 -0.255611 1.368163 -0.726790 -0.542421 0.421373 0.686773 0.851773
17.513489 -0.255611 2.060636 -0.467575 -0.883953 0.000000 0.686773 0.819381
17.419397 -0.117398 1.129096 -0.999415 0.011823 -0.032092 0.579077 0.819381
17.419397 -1.194510 1.129096 -0.671446 0.740695 -0.023029 0.629461 0.819381
17.513489 -1.056297 1.368163 -0.791591 0.414238 0.449211 0.622996 0.830564
17.513489 -0.255611 1.368163 -0.726790 -0.542421 0.421373 0.585543 0.830564
17.513489 -1.194510 2.060636 -0.619744 0.784804 -0.000000 0.629461 0.862955
17.513489 -1.056297 2.060636 -0.600048 0.799964 -0.000000 0.622996 0.862955
17.419397 -1.194510 2.992176 -0.603244 0.796231 0.045961 0.629461 0.906530
17.419397 -0.117398 2.992176 -0.998601 0.015237 0.050635 0.579077 0.906530
17.513489 -0.255611 2.753109 -0.726789 -0.542423 -0.421373 0.585543 0.895347
17.513489 -1.056297 2.753109 -0.791590 0.414240 -0.449211 0.622996 0.895347
17.513489 -0.255611 2.753109 -0.726789 -0.542423 -0.421373 0.686773 0.786989
17.419397 -0.117398 3.457946 -0.595983 0.012841 -0.802894 0.570993 0.928317
17.513489 0.959713 3.457946 -0.514501 -0.627614 -0.584286 0.520609 0.928317
17.513489 0.824371 3.399420 -0.730873 -0.386855 -0.562288 0.526940 0.925579
17.513489 0.017944 3.399420 -0.642323 0.508674 -0.573299 0.564662 0.925579
17.513489 0.824371 3.050702 -0.571227 -0.405452 0.713658 0.526940 0.909267
17.513489 0.017944 3.050702 -0.535396 0.497180 0.682761 0.564662 0.909267
17.419397 -0.117398 2.992176 -0.998601 0.015237 0.050635 0.864401 0.879559
17.419397 -0.117398 3.457946 -0.595983 0.012841 -0.802894 0.864401 0.857772
17.513489 0.017944 3.399420 -0.642323 0.508674 -0.573299 0.868802 0.860510
17.513489 0.017944 3.050702 -0.535396 0.497180 0.682761 0.868802 0.876821
17.513489 -1.194510 3.457946 -0.529347 0.618229 -0.581020 0.629461 0.928317
17.419397 -0.117398 3.457946 -0.595983 0.012841 -0.802894 0.579077 0.928317
17.513489 -0.270564 3.391713 -0.673166 -0.491367 -0.552636 0.586242 0.925219
17.513489 -1.041343 3.391713 -0.754852 0.374048 -0.538782 0.622297 0.925219
17.513489 -0.270564 3.058409 -0.569718 -0.477335 0.669009 0.868802 0.876461
17.513489 -0.270564 3.391713 -0.673166 -0.491367 -0.552636 0.868802 0.860870
17.513489 -1.041343 3.058409 -0.597491 0.390181 0.700545 0.622297 0.909628
17.513489 -0.270564 3.058409 -0.569718 -0.477335 0.669009 0.586242 0.909628
17.513489 -0.267428 0.999343 -0.682226 -0.499100 -0.534291 0.586095 0.813312
17.513489 -1.044480 0.999343 -0.724700 0.405899 -0.556828 0.622443 0.813312
17.419397 -0.117398 1.129096 -0.999415 0.011823 -0.032092 0.811002 0.816047
17.419397 -0.117398 0.197556 -0.651895 0.009822 0.758245 0.811002 0.859621
17.513489 -0.267428 0.327309 -0.737851 -0.519856 0.430495 0.815404 0.853552
17.513489 -0.267428 0.999343 -0.682226 -0.499100 -0.534291 0.815404 0.822116
17.419397 -0.117398 0.197556 -0.651895 0.009822 0.758245 0.579077 0.775807
17.513489 -1.194510 0.197556 -0.531083 0.601584 0.596697 0.629461 0.775807
17.513489 -1.044480 0.327309 -0.819366 0.392987 0.417374 0.622443 0.781876
17.513489 -0.267428 0.327309 -0.737851 -0.519856 0.430495 0.586095 0.781876
17.513489 0.824493 1.012151 -0.705068 -0.418198 -0.572704 0.526934 0.813911
17.513489 0.017822 1.012151 -0.656286 0.515446 -0.551003 0.564667 0.813911
17.513489 0.959713 0.197556 -0.521020 -0.606293 0.600789 0.520609 0.775807
17.513489 0.824493 0.314502 -0.806776 -0.404395 0.430786 0.526934 0.781277
17.419397 -0.117398 0.197556 -0.651895 0.009822 0.758245 0.570993 0.775807
17.513489 0.017822 0.314502 -0.718629 0.535074 0.444148 0.564667 0.781277
17.513489 0.017822 1.012151 -0.656286 0.515446 -0.551003 0.815404 0.821517
17.513489 0.017822 0.314502 -0.718629 0.535074 0.444148 0.815404 0.854151
17.513489 0.017822 1.012151 -0.656286 0.515446 -0.551003 0.893689 0.816047
17.513489 0.824493 1.012151 -0.705068 -0.418198 -0.572704 0.893689 0.853780
17.614565 0.824493 1.012151 -0.577350 -0.577350 -0.577350 0.888960 0.853780
17.614565 0.017822 1.012151 -0.577350 0.577350 -0.577350 0.888960 0.816047
17.513489 0.824493 1.012151 -0.705068 -0.418198 -0.572704 0.895257 0.857772
17.513489 0.824493 0.314502 -0.806776 -0.404395 0.430786 0.895257 0.890405
17.614565 0.824493 0.314502 -0.577350 -0.577350 0.577350 0.890529 0.890405
17.614565 0.824493 1.012151 -0.577350 -0.577350 -0.577350 0.890529 0.857772
17.513489 0.824493 0.314502 -0.806776 -0.404395 0.430786 0.900654 0.853780
17.513489 0.017822 0.314502 -0.718629 0.535074 0.444148 0.900654 0.816047
17.614565 0.017822 0.314502 -0.577350 0.577350 0.577350 0.905382 0.816047
17.614565 0.824493 0.314502 -0.577350 -0.577350 0.577350 0.905382 0.853780
17.614565 0.017822 1.012151 -0.577350 0.577350 -0.577350 0.820132 0.821517
17.614565 0.017822 0.314502 -0.577350 0.577350 0.577350 0.820132 0.854151
17.513489 0.011128 2.769865 -0.712358 0.554483 -0.430227 0.831322 0.816047
17.513489 0.831188 2.769865 -0.781856 -0.424037 -0.457049 0.831322 0.854406
17.614565 0.831188 2.769865 -0.577350 -0.577350 -0.577350 0.826594 0.854406
17.614565 0.011128 2.769865 -0.577350 0.577350 -0.577350 0.826594 0.816047
17.513489 0.831188 2.769865 -0.781856 -0.424037 -0.457049 0.747517 0.816047
17.513489 0.831188 2.060636 -0.590448 -0.807076 0.000000 0.747517 0.849222
17.614565 0.831188 2.060636 -0.707107 -0.707107 0.000000 0.742789 0.849222
17.614565 0.831188 2.769865 -0.577350 -0.577350 -0.577350 0.742789 0.816047
17.614565 0.011128 2.769865 -0.577350 0.577350 -0.577350 0.691501 0.786205
17.614565 0.011128 2.060636 -0.707107 0.707107 -0.000000 0.691501 0.819381
17.513489 0.831188 1.351407 -0.781857 -0.424036 0.457049 0.747517 0.882397
17.614565 0.831188 1.351407 -0.577351 -0.577350 0.577349 0.742789 0.882397
17.513489 0.831188 1.351407 -0.781857 -0.424036 0.457049 0.838288 0.854406
17.513489 0.011127 1.351407 -0.712359 0.554482 0.430227 0.838288 0.816047
17.614565 0.011127 1.351407 -0.577351 0.577350 0.577349 0.843016 0.816047
17.614565 0.831188 1.351407 -0.577351 -0.577350 0.577349 0.843016 0.854406
17.614565 0.011127 1.351407 -0.577351 0.577350 0.577349 0.691501 0.852556
17.614565 -0.255611 1.368163 -0.577350 -0.577350 0.577350 0.691501 0.851773
17.614565 -0.255611 2.060636 -0.707107 -0.707107 0.000000 0.691501 0.819381
17.513489 -0.255611 1.368163 -0.726790 -0.542421 0.421373 0.959123 0.853500
17.513489 -1.056297 1.368163 -0.791591 0.414238 0.449211 0.959123 0.816047
17.614565 -1.056297 1.368163 -0.577350 0.577350 0.577350 0.963851 0.816047
17.614565 -0.255611 1.368163 -0.577350 -0.577350 0.577350 0.963851 0.853500
17.513489 -1.056297 1.368163 -0.791591 0.414238 0.449211 0.799309 0.880830
17.513489 -1.056297 2.060636 -0.600048 0.799964 -0.000000 0.799309 0.848439
17.614565 -1.056297 2.060636 -0.707107 0.707107 0.000000 0.804037 0.848439
17.614565 -1.056297 1.368163 -0.577350 0.577350 0.577350 0.804037 0.880830
17.513489 -1.056297 2.753109 -0.791590 0.414240 -0.449211 0.975545 0.816047
17.513489 -0.255611 2.753109 -0.726789 -0.542423 -0.421373 0.975545 0.853500
17.614565 -0.255611 2.753110 -0.577348 -0.577350 -0.577353 0.970816 0.853500
17.614565 -1.056297 2.753110 -0.577348 0.577350 -0.577353 0.970816 0.816047
17.614565 -0.255611 2.753110 -0.577348 -0.577350 -0.577353 0.691501 0.786989
17.513489 -1.056297 2.753109 -0.791590 0.414240 -0.449211 0.799309 0.816047
17.614565 -1.056297 2.753110 -0.577348 0.577350 -0.577353 0.804037 0.816047
17.513489 0.017944 3.399420 -0.642323 0.508674 -0.573299 0.940463 0.816047
17.513489 0.824371 3.399420 -0.730873 -0.386855 -0.562288 0.940463 0.853769
17.614565 0.824371 3.399420 -0.577350 -0.577350 -0.577350 0.935735 0.853769
17.614565 0.017944 3.399420 -0.577350 0.577350 -0.577350 0.935735 0.816047
17.513489 0.824371 3.399420 -0.730873 -0.386855 -0.562288 0.858266 0.857772
17.513489 0.824371 3.050702 -0.571227 -0.405452 0.713658 0.858266 0.874084
17.614565 0.824371 3.050702 -0.577350 -0.577350 0.577350 0.853538 0.874084
17.614565 0.824371 3.399420 -0.577350 -0.577350 -0.577350 0.853538 0.857772
17.513489 0.824371 3.050702 -0.571227 -0.405452 0.713658 0.947429 0.853769
17.513489 0.017944 3.050702 -0.535396 0.497180 0.682761 0.947429 0.816047
17.614565 0.017944 3.050702 -0.577350 0.577350 0.577350 0.952157 0.816047
17.614565 0.824371 3.050702 -0.577350 -0.577350 0.577350 0.952157 0.853769
17.614565 0.017944 3.399420 -0.577350 0.577350 -0.577350 0.873530 0.860510
17.614565 0.017944 3.050702 -0.577350 0.577350 0.577350 0.873530 0.876821
17.513489 -1.041343 3.391713 -0.754852 0.374048 -0.538782 0.916984 0.857760
17.513489 -0.270564 3.391713 -0.673166 -0.491367 -0.552636 0.916984 0.893815
17.614565 -0.270564 3.391713 -0.577350 -0.577350 -0.577350 0.912255 0.893815
17.614565 -1.041343 3.391713 -0.577350 0.577350 -0.577350 0.912255 0.857760
17.614565 -0.270564 3.058409 -0.577350 -0.577350 0.577350 0.873530 0.876461
17.614565 -0.270564 3.391713 -0.577350 -0.577350 -0.577350 0.873530 0.860870
17.513489 -0.270564 3.058409 -0.569718 -0.477335 0.669009 0.901392 0.893826
17.513489 -1.041343 3.058409 -0.597491 0.390181 0.700545 0.901392 0.857772
17.614565 -1.041343 3.058409 -0.577350 0.577350 0.577350 0.906120 0.857772
17.614565 -0.270564 3.058409 -0.577350 -0.577350 0.577350 0.906120 0.893826
17.513489 -1.041343 3.058409 -0.597491 0.390181 0.700545 0.842674 0.873989
17.513489 -1.041343 3.391713 -0.754852 0.374048 -0.538782 0.842674 0.858398
17.614565 -1.041343 3.391713 -0.577350 0.577350 -0.577350 0.847402 0.858398
17.614565 -1.041343 3.058409 -0.577350 0.577350 0.577350 0.847402 0.873989
17.513489 -1.044480 0.999343 -0.724700 0.405899 -0.556828 0.960437 0.857760
17.513489 -0.267428 0.999343 -0.682226 -0.499100 -0.534291 0.960437 0.894108
17.614565 -0.267428 0.999343 -0.577350 -0.577350 -0.577350 0.955709 0.894108
17.614565 -1.044480 0.999343 -0.577350 0.577350 -0.577350 0.955709 0.857760
17.614565 -0.267428 0.327309 -0.577350 -0.577350 0.577351 0.820132 0.853552
17.614565 -0.267428 0.999343 -0.577350 -0.577350 -0.577350 0.820132 0.822116
17.513489 -0.267428 0.327309 -0.737851 -0.519856 0.430495 0.944846 0.894108
17.513489 -1.044480 0.327309 -0.819366 0.392987 0.417374 0.944846 0.857760
17.614565 -1.044480 0.327309 -0.577350 0.577350 0.577350 0.949574 0.857760
17.614565 -0.267428 0.327309 -0.577350 -0.577350 0.577351 0.949574 0.894108
17.513489 -1.044480 0.327309 -0.819366 0.392987 0.417374 0.879665 0.889208
17.513489 -1.044480 0.999343 -0.724700 0.405899 -0.556828 0.879665 0.857772
17.614565 -1.044480 0.999343 -0.577350 0.577350 -0.577350 0.884394 0.857772
17.614565 -1.044480 0.327309 -0.577350 0.577350 0.577350 0.884394 0.889208
11.211224 -4.425843 3.031367 0.000000 1.000000 -0.000000 0.262464 0.703785
11.211224 -4.425843 1.614462 0.000000 1.000000 0.000000 0.328741 0.703785
10.726434 -4.425843 1.614462 0.000000 1.000000 0.000000 0.328741 0.726462
10.726434 -4.425843 3.031367 0.000000 1.000000 -0.000000 0.262464 0.726462
11.696014 -4.425843 5.641685 -0.301511 0.904534 0.301511 0.140361 0.681108
11.211224 -4.425843 5.641685 0.000000 1.000000 0.000000 0.140361 0.703785
10.726434 -4.425843 5.641685 0.000000 1.000000 0.000000 0.140361 0.726462
10.726434 -4.425843 6.511791 0.000000 0.707146 -0.707068 0.099661 0.726462
11.696014 -4.425843 6.511791 0.000000 0.707107 -0.707107 0.099661 0.681108
15.413285 -4.262532 3.080923 -0.293072 0.956090 -0.000000 0.175874 0.895591
15.413285 -4.262533 1.781690 -0.227009 0.949155 0.218109 0.175874 0.956364
13.635172 -4.262533 1.781690 0.000000 0.958598 0.284762 0.092699 0.956364
13.635172 -4.262532 3.080923 0.000000 1.000000 -0.000000 0.092699 0.895591
15.574331 -4.425843 5.641685 0.301511 0.904534 0.301511 0.140361 0.499693
13.635172 -4.425843 5.641685 0.000000 0.707107 0.707107 0.140361 0.590400
13.635172 -4.425843 6.511791 0.000000 0.707146 -0.707068 0.099661 0.590400
15.574331 -4.425843 6.511791 0.000000 0.707162 -0.707052 0.099661 0.499693
11.857059 -4.262533 1.781690 0.227011 0.949155 0.218109 0.009525 0.956364
11.857059 -4.262532 3.080923 0.293074 0.956090 -0.000000 0.009525 0.895591
17.513489 -4.425843 0.197556 -0.577350 0.577350 0.577350 0.395020 0.408986
16.543907 -4.425843 0.197556 0.000000 0.707162 0.707052 0.395020 0.454340
13.635172 -4.425843 1.614462 0.000000 0.707107 -0.707107 0.328741 0.590400
15.574331 -4.425843 1.614462 0.301511 0.904534 -0.301511 0.328741 0.499693
15.574331 -4.425843 0.197556 0.000000 0.707162 0.707052 0.395020 0.499693
13.635172 -4.425843 0.197556 0.000000 0.707146 0.707068 0.395020 0.590400
11.696014 -4.425843 1.614462 -0.301511 0.904534 -0.301511 0.328741 0.681108
11.696014 -4.425843 0.197556 0.000000 0.707107 0.707107 0.395020 0.681108
10.726434 -4.425843 0.197556 0.000000 0.707146 0.707068 0.395020 0.726462
16.543907 -4.425843 4.771579 0.000000 1.000000 -0.000000 0.181062 0.454340
17.513489 -4.425843 4.771579 0.000000 1.000000 -0.000000 0.181062 0.408986
13.635172 -4.262532 4.676612 0.000000 1.000000 0.000000 0.092699 0.820950
15.413285 -4.262532 4.676612 -0.293072 0.956090 0.000000 0.175874 0.820950
11.857059 -4.262532 4.676612 0.293074 0.956090 0.000000 0.009525 0.820950
10.726434 -4.425843 4.771579 0.000000 1.000000 -0.000000 0.181062 0.726462
11.211224 -4.425843 4.771579 0.000000 1.000000 -0.000000 0.181062 0.703785
16.059118 -4.425843 1.614462 0.000000 1.000000 0.000000 0.328741 0.477016
16.059118 -4.425843 3.031367 0.000000 1.000000 -0.000000 0.262464 0.477016
15.574331 -4.425843 3.031367 0.707107 0.707107 -0.000000 0.262464 0.499693
15.574331 -4.425843 4.771579 0.707107 0.707107 -0.000000 0.181062 0.499693
16.059118 -4.425843 4.771579 0.000000 1.000000 -0.000000 0.181062 0.477016
16.059118 -4.425843 5.641685 0.000000 1.000000 0.000000 0.140361 0.477016
9.756858 -4.425843 1.614462 0.000000 1.000000 0.000000 0.328741 0.771815
9.756858 -4.425843 0.197556 0.000000 0.707107 0.707107 0.395020 0.771815
9.756858 -4.425843 3.031367 0.000000 1.000000 -0.000000 0.262464 0.771815
9.756858 -4.425843 4.771579 0.000000 1.000000 -0.000000 0.181062 0.771815
9.756858 -4.425843 6.511791 0.000000 0.707107 -0.707107 0.099661 0.771815
9.756858 -4.425843 5.641685 0.000000 1.000000 0.000000 0.140361 0.771815
13.635172 -4.262532 5.474456 0.000000 0.958598 -0.284763 0.092699 0.783629
15.413285 -4.262532 5.474456 -0.227009 0.949155 -0.218109 0.175874 0.783629
11.857059 -4.262532 5.474456 0.227011 0.949155 -0.218109 0.009525 0.783629
11.696014 -4.425843 4.771579 -0.707107 0.707107 -0.000000 0.181062 0.681108
11.696014 -4.425843 3.031367 -0.707107 0.707107 -0.000000 0.262464 0.681108
15.574331 -4.425843 3.031367 0.707107 0.707107 -0.000000 0.191236 0.842084
15.574331 -4.425843 1.614462 0.301511 0.904534 -0.301511 0.191236 0.775807
15.574331 -4.153563 1.614462 0.513655 0.688901 -0.511444 0.203972 0.775807
15.574331 -4.153562 3.031367 0.468824 0.883291 -0.000000 0.203972 0.842084
15.574331 -4.425843 1.614462 0.301511 0.904534 -0.301511 0.242951 0.775807
13.635172 -4.425843 1.614462 0.000000 0.707107 -0.707107 0.242951 0.866514
13.635172 -4.153563 1.614462 0.000000 0.879189 -0.476474 0.230214 0.866514
15.574331 -4.153563 1.614462 0.513655 0.688901 -0.511444 0.230214 0.775807
11.696014 -4.425843 1.614462 -0.301511 0.904534 -0.301511 0.242951 0.957222
11.696014 -4.153563 1.614462 -0.513655 0.688901 -0.511443 0.230214 0.957222
11.696014 -4.425843 1.614462 -0.301511 0.904534 -0.301511 0.223461 0.775807
11.696014 -4.425843 3.031367 -0.707107 0.707107 -0.000000 0.223461 0.842084
11.696014 -4.153562 3.031367 -0.468823 0.883292 -0.000000 0.210725 0.842084
11.696014 -4.153563 1.614462 -0.513655 0.688901 -0.511443 0.210725 0.775807
15.574331 -4.425843 4.771579 0.707107 0.707107 -0.000000 0.191236 0.923486
15.574331 -4.153562 4.771579 0.468824 0.883291 0.000000 0.203972 0.923486
11.696014 -4.425843 4.771579 -0.707107 0.707107 -0.000000 0.223461 0.923486
11.696014 -4.153562 4.771579 -0.468823 0.883292 0.000000 0.210725 0.923486
13.635172 -4.425843 5.641685 0.000000 0.707107 0.707107 0.249704 0.866514
15.574331 -4.425843 5.641685 0.301511 0.904534 0.301511 0.249704 0.775807
15.574331 -4.153562 5.641685 0.513655 0.688901 0.511443 0.262440 0.775807
13.635172 -4.153562 5.641685 0.000000 0.879189 0.476474 0.262440 0.866514
15.574331 -4.425843 5.641685 0.301511 0.904534 0.301511 0.191236 0.964187
15.574331 -4.153562 5.641685 0.513655 0.688901 0.511443 0.203972 0.964187
11.696014 -4.425843 5.641685 -0.301511 0.904534 0.301511 0.223461 0.964187
11.696014 -4.153562 5.641685 -0.513655 0.688901 0.511443 0.210725 0.964187
11.696014 -4.425843 5.641685 -0.301511 0.904534 0.301511 0.249704 0.957222
11.696014 -4.153562 5.641685 -0.513655 0.688901 0.511443 0.262440 0.957222
15.574331 -4.153562 3.031367 0.468824 0.883291 -0.000000 0.183407 0.897909
15.574331 -4.153563 1.614462 0.513655 0.688901 -0.511444 0.183407 0.964187
13.635172 -4.153563 1.614462 0.000000 0.879189 -0.476474 0.092699 0.964187
11.696014 -4.153563 1.614462 -0.513655 0.688901 -0.511443 0.001992 0.964187
11.696014 -4.153562 3.031367 -0.468823 0.883292 -0.000000 0.001992 0.897909
15.574331 -4.153562 4.771579 0.468824 0.883291 0.000000 0.183407 0.816508
11.696014 -4.153562 4.771579 -0.468823 0.883292 0.000000 0.001992 0.816508
13.635172 -4.153562 5.641685 0.000000 0.879189 0.476474 0.092699 0.775807
15.574331 -4.153562 5.641685 0.513655 0.688901 0.511443 0.183407 0.775807
11.696014 -4.153562 5.641685 -0.513655 0.688901 0.511443 0.001992 0.775807
3 0 1 2
3 2 3 0
3 4 5 6
3 4 6 7
3 4 7 8
3 4 8 9
3 10 4 9
3 11 10 9
3 12 11 9
11 12 9 13 14 15 16 17 18 19 20 21
3 22 23 0
3 0 3 22
8 23 24 25 26 27 28 29 1
3 1 0 23
10 29 30 31 32 33 34 35 36 37 2
3 2 1 29
3 37 22 3
3 3 2 37
4 38 39 40 41
7 41 40 42 43 44 45 46
4 47 48 49 50
4 49 51 52 50
4 53 54 55 56
4 57 58 59 60
4 61 62 63 64
6 64 65 66 67 68 61
4 64 63 69 70
4 71 65 64 70
4 72 73 74 75
6 67 66 51 49 76 77
7 78 79 80 81 82 83 84
4 85 86 87 88
4 49 48 89 76
7 88 87 90 91 92 93 94
4 95 96 97 98
4 99 100 101 102
4 103 104 105 106
4 107 108 100 99
4 84 83 86 85
4 109 110 111 112
4 113 114 115 116
4 35 34 117 118
5 119 120 121 122 123
4 121 124 125 122
4 124 126 127 125
4 128 129 130 131
4 132 133 134 135
4 136 137 138 139
4 140 141 142 143
4 141 144 145 142
5 144 146 147 148 145
4 32 31 149 150
4 151 152 153 154
4 155 136 139 156
4 157 132 135 158
4 137 128 131 138
4 98 97 159 160
4 161 162 163 164
4 165 166 167 168
4 166 169 170 167
4 171 172 173 174
4 169 175 176 170
4 175 177 178 176
4 179 171 174 180
4 171 179 181 182
4 183 184 185 186
4 184 187 188 185
4 189 190 191 192
4 172 171 182 193
4 187 189 192 188
4 194 195 196 197
4 195 166 198 196
4 166 165 199 198
4 200 201 202 203
4 204 205 206 207
4 201 200 208 209
4 190 189 210 211
4 189 204 207 210
4 184 183 212 213
4 214 215 216 217
4 218 219 220 221
4 219 184 213 220
4 177 175 222 223
4 175 224 225 222
4 224 226 227 225
4 215 214 228 229
4 230 231 232 233
4 234 235 236 237
4 238 239 240 241
4 229 228 242 243
4 244 245 246 247
4 248 249 250 251
4 174 173 252 253
4 249 254 255 250
4 256 257 258 259
4 180 174 253 260
4 182 181 261 262
4 263 264 265 266
4 267 268 269 270
4 271 272 273 274
4 193 182 262 275
4 268 276 277 269
4 278 279 280 281
4 282 283 284 285
4 286 287 288 289
4 203 202 290 291
4 292 293 294 295
4 209 208 296 297
4 298 299 300 301
4 302 303 304 305
4 306 307 308 309
4 217 216 310 311
4 312 313 314 315
4 316 317 318 319
4 320 321 322 323
5 324 325 326 327 328
4 329 330 331 332
4 333 334 335 336
4 334 324 328 335
4 332 331 337 338
4 339 340 58 57
4 341 342 343 344
4 345 341 344 346
5 347 322 321 345 346
4 59 348 349 60
4 332 350 351 329
4 338 352 350 332
4 323 353 354 320
5 58 340 343 342 355
4 356 355 342 357
4 357 358 359 356
5 55 54 360 333 336
4 361 322 347 362
4 323 322 361 363
4 364 353 323 363
4 365 327 326 366
4 349 348 54 53
4 333 360 359 358
4 351 350 367 368
4 350 352 369 367
4 353 326 325 354
4 366 326 353 364
4 354 325 324 370
4 320 354 370 371
4 371 345 321 320
4 359 360 54 348
4 356 359 348 59
4 59 58 355 356
4 372 373 374 375
4 376 377 378 379
4 377 380 381 378
4 382 383 384 385
4 386 372 375 387
4 383 388 389 384
4 390 391 392 393
4 394 386 387 395
4 388 396 397 389
4 398 390 393 399
4 400 401 330 329
4 401 402 331 330
4 402 403 337 331
4 403 404 338 337
4 405 400 329 351
4 404 406 352 338
4 407 408 368 367
4 408 405 351 368
4 406 409 369 352
4 409 407 367 369
