ply
format ascii 1.0
comment Created by Blender 3.4.1 - www.blender.org
element vertex 419
property float x
property float y
property float z
property float nx
property float ny
property float nz
property float s
property float t
element face 460
property list uchar uint vertex_indices
end_header
1.535895 3.981637 0.444084 0.306651 0.304202 0.901902 0.873311 0.714031
1.535895 2.976174 1.345263 0.707107 -0.707107 0.000000 0.719025 0.852315
1.535895 2.976174 0.444084 0.306651 -0.304202 0.901902 0.719025 0.714031
0.423136 3.981637 0.444084 -0.000000 0.710113 0.704088 0.189671 0.722357
0.967307 3.981637 1.345263 0.000000 1.000000 0.000000 0.106169 0.860641
0.967307 3.981637 0.444084 0.000000 0.710113 0.704088 0.106169 0.722357
1.535895 3.981637 1.345263 0.707107 0.707107 0.000000 0.873311 0.852315
1.535895 2.976174 1.761701 0.341726 -0.341552 -0.875538 0.719025 0.916216
0.423136 3.981637 1.761701 0.000000 1.000000 0.000000 0.189671 0.924542
0.423136 3.981637 1.345263 0.000000 1.000000 0.000000 0.189671 0.860641
0.967307 3.981637 0.167751 -0.000000 -0.114466 -0.993427 0.267675 0.457169
1.202360 2.798430 0.167751 -0.131379 0.080242 -0.988079 0.303778 0.638907
0.967307 2.798430 0.167751 0.000000 0.114465 -0.993427 0.267675 0.638907
1.202360 3.981637 0.444084 0.000000 0.710113 0.704088 0.070101 0.722357
0.967307 3.981637 1.761701 0.000000 1.000000 0.000000 0.106169 0.924542
1.202360 3.981637 1.345263 0.000000 1.000000 0.000000 0.070101 0.860641
0.946129 2.752979 2.092789 -0.010167 -0.009528 0.999903 0.254524 0.302746
1.226664 4.165137 2.092789 0.000000 0.707107 0.707107 0.037815 0.345892
0.946129 4.165137 2.092789 0.000000 0.707107 0.707107 0.037797 0.302837
0.967307 2.731089 1.345263 -0.730761 -0.679085 -0.069511 0.567341 0.500838
1.202360 2.644934 1.761701 0.285281 -0.327796 -0.900647 0.603409 0.566093
0.967307 2.644934 1.761701 -0.292832 -0.323706 -0.899702 0.567341 0.566093
0.967307 2.731089 0.444084 -0.768488 -0.285605 0.572587 0.567341 0.362555
1.202360 2.731089 1.345263 0.730761 -0.679085 -0.069511 0.603409 0.500838
1.253710 4.056046 0.443450 0.000000 0.710113 0.704088 0.062221 0.710939
0.989094 4.056046 0.150373 -0.000000 0.621520 -0.783399 0.102826 0.665967
0.989094 4.056046 0.443450 0.000000 0.710113 0.704088 0.102826 0.710939
1.587246 2.901765 0.443450 0.715777 -0.027390 0.697792 0.707608 0.706151
1.587246 4.056046 0.150373 0.577350 0.577350 -0.577350 0.884729 0.661179
1.587246 4.056046 0.443450 0.578168 0.578453 0.575425 0.884729 0.706151
0.966930 2.656680 0.443450 -0.577805 -0.579569 0.574667 0.567283 0.351136
1.253710 2.656680 0.150373 0.577350 -0.577350 -0.577350 0.611289 0.306164
1.253710 2.656680 0.443450 0.578168 -0.578453 0.575425 0.611289 0.351136
1.202360 2.731089 0.444084 0.306651 -0.304201 0.901902 0.603409 0.362555
0.966930 2.724021 0.150373 -0.323858 -0.174077 -0.929953 0.267617 0.650336
1.202360 3.981637 0.167751 -0.131379 -0.080242 -0.988079 0.303778 0.457169
1.253710 2.724021 0.150373 0.253128 -0.264195 -0.930660 0.311666 0.650336
0.989094 4.056046 0.150373 -0.000000 0.621520 -0.783399 0.271022 0.445740
1.253710 4.056046 0.150373 -0.047183 0.682348 -0.729503 0.311666 0.445740
0.423136 4.056046 0.150373 0.000000 0.621520 -0.783399 0.184092 0.445740
1.252274 3.981637 0.444084 0.000000 0.710113 0.704088 0.062442 0.722357
1.202360 3.981637 1.761701 0.000000 1.000000 0.000000 0.070101 0.924542
1.252274 3.981637 1.345263 0.000000 1.000000 0.000000 0.062442 0.860641
1.286237 2.965117 2.092789 0.013635 -0.015691 0.999784 0.221988 0.354958
1.286237 4.165137 2.092789 0.000000 0.707107 0.707107 0.037818 0.355034
1.202360 2.798430 1.345263 0.990646 -0.136457 0.000000 0.681429 0.497017
1.252274 2.976174 1.761701 0.496062 -0.654554 -0.570510 0.710285 0.562197
1.202360 2.798430 1.761701 0.754189 -0.101415 -0.648779 0.681531 0.562197
1.202360 2.798430 0.444084 0.731438 -0.101179 0.674360 0.680846 0.355358
1.252274 2.976174 1.345263 0.604003 -0.796982 0.000000 0.710388 0.497017
1.253710 2.724021 0.443450 0.291391 -0.300243 0.908265 0.667669 0.337537
1.252274 2.976174 0.444084 0.486599 -0.642240 0.592241 0.710971 0.355358
1.253710 2.724021 0.150373 0.253128 -0.264195 -0.930660 0.653713 0.289909
1.573155 2.707889 0.443450 0.540445 -0.611321 0.578105 0.702015 0.313894
1.303624 4.056046 0.150373 -0.000000 0.707107 -0.707107 0.319332 0.445740
1.573155 2.707889 0.150373 0.540223 -0.611124 -0.578521 0.360731 0.652814
1.303624 4.056046 0.150373 -0.000000 0.707107 -0.707107 0.054562 0.665967
1.253710 4.056046 0.150373 -0.047183 0.682348 -0.729503 0.062221 0.665967
1.303624 4.056046 0.443450 0.000000 0.710113 0.704088 0.054562 0.710939
1.535895 3.981637 0.444084 0.306651 0.304202 0.901902 0.018920 0.722357
1.252274 3.981637 1.761701 0.000000 1.000000 0.000000 0.062442 0.924542
1.535895 3.981637 1.345263 0.707107 0.707107 0.000000 0.018920 0.860641
1.624739 4.165137 2.092789 -0.201610 0.550801 0.809921 0.037840 0.406985
1.252274 2.976174 1.345263 0.604003 -0.796982 0.000000 0.791949 0.534170
1.535895 2.976174 1.761701 0.341726 -0.341552 -0.875538 0.835470 0.596011
1.252274 2.976174 1.761701 0.496062 -0.654554 -0.570510 0.791949 0.596011
1.252274 2.976174 0.444084 0.486599 -0.642240 0.592241 0.791949 0.395887
1.535895 2.976174 1.345263 0.707107 -0.707107 0.000000 0.835470 0.534170
1.587246 2.901765 0.443450 0.715777 -0.027390 0.697792 0.843350 0.382408
1.535895 2.976174 0.444084 0.306651 -0.304202 0.901902 0.835470 0.395887
1.573155 2.707889 0.150373 0.540223 -0.611124 -0.578521 0.886041 0.349398
1.573155 2.707889 0.443450 0.540445 -0.611321 0.578105 0.841187 0.352658
1.587246 2.901765 0.150373 0.714617 -0.025934 -0.699034 0.362896 0.623035
1.587246 4.056046 0.150373 0.577350 0.577350 -0.577350 0.011041 0.665967
1.587246 4.056046 0.443450 0.578168 0.578453 0.575425 0.011041 0.710939
0.966930 2.730486 0.443450 -0.964470 0.001304 0.264189 0.896619 0.701371
0.967307 2.798430 0.274372 -0.762939 -0.145458 0.629894 0.886193 0.675435
0.967119 2.726609 0.238833 -0.377556 -0.779118 0.500426 0.897214 0.669981
0.967307 2.798430 1.345263 -0.904534 -0.301511 -0.301511 0.719352 0.347242
0.967307 3.384080 0.444084 -0.707107 -0.707107 0.000000 0.857634 0.257376
0.967307 2.798430 0.444084 -0.999999 0.001379 0.000883 0.857634 0.347242
0.423136 3.384080 1.345263 0.000000 -0.707107 -0.707107 0.719346 0.173875
0.967307 2.798430 1.345263 -0.904534 -0.301511 -0.301511 0.629481 0.257379
0.423136 2.798430 1.345263 0.000000 -0.707107 -0.707107 0.629478 0.173876
0.967307 2.798430 0.274372 -0.762939 -0.145458 0.629894 0.883675 0.347242
0.423136 3.384080 0.273872 -0.000000 -0.706933 0.707280 0.883753 0.173873
0.423136 3.384080 0.444084 0.000000 -1.000000 0.000000 0.857633 0.173873
0.967307 2.798430 0.444084 -0.999999 0.001379 0.000883 0.886193 0.701476
0.967307 2.731089 1.345263 -0.730761 -0.679085 -0.069511 0.896526 0.839760
0.967307 2.798430 1.345263 -0.904534 -0.301511 -0.301511 0.886193 0.839760
0.967307 2.731089 0.444084 -0.768488 -0.285605 0.572587 0.896526 0.701476
0.966930 2.724021 0.150373 -0.323858 -0.174077 -0.929953 0.897611 0.656392
0.966930 2.656680 0.443450 -0.577805 -0.579569 0.574667 0.907944 0.701363
1.253710 2.724021 0.150373 0.253128 -0.264195 -0.930660 0.611289 0.295831
0.966930 2.656680 0.150373 -0.577350 -0.577350 -0.577350 0.567283 0.306164
0.966930 2.724021 0.150373 -0.323858 -0.174077 -0.929953 0.567283 0.295831
1.253710 2.656680 0.150373 0.577350 -0.577350 -0.577350 0.647398 0.298312
1.202360 2.731089 0.444084 0.306651 -0.304201 0.901902 0.662459 0.352730
1.253710 2.656680 0.443450 0.578168 -0.578453 0.575425 0.654834 0.332553
1.202360 2.798430 1.345263 0.990646 -0.136457 0.000000 0.681466 0.497017
1.202360 2.731089 0.444084 0.306651 -0.304201 0.901902 0.670909 0.355663
1.202360 2.798430 0.444084 0.731438 -0.101179 0.674360 0.681472 0.355663
1.202360 2.731089 1.345263 0.730761 -0.679085 -0.069511 0.670914 0.497017
1.226664 2.569782 2.092789 0.026493 -0.027800 0.999262 0.282657 0.345790
1.226664 2.752979 2.092789 0.029441 -0.002829 0.999563 0.254542 0.345802
0.967307 2.798430 1.761701 -0.587834 -0.587834 -0.555791 0.886193 0.903662
0.967307 2.644934 1.761701 -0.292832 -0.323706 -0.899702 0.909746 0.903662
0.423136 2.798430 0.274160 -0.000000 -0.229469 0.973316 0.973624 0.173873
0.967119 2.726609 0.238833 -0.377556 -0.779118 0.500426 0.985917 0.257348
0.967307 2.798430 0.274372 -0.762939 -0.145458 0.629894 0.973621 0.257378
0.423136 2.727710 0.238755 0.000000 -0.839815 0.542873 0.985762 0.173872
0.966930 2.724021 0.150373 -0.323858 -0.174077 -0.929953 0.999498 0.257293
0.886563 2.564189 1.770651 -0.525782 -0.523594 -0.670374 0.922137 0.916127
0.840747 2.698871 1.981070 -0.600354 -0.672896 -0.432187 0.901470 0.949172
0.886563 2.717685 1.770651 -0.297067 -0.285657 -0.911127 0.898583 0.916127
0.886563 2.564189 1.770651 -0.525782 -0.523594 -0.670374 0.554951 0.578559
1.310183 2.517158 1.981070 0.570309 -0.540184 -0.618828 0.619954 0.611643
0.840747 2.517158 1.981070 -0.631908 -0.464798 -0.620206 0.547921 0.611643
1.283104 2.564189 1.770651 0.508891 -0.556734 -0.656565 0.650026 0.584100
1.345857 2.776378 1.981070 0.917552 -0.092773 -0.386642 0.688111 0.612199
1.310183 2.517158 1.981070 0.570309 -0.540184 -0.618828 0.647931 0.617716
1.320704 2.885876 1.770651 0.346347 -0.329909 -0.878182 0.699728 0.577113
1.313239 2.783157 1.770651 0.683953 -0.069414 -0.726216 0.683967 0.579439
1.616640 2.895430 1.770651 0.459559 -0.626855 -0.629173 0.847860 0.608477
1.354694 2.897979 1.981070 0.647375 -0.696545 -0.309404 0.808757 0.642081
1.320704 2.885876 1.770651 0.346347 -0.329909 -0.878182 0.802449 0.609935
1.647512 3.972690 1.770651 0.438490 0.475684 -0.762529 0.871939 0.933397
1.705030 2.909289 1.981070 0.480407 -0.686361 -0.546002 0.708150 0.963733
1.616640 2.895430 1.770651 0.459559 -0.626855 -0.629173 0.706635 0.928680
1.535895 3.981637 1.990020 -0.222754 0.811793 -0.539789 0.018920 0.959577
1.535895 3.981637 1.761701 0.348816 0.892302 -0.286574 0.018920 0.924542
1.252274 3.981637 1.990020 0.000000 0.834906 -0.550393 0.062442 0.959577
1.202360 3.981637 1.990020 0.000000 0.834906 -0.550393 0.070101 0.959577
0.423136 3.981637 1.990020 0.000000 0.834906 -0.550393 0.189671 0.959577
1.283104 2.564189 1.770651 0.508891 -0.556734 -0.656565 0.615799 0.578559
1.202360 2.644934 1.761701 0.285281 -0.327796 -0.900647 0.658690 0.568605
1.320704 2.885876 1.770651 0.346347 -0.329909 -0.878182 0.699611 0.576261
1.535895 3.981637 1.990020 -0.222754 0.811793 -0.539789 0.859092 0.469675
1.647512 3.972690 1.770651 0.438490 0.475684 -0.762529 0.855901 0.509389
1.535895 3.981637 1.761701 0.348816 0.892302 -0.286574 0.840644 0.501683
1.826601 2.885289 2.082107 0.586018 -0.579116 0.566752 0.234274 0.437884
1.870221 4.407345 2.082107 0.338138 0.771889 0.538378 0.000683 0.444674
1.624739 2.965117 2.092789 0.017905 -0.053522 0.998406 0.222009 0.406909
1.408474 2.871791 2.082107 0.332804 -0.376498 0.864576 0.236319 0.373712
1.397928 2.726660 2.082107 0.731951 -0.075293 0.677185 0.258592 0.372084
0.946129 2.569782 2.092789 -0.026534 -0.026176 0.999305 0.282639 0.302736
1.355351 2.417281 2.082107 0.539877 -0.619459 0.569915 0.306070 0.365530
0.795079 2.634155 2.082107 -0.317057 -0.336633 0.886653 0.272786 0.279557
0.795079 2.417281 2.082107 -0.584026 -0.584078 0.563708 0.306035 0.279544
0.423136 2.752979 2.092789 -0.000000 -0.042158 0.999111 0.254491 0.222484
1.286237 4.165137 2.068714 0.000000 0.834906 -0.550393 0.057230 0.990214
1.624739 4.165137 2.068714 -0.438322 0.774112 -0.456755 0.005288 0.990214
1.226664 4.165137 2.068714 0.000000 0.834906 -0.550393 0.066371 0.990214
0.946129 4.165137 2.068714 0.000000 0.834906 -0.550393 0.109419 0.990214
0.967307 3.981637 1.990020 0.000000 0.834906 -0.550393 0.106169 0.959577
0.840747 2.517158 1.981070 -0.631908 -0.464798 -0.620206 0.929354 0.949172
0.795079 2.634155 2.058032 -0.651083 -0.601563 -0.462832 0.911401 0.962905
1.355351 2.417281 2.058032 0.589990 -0.705551 -0.392568 0.626885 0.630992
0.795079 2.417281 2.058032 -0.634637 -0.668794 -0.387235 0.540913 0.630992
1.310183 2.517158 1.981070 0.570309 -0.540184 -0.618828 0.647776 0.616559
1.397928 2.726660 2.058032 0.944207 -0.102828 -0.312890 0.683212 0.627787
1.355351 2.417281 2.058032 0.589990 -0.705551 -0.392568 0.635086 0.632989
1.345857 2.776378 1.981070 0.917552 -0.092773 -0.386642 0.688098 0.612201
1.408474 2.871791 2.058032 0.598403 -0.725345 -0.340277 0.705493 0.624499
1.705030 2.909289 1.981070 0.480407 -0.686361 -0.546002 0.862516 0.640355
1.408474 2.871791 2.058032 0.598403 -0.725345 -0.340277 0.817275 0.654376
1.741578 4.184577 1.981070 0.008205 0.399043 -0.916896 0.903841 0.969318
1.826601 2.885289 2.058032 0.676687 -0.619230 -0.398307 0.704372 0.985795
1.741578 4.184577 1.981070 0.008205 0.399043 -0.916896 0.904931 0.491311
1.624739 4.165137 2.068714 -0.438322 0.774112 -0.456755 0.895916 0.464937
1.870221 4.407345 2.058032 0.354881 0.806853 -0.472280 0.937926 0.484329
1.624739 4.165137 2.092789 -0.201610 0.550801 0.809921 0.005288 0.993909
1.286237 4.165137 2.092789 0.000000 0.707107 0.707107 0.057230 0.993909
1.226664 4.165137 2.092789 0.000000 0.707107 0.707107 0.066371 0.993909
0.423136 4.165137 2.092789 0.000000 0.707107 0.707107 0.189671 0.993909
0.423136 4.165137 2.068714 0.000000 0.834906 -0.550393 0.189671 0.990214
0.795079 2.417281 2.058032 -0.634637 -0.668794 -0.387235 0.944679 0.962905
0.795079 2.634155 2.082107 -0.317057 -0.336633 0.886653 0.911401 0.966599
0.795079 2.417281 2.082107 -0.584026 -0.584078 0.563708 0.540913 0.634686
1.355351 2.417281 2.082107 0.539877 -0.619459 0.569915 0.635846 0.638550
1.355351 2.417281 2.058032 0.589990 -0.705551 -0.392568 0.635301 0.634857
1.397928 2.726660 2.082107 0.731951 -0.075293 0.677185 0.683758 0.631480
1.826601 2.885289 2.058032 0.676687 -0.619230 -0.398307 0.881436 0.652316
1.408474 2.871791 2.082107 0.332804 -0.376498 0.864576 0.817393 0.658069
1.870221 4.407345 2.058032 0.354881 0.806853 -0.472280 0.937929 0.992461
1.826601 2.885289 2.082107 0.586018 -0.579116 0.566752 0.704267 0.989488
1.870221 4.407345 2.082107 0.338138 0.771889 0.538378 0.942887 0.482638
0.423136 3.981637 0.167751 0.000000 -0.114466 -0.993427 0.184092 0.457169
0.967307 3.384080 1.345263 -0.577350 -0.577350 -0.577350 0.719350 0.257377
0.967307 2.798430 1.761701 -0.587834 -0.587834 -0.555791 0.565579 0.257380
0.423136 4.056046 0.443450 -0.000000 0.710113 0.704088 0.189671 0.710939
0.423136 2.798430 0.167751 0.000000 0.114465 -0.993427 0.184092 0.638907
0.967307 3.384080 0.273872 -0.577341 -0.577164 0.577547 0.883753 0.257376
0.423136 2.705642 1.770651 0.000000 -0.716797 -0.697282 0.551273 0.173878
0.840747 2.698871 1.981070 -0.600354 -0.672896 -0.432187 0.520539 0.238728
0.423136 2.688098 1.981070 -0.000000 -0.925547 -0.378634 0.518882 0.174647
0.423136 2.798430 1.761701 0.000000 -0.740803 -0.671722 0.565577 0.173878
0.886563 2.717685 1.770651 -0.297067 -0.285657 -0.911127 0.553113 0.244990
0.795079 2.634155 2.058032 -0.651083 -0.601563 -0.462832 0.505044 0.231865
0.423136 2.624623 2.058032 -0.000000 -0.941757 -0.336294 0.503574 0.174792
0.795079 2.634155 2.082107 -0.317057 -0.336633 0.886653 0.501352 0.231960
-0.689623 2.976174 1.345263 -0.707107 -0.707107 0.000000 0.683794 0.852315
-0.689623 3.981637 0.444084 -0.306651 0.304202 0.901902 0.529508 0.714031
-0.689623 2.976174 0.444084 -0.306651 -0.304202 0.901901 0.683794 0.714031
-0.121035 3.981637 1.345263 0.000000 1.000000 0.000000 0.273173 0.860641
-0.121035 3.981637 0.444084 -0.000000 0.710113 0.704088 0.273173 0.722357
-0.689623 2.976174 1.761701 -0.341726 -0.341552 -0.875538 0.683794 0.916217
-0.689623 3.981637 1.345263 -0.707107 0.707107 0.000000 0.529508 0.852315
-0.121035 3.981637 1.761701 0.000000 1.000000 0.000000 0.273173 0.924542
-0.356088 2.798430 0.167751 0.131379 0.080242 -0.988079 0.064405 0.638907
-0.121035 3.981637 0.167751 0.000000 -0.114466 -0.993427 0.100508 0.457169
-0.121035 2.798430 0.167751 0.000000 0.114465 -0.993427 0.100508 0.638907
-0.356088 3.981637 0.444084 0.000000 0.710113 0.704088 0.309241 0.722357
-0.356088 3.981637 1.345263 0.000000 1.000000 0.000000 0.309241 0.860641
-0.380392 4.165137 2.092789 0.000000 0.707107 0.707107 0.037713 0.099253
-0.099857 2.752979 2.092789 0.010168 -0.009528 0.999903 0.254458 0.142223
-0.099857 4.165137 2.092789 0.000000 0.707107 0.707107 0.037731 0.142307
-0.356088 2.644934 1.761701 -0.285281 -0.327796 -0.900647 0.463146 0.566822
-0.121035 2.731089 1.345263 0.730761 -0.679085 -0.069511 0.499215 0.501567
-0.121035 2.644934 1.761701 0.292832 -0.323706 -0.899702 0.499215 0.566822
-0.356088 2.731089 1.345263 -0.730761 -0.679085 -0.069511 0.463146 0.501567
-0.121035 2.731089 0.444084 0.768488 -0.285605 0.572587 0.499215 0.363284
-0.142822 4.056046 0.150373 0.000000 0.621520 -0.783399 0.276516 0.665967
-0.407438 4.056046 0.443450 0.000000 0.710113 0.704088 0.317120 0.710939
-0.142822 4.056046 0.443450 0.000000 0.710113 0.704088 0.276516 0.710939
-0.740974 4.056046 0.150373 -0.577350 0.577350 -0.577350 0.518090 0.661179
-0.740974 2.901765 0.443450 -0.715777 -0.027390 0.697791 0.695212 0.706151
-0.740974 4.056046 0.443450 -0.578167 0.578453 0.575426 0.518090 0.706151
-0.407438 2.656680 0.150373 -0.577350 -0.577350 -0.577350 0.455267 0.306894
-0.120658 2.656680 0.443450 0.577805 -0.579569 0.574667 0.499273 0.351866
-0.407438 2.656680 0.443450 -0.578168 -0.578453 0.575425 0.455267 0.351866
-0.356088 2.731089 0.444084 -0.306651 -0.304201 0.901902 0.463146 0.363284
-0.120658 2.724021 0.150373 0.323858 -0.174077 -0.929953 0.100566 0.650336
-0.407438 2.724021 0.150373 -0.253128 -0.264195 -0.930660 0.056517 0.650336
-0.356088 3.981637 0.167751 0.131379 -0.080242 -0.988079 0.064405 0.457169
-0.142822 4.056046 0.150373 0.000000 0.621520 -0.783399 0.097162 0.445740
-0.406002 3.981637 0.444084 0.000000 0.710113 0.704088 0.316900 0.722357
-0.406002 3.981637 1.345263 0.000000 1.000000 0.000000 0.316900 0.860641
-0.356088 3.981637 1.761701 0.000000 1.000000 0.000000 0.309241 0.924542
-0.439965 2.965117 2.092789 -0.013635 -0.015691 0.999784 0.221879 0.090034
-0.380392 2.752979 2.092789 -0.029442 -0.002829 0.999563 0.254440 0.099163
-0.406002 2.976174 1.761701 -0.496062 -0.654554 -0.570510 0.719929 0.564889
-0.356088 2.798430 1.345263 -0.990646 -0.136457 0.000000 0.748237 0.500969
-0.356088 2.798430 1.761701 -0.754189 -0.101415 -0.648779 0.748260 0.564879
-0.406002 2.976174 1.345263 -0.604003 -0.796982 0.000000 0.719905 0.500979
-0.356088 2.798430 0.444084 -0.731438 -0.101179 0.674360 0.748190 0.362668
-0.406002 2.976174 0.444084 -0.486599 -0.642239 0.592241 0.990829 0.358501
-0.407438 2.724021 0.443450 -0.291391 -0.300243 0.908265 0.986763 0.320949
-0.356088 2.798430 0.444084 -0.731438 -0.101179 0.674360 0.995053 0.332074
-0.726884 2.707889 0.443450 -0.540445 -0.611322 0.578105 0.937686 0.320257
-0.407438 2.724021 0.150373 -0.253128 -0.264195 -0.930660 0.894519 0.269579
-0.407438 2.724021 0.443450 -0.291391 -0.300243 0.908265 0.939463 0.271207
-0.457352 4.056046 0.150373 0.000000 0.707107 -0.707107 0.048851 0.445740
-0.407438 4.056046 0.150373 0.047183 0.682348 -0.729503 0.056517 0.445740
-0.457352 4.056046 0.150373 0.000000 0.707107 -0.707107 0.324779 0.665967
-0.407438 4.056046 0.150373 0.047183 0.682348 -0.729503 0.317120 0.665967
-0.689623 3.981637 0.444084 -0.306651 0.304202 0.901902 0.360421 0.722357
-0.689623 3.981637 1.345263 -0.707107 0.707107 0.000000 0.360421 0.860641
-0.406002 3.981637 1.761701 0.000000 1.000000 0.000000 0.316900 0.924542
-0.778467 4.165137 2.092789 0.201609 0.550801 0.809921 0.037688 0.038159
-0.439965 4.165137 2.092789 0.000000 0.707107 0.707107 0.037709 0.090110
-0.689623 2.976174 1.761701 -0.341726 -0.341552 -0.875538 0.952242 0.563260
-0.406002 2.976174 1.345263 -0.604003 -0.796982 0.000000 0.995855 0.496705
-0.406002 2.976174 1.761701 -0.496062 -0.654554 -0.570510 0.995738 0.561679
-0.689623 2.976174 1.345263 -0.707107 -0.707107 0.000000 0.952359 0.498287
-0.740974 2.901765 0.443450 -0.715777 -0.027390 0.697791 0.936606 0.350066
-0.726884 2.707889 0.150373 -0.540223 -0.611124 -0.578521 0.892742 0.318629
-0.740974 2.901765 0.150373 -0.714618 -0.025934 -0.699034 0.005288 0.623035
-0.726884 2.707889 0.150373 -0.540223 -0.611124 -0.578521 0.007452 0.652813
-0.740974 4.056046 0.150373 -0.577350 0.577350 -0.577350 0.368300 0.665967
-0.457352 4.056046 0.443450 0.000000 0.710113 0.704088 0.324779 0.710939
-0.120658 2.730486 0.443450 0.964470 0.001304 0.264189 0.979211 0.678652
-0.121035 2.798430 0.274372 0.762939 -0.145458 0.629894 0.989636 0.652708
-0.121035 2.798430 0.444084 0.999999 0.001379 0.000883 0.989636 0.678750
-0.121035 3.384080 0.444084 0.707107 -0.707107 0.000000 0.857633 0.090368
-0.121035 2.798430 1.345263 0.904534 -0.301511 -0.301511 0.719347 0.000500
-0.121035 2.798430 0.444084 0.999999 0.001379 0.000883 0.857633 0.000500
-0.121035 2.798430 1.345263 0.904534 -0.301511 -0.301511 0.629477 0.090373
-0.121035 3.384080 1.345263 0.577350 -0.577350 -0.577350 0.719346 0.090369
-0.121035 2.798430 0.274372 0.762939 -0.145458 0.629894 0.883675 0.000500
-0.121035 3.384080 0.273872 0.577341 -0.577164 0.577547 0.883752 0.090368
-0.121035 2.731089 1.345263 0.730761 -0.679085 -0.069511 0.979303 0.817034
-0.121035 2.798430 1.345263 0.904534 -0.301511 -0.301511 0.989636 0.817034
-0.121035 2.731089 0.444084 0.768488 -0.285605 0.572587 0.979303 0.678750
-0.120658 2.656680 0.443450 0.577805 -0.579569 0.574667 0.967885 0.678652
-0.120658 2.724021 0.150373 0.323858 -0.174077 -0.929953 0.978219 0.633680
-0.120658 2.656680 0.150373 0.577350 -0.577350 -0.577350 0.499273 0.306894
-0.407438 2.724021 0.150373 -0.253128 -0.264195 -0.930660 0.455267 0.296560
-0.120658 2.724021 0.150373 0.323858 -0.174077 -0.929953 0.499273 0.296560
-0.407438 2.724021 0.443450 -0.291391 -0.300243 0.908265 0.444934 0.351866
-0.407438 2.724021 0.150373 -0.253128 -0.264195 -0.930660 0.444934 0.306894
-0.356088 2.731089 0.444084 -0.306651 -0.304201 0.901902 0.443849 0.359746
-0.356088 2.798430 0.444084 -0.731438 -0.101179 0.674360 0.433516 0.359746
-0.356088 2.731089 0.444084 -0.306651 -0.304201 0.901902 0.758525 0.362664
-0.356088 2.731089 1.345263 -0.730761 -0.679085 -0.069511 0.758572 0.500966
-0.380392 2.569782 2.092789 -0.026493 -0.027801 0.999262 0.282556 0.099152
-0.121035 2.798430 1.761701 0.587834 -0.587834 -0.555791 0.989636 0.880935
-0.120847 2.726609 0.238833 0.377557 -0.779118 0.500426 0.985920 0.090396
-0.121035 2.798430 0.274372 0.762939 -0.145458 0.629894 0.973623 0.090365
-0.120658 2.724021 0.150373 0.323858 -0.174077 -0.929953 0.999500 0.090452
0.005525 2.698871 1.981070 0.600354 -0.672896 -0.432187 0.974359 0.926446
-0.040291 2.564189 1.770651 0.525782 -0.523594 -0.670374 0.953693 0.893401
-0.040291 2.717685 1.770651 0.297067 -0.285657 -0.911127 0.977246 0.893401
-0.040291 2.564189 1.770651 0.525782 -0.523594 -0.670374 0.511605 0.579288
-0.463911 2.517158 1.981070 -0.570310 -0.540184 -0.618828 0.446601 0.612373
-0.436833 2.564189 1.770651 -0.508890 -0.556734 -0.656565 0.450757 0.579288
-0.436833 2.564189 1.770651 -0.508890 -0.556734 -0.656565 0.779531 0.586554
-0.499585 2.776378 1.981070 -0.917552 -0.092773 -0.386642 0.741832 0.614388
-0.466967 2.783157 1.770651 -0.683954 -0.069414 -0.726216 0.745924 0.581951
-0.474432 2.885876 1.770651 -0.346347 -0.329909 -0.878182 0.730318 0.579653
-0.508422 2.897979 1.981070 -0.647375 -0.696545 -0.309404 0.980614 0.608333
-0.770368 2.895430 1.770651 -0.459559 -0.626855 -0.629173 0.940312 0.576169
-0.474432 2.885876 1.770651 -0.346347 -0.329909 -0.878182 0.985750 0.575976
-0.858759 2.909289 1.981070 -0.480407 -0.686361 -0.546002 0.694669 0.963733
-0.801240 3.972690 1.770651 -0.438490 0.475684 -0.762529 0.530881 0.933398
-0.770368 2.895430 1.770651 -0.459559 -0.626855 -0.629173 0.696184 0.928681
-0.689623 3.981637 1.990020 0.222754 0.811793 -0.539789 0.360421 0.959577
-0.689623 3.981637 1.761701 -0.348816 0.892302 -0.286574 0.360421 0.924542
-0.406002 3.981637 1.990020 0.000000 0.834906 -0.550393 0.316900 0.959577
-0.356088 3.981637 1.990020 0.000000 0.834906 -0.550393 0.309241 0.959577
-0.121035 3.981637 1.990020 0.000000 0.834906 -0.550393 0.273173 0.959577
-0.121035 2.644934 1.761701 0.292832 -0.323706 -0.899702 0.966083 0.880935
-0.356088 2.644934 1.761701 -0.285281 -0.327796 -0.900647 0.770947 0.571215
-0.474432 2.885876 1.770651 -0.346347 -0.329909 -0.878182 0.730434 0.578809
-0.689623 3.981637 1.761701 -0.348816 0.892302 -0.286574 0.529508 0.916217
-0.801240 3.972690 1.770651 -0.438490 0.475684 -0.762529 0.931706 0.534574
-0.689623 3.981637 1.990020 0.222754 0.811793 -0.539789 0.896615 0.515707
-0.689623 3.981637 1.761701 -0.348816 0.892302 -0.286574 0.933483 0.517549
-0.980330 2.885289 2.082107 -0.586018 -0.579116 0.566752 0.234096 0.007098
-0.778467 2.965117 2.092789 -0.017906 -0.053523 0.998406 0.221858 0.038083
-0.562202 2.871791 2.082107 -0.332804 -0.376499 0.864575 0.236194 0.071268
-0.551656 2.726660 2.082107 -0.731951 -0.075293 0.677184 0.258468 0.072878
-0.509079 2.417281 2.082107 -0.539877 -0.619459 0.569915 0.305952 0.079392
-0.099857 2.569782 2.092789 0.026534 -0.026177 0.999305 0.282573 0.142206
0.051193 2.634155 2.082107 0.317057 -0.336634 0.886652 0.272740 0.165397
-0.439965 4.165137 2.068714 0.000000 0.834906 -0.550393 0.322111 0.990214
-0.380392 4.165137 2.068714 0.000000 0.834906 -0.550393 0.312970 0.990214
-0.099857 4.165137 2.068714 0.000000 0.834906 -0.550393 0.269923 0.990214
0.051193 2.634155 2.058032 0.651083 -0.601563 -0.462832 0.964429 0.940178
0.005525 2.517158 1.981070 0.631908 -0.464798 -0.620206 0.946476 0.926446
0.005525 2.517158 1.981070 0.631908 -0.464798 -0.620206 0.518635 0.612373
-0.509079 2.417281 2.058032 -0.589990 -0.705551 -0.392568 0.439671 0.631721
-0.463911 2.517158 1.981070 -0.570310 -0.540184 -0.618828 0.781758 0.618690
-0.551656 2.726660 2.058032 -0.944207 -0.102828 -0.312890 0.746676 0.629819
-0.562202 2.871791 2.058032 -0.598403 -0.725345 -0.340277 0.724620 0.626572
-0.508422 2.897979 1.981070 -0.647375 -0.696545 -0.309404 0.723351 0.611668
-0.562202 2.871791 2.058032 -0.598403 -0.725345 -0.340277 0.972547 0.620931
-0.858759 2.909289 1.981070 -0.480407 -0.686361 -0.546002 0.926832 0.608803
-0.508422 2.897979 1.981070 -0.647375 -0.696545 -0.309404 0.980623 0.608575
-0.980330 2.885289 2.058032 -0.676687 -0.619231 -0.398307 0.698447 0.985796
-0.895306 4.184577 1.981070 -0.008204 0.399043 -0.916895 0.498979 0.969318
-0.895306 4.184577 1.981070 -0.008204 0.399043 -0.916895 0.889909 0.565931
-0.778467 4.165137 2.068714 0.438322 0.774112 -0.456755 0.872659 0.544036
-0.778467 4.165137 2.092789 0.201609 0.550801 0.809921 0.374054 0.993909
-0.778467 4.165137 2.068714 0.438322 0.774112 -0.456755 0.374054 0.990214
-0.439965 4.165137 2.092789 0.000000 0.707107 0.707107 0.322111 0.993909
-0.380392 4.165137 2.092789 0.000000 0.707107 0.707107 0.312970 0.993909
-0.099857 4.165137 2.092789 0.000000 0.707107 0.707107 0.269923 0.993909
0.051193 2.634155 2.082107 0.317057 -0.336634 0.886652 0.964429 0.943872
0.051193 2.417281 2.058032 0.634637 -0.668794 -0.387235 0.931150 0.940178
0.051193 2.417281 2.082107 0.584026 -0.584078 0.563708 0.525643 0.635415
0.051193 2.417281 2.058032 0.634637 -0.668794 -0.387235 0.525643 0.631721
-0.509079 2.417281 2.082107 -0.539877 -0.619459 0.569915 0.793554 0.640455
-0.509079 2.417281 2.058032 -0.589990 -0.705551 -0.392568 0.794092 0.636799
-0.551656 2.726660 2.082107 -0.731951 -0.075293 0.677184 0.746138 0.633474
-0.562202 2.871791 2.082107 -0.332804 -0.376499 0.864575 0.972562 0.624625
-0.980330 2.885289 2.058032 -0.676687 -0.619231 -0.398307 0.908350 0.621203
-0.980330 2.885289 2.082107 -0.586018 -0.579116 0.566752 0.698552 0.989489
-1.023949 4.407345 2.058032 -0.354881 0.806853 -0.472280 0.464890 0.992462
-1.023949 4.407345 2.082107 -0.338138 0.771889 0.538377 0.861983 0.593102
-1.023949 4.407345 2.058032 -0.354881 0.806853 -0.472280 0.866102 0.589852
0.423136 4.165137 2.092789 0.000000 0.707107 0.707107 0.037764 0.222572
-0.121035 2.798430 1.761701 0.587834 -0.587834 -0.555791 0.565577 0.090375
0.423136 4.056046 0.150373 0.000000 0.621520 -0.783399 0.189671 0.665967
0.423136 2.724021 0.150373 0.000000 -0.637721 -0.770267 0.184092 0.650336
0.005525 2.698871 1.981070 0.600354 -0.672896 -0.432187 0.517498 0.110559
-0.040291 2.717685 1.770651 0.297067 -0.285657 -0.911127 0.549739 0.102759
-0.040291 2.717685 1.770651 0.297067 -0.285657 -0.911127 0.553111 0.102766
0.051193 2.634155 2.058032 0.651083 -0.601563 -0.462832 0.503964 0.117700
0.005525 2.698871 1.981070 0.600354 -0.672896 -0.432187 0.519327 0.110545
0.051193 2.634155 2.082107 0.317057 -0.336634 0.886652 0.498403 0.117846
0.423136 2.624623 2.082107 -0.000000 -0.740830 0.671693 0.499882 0.174887
1.535895 3.981637 1.761701 0.348816 0.892302 -0.286574 0.873311 0.916216
1.587246 2.901765 0.150373 0.714617 -0.025934 -0.699034 0.707608 0.661179
1.573155 2.707889 0.150373 0.540223 -0.611124 -0.578521 0.695845 0.289761
1.587246 2.901765 0.150373 0.714617 -0.025934 -0.699034 0.888203 0.379148
1.587246 4.056046 0.150373 0.577350 0.577350 -0.577350 0.362896 0.445740
0.966930 2.656680 0.150373 -0.577350 -0.577350 -0.577350 0.907944 0.656392
1.202360 2.644934 1.761701 0.285281 -0.327796 -0.900647 0.657435 0.562197
0.423136 2.724021 0.150373 0.000000 -0.637721 -0.770267 0.999336 0.173872
1.354694 2.897979 1.981070 0.647375 -0.696545 -0.309404 0.706769 0.609446
0.423136 2.624623 2.082107 -0.000000 -0.740830 0.671693 0.274256 0.222478
0.946129 4.165137 2.092789 0.000000 0.707107 0.707107 0.109419 0.993909
0.795079 2.417281 2.082107 -0.584026 -0.584078 0.563708 0.944679 0.966599
1.355351 2.417281 2.082107 0.539877 -0.619459 0.569915 0.626885 0.634686
1.408474 2.871791 2.082107 0.332804 -0.376498 0.864576 0.706037 0.628193
1.826601 2.885289 2.082107 0.586018 -0.579116 0.566752 0.881554 0.656008
1.870221 4.407345 2.082107 0.338138 0.771889 0.538378 0.937824 0.996154
1.624739 4.165137 2.092789 -0.201610 0.550801 0.809921 0.897277 0.461711
-0.740974 2.901765 0.150373 -0.714618 -0.025934 -0.699034 0.695212 0.661179
-0.406002 2.976174 0.444084 -0.486599 -0.642239 0.592241 0.719857 0.362678
-0.689623 2.976174 0.444084 -0.306651 -0.304202 0.901901 0.947334 0.360082
-0.740974 2.901765 0.150373 -0.714618 -0.025934 -0.699034 0.891662 0.348438
-0.740974 4.056046 0.150373 -0.577350 0.577350 -0.577350 0.005288 0.445740
-0.740974 4.056046 0.443450 -0.578167 0.578453 0.575426 0.368300 0.710939
-0.120847 2.726609 0.238833 0.377557 -0.779118 0.500426 0.978616 0.647254
-0.120658 2.656680 0.150373 0.577350 -0.577350 -0.577350 0.967885 0.633680
-0.356088 2.644934 1.761701 -0.285281 -0.327796 -0.900647 0.771816 0.564871
-0.463911 2.517158 1.981070 -0.570310 -0.540184 -0.618828 0.781617 0.619838
-1.023949 4.407345 2.082107 -0.338138 0.771889 0.538377 0.000500 0.000500
0.051193 2.417281 2.082107 0.584026 -0.584078 0.563708 0.305988 0.165379
-0.509079 2.417281 2.058032 -0.589990 -0.705551 -0.392568 0.794328 0.634953
0.051193 2.417281 2.082107 0.584026 -0.584078 0.563708 0.931150 0.943872
-0.509079 2.417281 2.082107 -0.539877 -0.619459 0.569915 0.439671 0.635415
-0.562202 2.871791 2.082107 -0.332804 -0.376499 0.864575 0.724090 0.630229
-0.980330 2.885289 2.082107 -0.586018 -0.579116 0.566752 0.908366 0.624897
-1.023949 4.407345 2.082107 -0.338138 0.771889 0.538377 0.464996 0.996154
-0.778467 4.165137 2.092789 0.201609 0.550801 0.809921 0.869210 0.543424
0.051193 2.634155 2.058032 0.651083 -0.601563 -0.462832 0.502094 0.117750
3 0 1 2
3 3 4 5
3 6 7 1
3 8 4 9
3 10 11 12
3 4 13 5
3 14 15 4
3 16 17 18
3 19 20 21
3 22 23 19
3 24 25 26
3 27 28 29
3 30 31 32
3 13 26 5
3 0 27 29
3 33 30 32
3 11 34 12
3 35 36 11
3 35 37 38
3 10 39 37
3 15 40 13
3 41 42 15
3 17 43 44
3 45 46 47
3 48 49 45
3 50 51 48
3 52 53 50
3 36 54 55
3 24 56 57
3 24 40 58
3 42 59 40
3 60 61 42
3 43 62 44
3 63 64 65
3 66 67 63
3 66 68 69
3 70 68 71
3 54 72 55
3 58 73 56
3 58 59 74
3 75 76 77
3 78 79 80
3 81 82 83
3 79 84 80
3 85 79 86
3 87 88 89
3 75 90 87
3 91 92 75
3 93 94 95
3 50 96 52
3 50 97 98
3 99 100 101
3 47 102 99
3 16 103 104
3 105 88 106
3 107 108 109
3 110 111 108
3 112 113 114
3 115 116 117
3 118 119 120
3 121 119 122
3 123 124 125
3 126 127 128
3 60 129 130
3 41 131 60
3 14 132 41
3 133 14 8
3 106 114 105
3 21 134 115
3 135 122 118
3 47 136 122
3 64 125 65
3 7 126 128
3 137 138 139
3 62 140 141
3 142 143 140
3 104 143 43
3 103 144 104
3 145 146 103
3 145 147 148
3 149 147 16
3 129 150 151
3 131 152 150
3 132 153 152
3 133 153 154
3 155 156 113
3 117 157 158
3 159 160 161
3 162 163 160
3 164 165 124
3 166 167 127
3 168 169 170
3 150 171 151
3 152 172 150
3 153 173 152
3 174 153 175
3 176 177 156
3 157 178 158
3 160 179 180
3 163 181 160
3 182 183 165
3 184 185 167
3 169 186 170
3 12 187 10
3 18 149 16
3 188 86 79
3 189 83 82
3 25 190 26
3 5 190 3
3 34 191 12
3 192 107 109
3 193 194 195
3 196 197 193
3 195 198 199
3 200 199 198
3 201 202 203
3 204 3 205
3 206 207 201
3 208 9 204
3 209 210 211
3 212 204 205
3 213 208 204
3 214 215 216
3 217 218 219
3 220 221 218
3 222 223 224
3 225 226 227
3 228 229 230
3 224 212 205
3 227 203 202
3 231 229 221
3 232 209 211
3 233 234 209
3 234 235 210
3 210 39 187
3 236 213 212
3 237 238 213
3 214 239 240
3 241 242 243
3 244 245 242
3 246 247 248
3 249 250 251
3 233 252 253
3 254 223 255
3 223 236 212
3 256 237 236
3 257 258 237
3 259 239 260
3 261 262 263
3 264 246 262
3 246 265 249
3 265 266 249
3 267 252 268
3 269 270 254
3 270 256 236
3 271 272 273
3 274 275 276
3 81 277 278
3 279 274 276
3 85 274 280
3 281 273 282
3 283 271 273
3 284 285 271
3 286 287 288
3 228 289 290
3 289 291 292
3 293 242 245
3 294 243 242
3 295 215 240
3 296 281 282
3 297 107 298
3 299 110 297
3 300 301 302
3 303 304 305
3 306 307 308
3 307 309 308
3 310 311 312
3 313 314 315
3 316 258 317
3 318 238 258
3 319 208 238
3 133 208 320
3 302 321 296
3 219 305 217
3 322 308 243
3 243 323 241
3 312 261 263
3 206 314 324
3 325 326 327
3 259 328 329
3 329 330 239
3 330 240 239
3 331 295 240
3 332 333 295
3 333 334 215
3 334 149 215
3 316 335 318
3 318 336 319
3 319 337 320
3 337 133 320
3 338 339 300
3 340 341 304
3 342 343 307
3 307 344 345
3 346 347 348
3 349 350 313
3 351 352 326
3 353 335 354
3 355 336 335
3 356 337 336
3 174 337 357
3 358 359 338
3 360 341 361
3 362 343 363
3 364 344 343
3 365 366 346
3 367 368 349
3 369 352 370
3 211 187 191
3 216 149 371
3 278 86 81
3 372 83 196
3 222 190 373
3 190 205 3
3 232 191 374
3 280 107 85
3 193 375 376
3 196 377 372
3 195 378 379
3 380 199 381
3 0 6 1
3 3 9 4
3 6 382 7
3 8 14 4
3 10 35 11
3 4 15 13
3 14 41 15
3 16 104 17
3 19 23 20
3 22 33 23
3 24 57 25
3 27 383 28
3 30 94 31
3 13 24 26
3 0 2 27
3 33 22 30
3 11 36 34
3 35 38 36
3 35 10 37
3 10 187 39
3 15 42 40
3 41 60 42
3 17 104 43
3 45 49 46
3 48 51 49
3 50 53 51
3 52 384 53
3 36 38 54
3 24 58 56
3 24 13 40
3 42 61 59
3 60 130 61
3 43 142 62
3 63 67 64
3 66 69 67
3 66 71 68
3 70 385 68
3 54 386 72
3 58 74 73
3 58 40 59
3 75 87 76
3 78 188 79
3 81 188 82
3 79 192 84
3 85 192 79
3 87 90 88
3 75 92 90
3 91 387 92
3 93 31 94
3 50 98 96
3 50 48 97
3 99 102 100
3 47 388 102
3 16 145 103
3 105 89 88
3 107 110 108
3 110 389 111
3 112 155 113
3 115 134 116
3 118 122 119
3 121 390 119
3 123 164 124
3 126 166 127
3 60 131 129
3 41 132 131
3 14 154 132
3 133 154 14
3 106 112 114
3 21 20 134
3 135 47 122
3 47 46 136
3 64 123 125
3 7 382 126
3 137 168 138
3 62 142 140
3 142 43 143
3 104 144 143
3 103 146 144
3 145 148 146
3 145 16 147
3 149 391 147
3 129 131 150
3 131 132 152
3 132 154 153
3 133 175 153
3 155 176 156
3 117 116 157
3 159 162 160
3 162 390 163
3 164 182 165
3 166 184 167
3 168 137 169
3 150 172 171
3 152 173 172
3 153 392 173
3 174 392 153
3 176 393 177
3 157 394 178
3 160 181 179
3 163 395 181
3 182 396 183
3 184 397 185
3 169 398 186
3 12 191 187
3 18 371 149
3 188 81 86
3 189 196 83
3 25 373 190
3 5 26 190
3 34 374 191
3 192 85 107
3 193 197 194
3 196 189 197
3 195 194 198
3 200 381 199
3 201 207 202
3 204 9 3
3 206 324 207
3 208 8 9
3 209 234 210
3 212 213 204
3 213 238 208
3 214 240 215
3 217 220 218
3 220 231 221
3 222 255 223
3 225 399 226
3 228 286 229
3 224 223 212
3 227 226 203
3 231 230 229
3 232 233 209
3 233 253 234
3 234 253 235
3 210 235 39
3 236 237 213
3 237 258 238
3 214 260 239
3 241 244 242
3 244 400 245
3 246 249 247
3 249 266 250
3 233 268 252
3 254 270 223
3 223 270 236
3 256 257 237
3 257 317 258
3 259 329 239
3 261 264 262
3 264 401 246
3 246 401 265
3 265 402 266
3 267 403 252
3 269 404 270
3 270 404 256
3 271 405 272
3 274 278 275
3 81 83 277
3 279 280 274
3 85 86 274
3 281 283 273
3 283 284 271
3 284 406 285
3 286 228 287
3 228 230 289
3 289 230 291
3 293 294 242
3 294 407 243
3 295 333 215
3 296 321 281
3 297 110 107
3 299 389 110
3 300 339 301
3 303 340 304
3 306 408 307
3 307 345 309
3 310 347 311
3 313 350 314
3 316 318 258
3 318 319 238
3 319 320 208
3 133 8 208
3 302 301 321
3 219 303 305
3 322 306 308
3 243 308 323
3 312 311 261
3 206 315 314
3 325 351 326
3 259 409 328
3 329 328 330
3 330 331 240
3 331 332 295
3 332 410 333
3 333 410 334
3 334 391 149
3 316 354 335
3 318 335 336
3 319 336 337
3 337 175 133
3 338 359 339
3 340 361 341
3 342 411 343
3 307 343 344
3 346 366 347
3 349 368 350
3 351 370 352
3 353 355 335
3 355 356 336
3 356 357 337
3 174 175 337
3 358 412 359
3 360 413 341
3 362 364 343
3 364 414 344
3 365 415 366
3 367 416 368
3 369 417 352
3 211 210 187
3 216 215 149
3 278 274 86
3 372 277 83
3 222 224 190
3 190 224 205
3 232 211 191
3 280 298 107
3 193 195 375
3 196 193 377
3 195 199 378
3 380 418 199
