ply
format ascii 1.0
comment Created by Blender 3.4.1 - www.blender.org
element vertex 419
property float x
property float y
property float z
property float nx
property float ny
property float nz
property float s
property float t
element face 230
property list uchar uint vertex_indices
end_header
1.535895 2.976174 0.444084 0.307426 -0.301740 0.902464 0.719025 0.714031
1.535895 3.981637 0.444084 0.306651 0.304202 0.901902 0.873311 0.714031
1.535895 3.981637 1.345263 0.707107 0.707107 0.000000 0.873311 0.852315
1.535895 2.976174 1.345263 0.707107 -0.707107 0.000000 0.719025 0.852315
0.423136 3.981637 0.444084 0.000000 0.710113 0.704088 0.189671 0.722357
0.423136 3.981637 1.345263 0.000000 1.000000 0.000000 0.189671 0.860641
0.967307 3.981637 1.345263 0.000000 1.000000 0.000000 0.106169 0.860641
0.967307 3.981637 0.444084 0.000000 0.710113 0.704088 0.106169 0.722357
1.535895 3.981637 1.761701 0.198332 0.897440 -0.394039 0.873311 0.916216
1.535895 2.976174 1.761701 0.335879 -0.340413 -0.878239 0.719025 0.916216
0.423136 3.981637 1.761701 0.000000 1.000000 0.000000 0.189671 0.924542
0.967307 3.981637 1.761701 0.000000 1.000000 0.000000 0.106169 0.924542
0.967307 2.798430 0.167751 0.000000 0.114465 -0.993427 0.267675 0.638907
0.967307 3.981637 0.167751 -0.000000 -0.114466 -0.993427 0.267675 0.457169
1.202360 3.981637 0.167751 -0.131379 -0.080242 -0.988079 0.303778 0.457169
1.202360 2.798430 0.167751 -0.131379 0.080242 -0.988079 0.303778 0.638907
1.202360 3.981637 1.345263 0.000000 1.000000 0.000000 0.070101 0.860641
1.202360 3.981637 0.444084 0.000000 0.710113 0.704088 0.070101 0.722357
1.202360 3.981637 1.761701 0.000000 1.000000 0.000000 0.070101 0.924542
0.946129 4.165137 2.092789 0.000000 0.707107 0.707107 0.037797 0.302837
0.946129 2.752979 2.092789 -0.010069 -0.009223 0.999907 0.254524 0.302746
1.226664 2.752979 2.092789 0.030787 -0.004366 0.999516 0.254542 0.345802
1.226664 4.165137 2.092789 0.000000 0.707107 0.707107 0.037815 0.345892
0.967307 2.644934 1.761701 -0.292832 -0.323706 -0.899702 0.567341 0.566093
0.967307 2.731089 1.345263 -0.730761 -0.679085 -0.069511 0.567341 0.500838
1.202360 2.731089 1.345263 0.730761 -0.679085 -0.069511 0.603409 0.500838
1.202360 2.644934 1.761701 0.284250 -0.327019 -0.901255 0.603409 0.566093
0.967307 2.731089 0.444084 -0.768488 -0.285605 0.572587 0.567341 0.362555
1.202360 2.731089 0.444084 0.306651 -0.304201 0.901902 0.603409 0.362555
0.989094 4.056046 0.443450 0.000000 0.710113 0.704088 0.102826 0.710939
1.253710 4.056046 0.443450 0.000000 0.710113 0.704088 0.062221 0.710939
1.253710 4.056046 0.150373 -0.047183 0.682348 -0.729503 0.062221 0.665967
0.989094 4.056046 0.150373 -0.000000 0.621520 -0.783399 0.102826 0.665967
1.587246 4.056046 0.443450 0.578168 0.578453 0.575425 0.884729 0.706151
1.587246 2.901765 0.443450 0.715816 -0.027101 0.697763 0.707608 0.706151
1.587246 2.901765 0.150373 0.714618 -0.025934 -0.699034 0.707608 0.661179
1.587246 4.056046 0.150373 0.577350 0.577350 -0.577350 0.884729 0.661179
1.253710 2.656680 0.443450 0.578168 -0.578453 0.575425 0.611289 0.351136
0.966930 2.656680 0.443450 -0.577805 -0.579569 0.574667 0.567283 0.351136
0.966930 2.656680 0.150373 -0.577350 -0.577350 -0.577350 0.567283 0.306164
1.253710 2.656680 0.150373 0.577350 -0.577350 -0.577350 0.611289 0.306164
1.253710 2.724021 0.150373 0.253127 -0.264195 -0.930660 0.311666 0.650336
0.966930 2.724021 0.150373 -0.324107 -0.174297 -0.929825 0.267617 0.650336
1.253710 4.056046 0.150373 -0.047183 0.682348 -0.729503 0.311666 0.445740
0.989094 4.056046 0.150373 -0.000000 0.621520 -0.783399 0.271022 0.445740
0.423136 3.981637 0.167751 0.000000 -0.114466 -0.993427 0.184092 0.457169
0.423136 4.056046 0.150373 0.000000 0.621520 -0.783399 0.184092 0.445740
1.252274 3.981637 1.345263 0.000000 1.000000 0.000000 0.062442 0.860641
1.252274 3.981637 0.444084 0.000000 0.710113 0.704088 0.062442 0.722357
1.252274 3.981637 1.761701 0.000000 1.000000 0.000000 0.062442 0.924542
1.286237 2.965117 2.092789 0.012996 -0.014874 0.999805 0.221988 0.354958
1.286237 4.165137 2.092789 0.000000 0.707107 0.707107 0.037818 0.355034
1.202360 2.798430 1.761701 0.755631 -0.104360 -0.646631 0.681531 0.562197
1.202360 2.798430 1.345263 0.990646 -0.136457 0.000000 0.681429 0.497017
1.252274 2.976174 1.345263 0.604003 -0.796982 0.000000 0.710388 0.497017
1.252274 2.976174 1.761701 0.495471 -0.654196 -0.571434 0.710285 0.562197
1.202360 2.798430 0.444084 0.729517 -0.101504 0.676389 0.680846 0.355358
1.252274 2.976174 0.444084 0.486398 -0.642261 0.592384 0.710971 0.355358
1.253710 2.724021 0.443450 0.290937 -0.300290 0.908395 0.667669 0.337537
1.573155 2.707889 0.443450 0.540309 -0.611714 0.577817 0.702015 0.313894
1.253710 2.724021 0.150373 0.253127 -0.264195 -0.930660 0.653713 0.289909
1.573155 2.707889 0.150373 0.540223 -0.611124 -0.578521 0.695845 0.289761
1.303624 4.056046 0.150373 -0.000000 0.707107 -0.707107 0.319332 0.445740
1.573155 2.707889 0.150373 0.540223 -0.611124 -0.578521 0.360731 0.652814
1.303624 4.056046 0.443450 0.000000 0.710113 0.704088 0.054562 0.710939
1.303624 4.056046 0.150373 -0.000000 0.707107 -0.707107 0.054562 0.665967
1.535895 3.981637 1.345263 0.707107 0.707107 0.000000 0.018920 0.860641
1.535895 3.981637 0.444084 0.306651 0.304202 0.901902 0.018920 0.722357
1.535895 3.981637 1.761701 0.198332 0.897440 -0.394039 0.018920 0.924542
1.624739 2.965117 2.092789 0.015837 -0.052483 0.998496 0.222009 0.406909
1.624739 4.165137 2.092789 -0.200336 0.551119 0.810021 0.037840 0.406985
1.252274 2.976174 1.761701 0.495471 -0.654196 -0.571434 0.791949 0.596011
1.252274 2.976174 1.345263 0.604003 -0.796982 0.000000 0.791949 0.534170
1.535895 2.976174 1.345263 0.707107 -0.707107 0.000000 0.835470 0.534170
1.535895 2.976174 1.761701 0.335879 -0.340413 -0.878239 0.835470 0.596011
1.252274 2.976174 0.444084 0.486398 -0.642261 0.592384 0.791949 0.395887
1.535895 2.976174 0.444084 0.307426 -0.301740 0.902464 0.835470 0.395887
1.573155 2.707889 0.443450 0.540309 -0.611714 0.577817 0.841187 0.352658
1.587246 2.901765 0.443450 0.715816 -0.027101 0.697763 0.843350 0.382408
1.573155 2.707889 0.150373 0.540223 -0.611124 -0.578521 0.886041 0.349398
1.587246 2.901765 0.150373 0.714618 -0.025934 -0.699034 0.888203 0.379148
1.587246 4.056046 0.150373 0.577350 0.577350 -0.577350 0.362896 0.445740
1.587246 2.901765 0.150373 0.714618 -0.025934 -0.699034 0.362896 0.623035
1.587246 4.056046 0.443450 0.578168 0.578453 0.575425 0.011041 0.710939
1.587246 4.056046 0.150373 0.577350 0.577350 -0.577350 0.011041 0.665967
0.966930 2.730486 0.443450 -0.964490 0.001106 0.264115 0.896619 0.701371
0.967307 2.798430 0.444084 -0.999999 0.001041 0.000747 0.886193 0.701476
0.967307 2.798430 0.274372 -0.763017 -0.145945 0.629687 0.886193 0.675435
0.967119 2.726609 0.238833 -0.376517 -0.778192 0.502645 0.897214 0.669981
0.967307 2.798430 0.444084 -0.999999 0.001041 0.000747 0.857634 0.347242
0.967307 2.798430 1.345263 -0.904534 -0.301511 -0.301511 0.719352 0.347242
0.967307 3.384080 1.345263 -0.577350 -0.577350 -0.577350 0.719350 0.257377
0.967307 3.384080 0.444084 -0.707107 -0.707107 0.000000 0.857634 0.257376
0.423136 2.798430 1.345263 0.000000 -0.707107 -0.707107 0.629478 0.173876
0.423136 3.384080 1.345263 0.000000 -0.707107 -0.707107 0.719346 0.173875
0.967307 2.798430 1.345263 -0.904534 -0.301511 -0.301511 0.629481 0.257379
0.967307 3.384080 0.273872 -0.577346 -0.577159 0.577547 0.883753 0.257376
0.967307 2.798430 0.274372 -0.763017 -0.145945 0.629687 0.883675 0.347242
0.423136 3.384080 0.444084 0.000000 -1.000000 0.000000 0.857633 0.173873
0.423136 3.384080 0.273872 -0.000000 -0.706869 0.707344 0.883753 0.173873
0.967307 2.798430 1.345263 -0.904534 -0.301511 -0.301511 0.886193 0.839760
0.967307 2.731089 0.444084 -0.768488 -0.285605 0.572587 0.896526 0.701476
0.967307 2.731089 1.345263 -0.730761 -0.679085 -0.069511 0.896526 0.839760
0.966930 2.656680 0.443450 -0.577805 -0.579569 0.574667 0.907944 0.701363
0.966930 2.724021 0.150373 -0.324107 -0.174297 -0.929825 0.897611 0.656392
0.966930 2.656680 0.150373 -0.577350 -0.577350 -0.577350 0.907944 0.656392
0.966930 2.724021 0.150373 -0.324107 -0.174297 -0.929825 0.567283 0.295831
1.253710 2.724021 0.150373 0.253127 -0.264195 -0.930660 0.611289 0.295831
1.253710 2.656680 0.443450 0.578168 -0.578453 0.575425 0.654834 0.332553
1.253710 2.656680 0.150373 0.577350 -0.577350 -0.577350 0.647398 0.298312
1.202360 2.731089 0.444084 0.306651 -0.304201 0.901902 0.662459 0.352730
1.202360 2.798430 0.444084 0.729517 -0.101504 0.676389 0.681472 0.355663
1.202360 2.798430 1.345263 0.990646 -0.136457 0.000000 0.681466 0.497017
1.202360 2.731089 1.345263 0.730761 -0.679085 -0.069511 0.670914 0.497017
1.202360 2.731089 0.444084 0.306651 -0.304201 0.901902 0.670909 0.355663
1.202360 2.644934 1.761701 0.284250 -0.327019 -0.901255 0.657435 0.562197
0.946129 2.569782 2.092789 -0.026534 -0.026176 0.999305 0.282639 0.302736
1.226664 2.569782 2.092789 0.026272 -0.027559 0.999275 0.282657 0.345790
0.967307 2.798430 1.761701 -0.588215 -0.586602 -0.556688 0.886193 0.903662
0.967307 2.644934 1.761701 -0.292832 -0.323706 -0.899702 0.909746 0.903662
0.423136 2.798430 0.274160 -0.000000 -0.228545 0.973533 0.973624 0.173873
0.423136 2.727710 0.238755 -0.000000 -0.840522 0.541777 0.985762 0.173872
0.967119 2.726609 0.238833 -0.376517 -0.778192 0.502645 0.985917 0.257348
0.967307 2.798430 0.274372 -0.763017 -0.145945 0.629687 0.973621 0.257378
0.423136 2.724021 0.150373 0.000000 -0.635317 -0.772251 0.999336 0.173872
0.966930 2.724021 0.150373 -0.324107 -0.174297 -0.929825 0.999498 0.257293
0.886563 2.717685 1.770651 -0.296840 -0.283383 -0.911910 0.898583 0.916127
0.886563 2.564189 1.770651 -0.525782 -0.523594 -0.670374 0.922137 0.916127
0.840747 2.517158 1.981070 -0.631908 -0.464798 -0.620206 0.929354 0.949172
0.840747 2.698871 1.981070 -0.600381 -0.672932 -0.432095 0.901470 0.949172
0.886563 2.564189 1.770651 -0.525782 -0.523594 -0.670374 0.554951 0.578559
1.283104 2.564189 1.770651 0.507822 -0.556123 -0.657909 0.615799 0.578559
1.310183 2.517158 1.981070 0.570309 -0.540184 -0.618828 0.619954 0.611643
0.840747 2.517158 1.981070 -0.631908 -0.464798 -0.620206 0.547921 0.611643
1.283104 2.564189 1.770651 0.507822 -0.556123 -0.657909 0.650026 0.584100
1.313239 2.783157 1.770651 0.685948 -0.073864 -0.723892 0.683967 0.579439
1.345857 2.776378 1.981070 0.917552 -0.092773 -0.386642 0.688111 0.612199
1.310183 2.517158 1.981070 0.570309 -0.540184 -0.618828 0.647931 0.617716
1.320704 2.885876 1.770651 0.346399 -0.330450 -0.877958 0.699728 0.577113
1.354694 2.897979 1.981070 0.647375 -0.696545 -0.309405 0.706769 0.609446
1.320704 2.885876 1.770651 0.346399 -0.330450 -0.877958 0.802449 0.609935
1.616640 2.895430 1.770651 0.456570 -0.626980 -0.631221 0.847860 0.608477
1.705030 2.909289 1.981070 0.480407 -0.686361 -0.546002 0.862516 0.640355
1.354694 2.897979 1.981070 0.647375 -0.696545 -0.309405 0.808757 0.642081
1.616640 2.895430 1.770651 0.456570 -0.626980 -0.631221 0.706635 0.928680
1.647512 3.972690 1.770651 0.372310 0.402289 -0.836390 0.871939 0.933397
1.741578 4.184577 1.981070 0.035960 0.426615 -0.903718 0.903841 0.969318
1.705030 2.909289 1.981070 0.480407 -0.686361 -0.546002 0.708150 0.963733
1.252274 3.981637 1.990020 0.000000 0.834906 -0.550393 0.062442 0.959577
1.535895 3.981637 1.990020 -0.221052 0.811333 -0.541179 0.018920 0.959577
1.202360 3.981637 1.990020 0.000000 0.834906 -0.550393 0.070101 0.959577
0.967307 3.981637 1.990020 0.000000 0.834906 -0.550393 0.106169 0.959577
0.423136 3.981637 1.990020 0.000000 0.834906 -0.550393 0.189671 0.959577
1.202360 2.644934 1.761701 0.284250 -0.327019 -0.901255 0.658690 0.568605
1.320704 2.885876 1.770651 0.346399 -0.330450 -0.877958 0.699611 0.576261
1.535895 3.981637 1.761701 0.198332 0.897440 -0.394039 0.840644 0.501683
1.535895 3.981637 1.990020 -0.221052 0.811333 -0.541179 0.859092 0.469675
1.741578 4.184577 1.981070 0.035960 0.426615 -0.903718 0.904931 0.491311
1.647512 3.972690 1.770651 0.372310 0.402289 -0.836390 0.855901 0.509389
1.826601 2.885289 2.082107 0.584900 -0.579441 0.567574 0.234274 0.437884
1.870221 4.407345 2.082107 0.339629 0.771577 0.537887 0.000683 0.444674
1.408474 2.871791 2.082107 0.333235 -0.377765 0.863856 0.236319 0.373712
1.397928 2.726660 2.082107 0.732944 -0.078559 0.675738 0.258592 0.372084
1.355351 2.417281 2.082107 0.539507 -0.619085 0.570672 0.306070 0.365530
0.795079 2.417281 2.082107 -0.584026 -0.584078 0.563708 0.306035 0.279544
0.795079 2.634155 2.082107 -0.316864 -0.335817 0.887031 0.272786 0.279557
0.423136 2.752979 2.092789 -0.000000 -0.043376 0.999059 0.254491 0.222484
0.423136 2.624623 2.082107 -0.000000 -0.742068 0.670325 0.274256 0.222478
1.286237 4.165137 2.068714 0.000000 0.834906 -0.550393 0.057230 0.990214
1.624739 4.165137 2.068714 -0.438322 0.774112 -0.456755 0.005288 0.990214
1.226664 4.165137 2.068714 0.000000 0.834906 -0.550393 0.066371 0.990214
0.946129 4.165137 2.068714 0.000000 0.834906 -0.550393 0.109419 0.990214
0.423136 4.165137 2.068714 0.000000 0.834906 -0.550393 0.189671 0.990214
0.795079 2.417281 2.058032 -0.634637 -0.668794 -0.387235 0.944679 0.962905
0.795079 2.634155 2.058032 -0.651091 -0.601596 -0.462777 0.911401 0.962905
1.355351 2.417281 2.058032 0.589990 -0.705551 -0.392568 0.626885 0.630992
0.795079 2.417281 2.058032 -0.634637 -0.668794 -0.387235 0.540913 0.630992
1.310183 2.517158 1.981070 0.570309 -0.540184 -0.618828 0.647776 0.616559
1.345857 2.776378 1.981070 0.917552 -0.092773 -0.386642 0.688098 0.612201
1.397928 2.726660 2.058032 0.944207 -0.102828 -0.312890 0.683212 0.627787
1.355351 2.417281 2.058032 0.589990 -0.705551 -0.392568 0.635086 0.632989
1.408474 2.871791 2.058032 0.598403 -0.725345 -0.340277 0.705493 0.624499
1.826601 2.885289 2.058032 0.676687 -0.619230 -0.398307 0.881436 0.652316
1.408474 2.871791 2.058032 0.598403 -0.725345 -0.340277 0.817275 0.654376
1.870221 4.407345 2.058032 0.354882 0.806852 -0.472280 0.937929 0.992461
1.826601 2.885289 2.058032 0.676687 -0.619230 -0.398307 0.704372 0.985795
1.624739 4.165137 2.068714 -0.438322 0.774112 -0.456755 0.895916 0.464937
1.870221 4.407345 2.058032 0.354882 0.806852 -0.472280 0.937926 0.484329
1.286237 4.165137 2.092789 0.000000 0.707107 0.707107 0.057230 0.993909
1.624739 4.165137 2.092789 -0.200336 0.551119 0.810021 0.005288 0.993909
1.226664 4.165137 2.092789 0.000000 0.707107 0.707107 0.066371 0.993909
0.946129 4.165137 2.092789 0.000000 0.707107 0.707107 0.109419 0.993909
0.423136 4.165137 2.092789 0.000000 0.707107 0.707107 0.189671 0.993909
0.795079 2.417281 2.082107 -0.584026 -0.584078 0.563708 0.944679 0.966599
0.795079 2.634155 2.082107 -0.316864 -0.335817 0.887031 0.911401 0.966599
1.355351 2.417281 2.082107 0.539507 -0.619085 0.570672 0.626885 0.634686
0.795079 2.417281 2.082107 -0.584026 -0.584078 0.563708 0.540913 0.634686
1.355351 2.417281 2.058032 0.589990 -0.705551 -0.392568 0.635301 0.634857
1.397928 2.726660 2.082107 0.732944 -0.078559 0.675738 0.683758 0.631480
1.355351 2.417281 2.082107 0.539507 -0.619085 0.570672 0.635846 0.638550
1.408474 2.871791 2.082107 0.333235 -0.377765 0.863856 0.706037 0.628193
1.826601 2.885289 2.082107 0.584900 -0.579441 0.567574 0.881554 0.656008
1.408474 2.871791 2.082107 0.333235 -0.377765 0.863856 0.817393 0.658069
1.870221 4.407345 2.082107 0.339629 0.771577 0.537887 0.937824 0.996154
1.826601 2.885289 2.082107 0.584900 -0.579441 0.567574 0.704267 0.989488
1.624739 4.165137 2.092789 -0.200336 0.551119 0.810021 0.897277 0.461711
1.870221 4.407345 2.082107 0.339629 0.771577 0.537887 0.942887 0.482638
0.423136 2.798430 0.167751 0.000000 0.114465 -0.993427 0.184092 0.638907
0.423136 4.165137 2.092789 0.000000 0.707107 0.707107 0.037764 0.222572
0.967307 2.798430 1.761701 -0.588215 -0.586602 -0.556688 0.565579 0.257380
0.423136 2.798430 1.761701 0.000000 -0.742690 -0.669635 0.565577 0.173878
0.423136 4.056046 0.150373 0.000000 0.621520 -0.783399 0.189671 0.665967
0.423136 4.056046 0.443450 0.000000 0.710113 0.704088 0.189671 0.710939
0.423136 2.724021 0.150373 0.000000 -0.635317 -0.772251 0.184092 0.650336
0.423136 2.705642 1.770651 0.000000 -0.719233 -0.694768 0.551273 0.173878
0.886563 2.717685 1.770651 -0.296840 -0.283383 -0.911910 0.553113 0.244990
0.840747 2.698871 1.981070 -0.600381 -0.672932 -0.432095 0.520539 0.238728
0.423136 2.688098 1.981070 0.000000 -0.925475 -0.378807 0.518882 0.174647
0.795079 2.634155 2.058032 -0.651091 -0.601596 -0.462777 0.505044 0.231865
0.423136 2.624623 2.058032 0.000000 -0.941715 -0.336413 0.503574 0.174792
0.795079 2.634155 2.082107 -0.316864 -0.335817 0.887031 0.501352 0.231960
0.423136 2.624623 2.082107 -0.000000 -0.742068 0.670325 0.499882 0.174887
-0.689623 2.976174 0.444084 -0.307426 -0.301740 0.902464 0.683794 0.714031
-0.689623 2.976174 1.345263 -0.707107 -0.707107 0.000000 0.683794 0.852315
-0.689623 3.981637 1.345263 -0.707107 0.707107 0.000000 0.529508 0.852315
-0.689623 3.981637 0.444084 -0.306651 0.304202 0.901902 0.529508 0.714031
-0.121035 3.981637 1.345263 0.000000 1.000000 0.000000 0.273173 0.860641
-0.121035 3.981637 0.444084 -0.000000 0.710113 0.704088 0.273173 0.722357
-0.689623 2.976174 1.761701 -0.335879 -0.340413 -0.878239 0.683794 0.916217
-0.689623 3.981637 1.761701 -0.198332 0.897440 -0.394039 0.529508 0.916217
-0.121035 3.981637 1.761701 0.000000 1.000000 0.000000 0.273173 0.924542
-0.121035 2.798430 0.167751 0.000000 0.114465 -0.993427 0.100508 0.638907
-0.356088 2.798430 0.167751 0.131379 0.080242 -0.988079 0.064405 0.638907
-0.356088 3.981637 0.167751 0.131379 -0.080242 -0.988079 0.064405 0.457169
-0.121035 3.981637 0.167751 0.000000 -0.114466 -0.993427 0.100508 0.457169
-0.356088 3.981637 0.444084 0.000000 0.710113 0.704088 0.309241 0.722357
-0.356088 3.981637 1.345263 0.000000 1.000000 0.000000 0.309241 0.860641
-0.356088 3.981637 1.761701 0.000000 1.000000 0.000000 0.309241 0.924542
-0.099857 4.165137 2.092789 0.000000 0.707107 0.707107 0.037731 0.142307
-0.380392 4.165137 2.092789 0.000000 0.707107 0.707107 0.037713 0.099253
-0.380392 2.752979 2.092789 -0.030788 -0.004366 0.999516 0.254440 0.099163
-0.099857 2.752979 2.092789 0.010069 -0.009223 0.999907 0.254458 0.142223
-0.121035 2.644934 1.761701 0.292832 -0.323706 -0.899702 0.499215 0.566822
-0.356088 2.644934 1.761701 -0.284250 -0.327019 -0.901255 0.463146 0.566822
-0.356088 2.731089 1.345263 -0.730761 -0.679085 -0.069511 0.463146 0.501567
-0.121035 2.731089 1.345263 0.730761 -0.679085 -0.069511 0.499215 0.501567
-0.356088 2.731089 0.444084 -0.306651 -0.304201 0.901902 0.463146 0.363284
-0.121035 2.731089 0.444084 0.768488 -0.285605 0.572587 0.499215 0.363284
-0.142822 4.056046 0.443450 -0.000000 0.710113 0.704088 0.276516 0.710939
-0.142822 4.056046 0.150373 0.000000 0.621520 -0.783399 0.276516 0.665967
-0.407438 4.056046 0.150373 0.047183 0.682348 -0.729503 0.317120 0.665967
-0.407438 4.056046 0.443450 0.000000 0.710113 0.704088 0.317120 0.710939
-0.740974 4.056046 0.443450 -0.578168 0.578453 0.575425 0.518090 0.706151
-0.740974 4.056046 0.150373 -0.577350 0.577350 -0.577350 0.518090 0.661179
-0.740974 2.901765 0.150373 -0.714618 -0.025934 -0.699034 0.695212 0.661179
-0.740974 2.901765 0.443450 -0.715816 -0.027102 0.697763 0.695212 0.706151
-0.407438 2.656680 0.443450 -0.578168 -0.578453 0.575425 0.455267 0.351866
-0.407438 2.656680 0.150373 -0.577350 -0.577350 -0.577350 0.455267 0.306894
-0.120658 2.656680 0.150373 0.577350 -0.577350 -0.577350 0.499273 0.306894
-0.120658 2.656680 0.443450 0.577805 -0.579569 0.574667 0.499273 0.351866
-0.120658 2.724021 0.150373 0.324107 -0.174297 -0.929825 0.100566 0.650336
-0.407438 2.724021 0.150373 -0.253127 -0.264195 -0.930660 0.056517 0.650336
-0.407438 4.056046 0.150373 0.047183 0.682348 -0.729503 0.056517 0.445740
-0.142822 4.056046 0.150373 0.000000 0.621520 -0.783399 0.097162 0.445740
-0.406002 3.981637 0.444084 0.000000 0.710113 0.704088 0.316900 0.722357
-0.406002 3.981637 1.345263 0.000000 1.000000 0.000000 0.316900 0.860641
-0.406002 3.981637 1.761701 0.000000 1.000000 0.000000 0.316900 0.924542
-0.439965 4.165137 2.092789 0.000000 0.707107 0.707107 0.037709 0.090110
-0.439965 2.965117 2.092789 -0.012997 -0.014874 0.999805 0.221879 0.090034
-0.356088 2.798430 1.761701 -0.755631 -0.104360 -0.646631 0.748260 0.564879
-0.406002 2.976174 1.761701 -0.495471 -0.654196 -0.571434 0.719929 0.564889
-0.406002 2.976174 1.345263 -0.604003 -0.796982 0.000000 0.719905 0.500979
-0.356088 2.798430 1.345263 -0.990646 -0.136457 0.000000 0.748237 0.500969
-0.406002 2.976174 0.444084 -0.486398 -0.642261 0.592384 0.719857 0.362678
-0.356088 2.798430 0.444084 -0.729517 -0.101504 0.676389 0.748190 0.362668
-0.356088 2.798430 0.444084 -0.729517 -0.101504 0.676389 0.995053 0.332074
-0.406002 2.976174 0.444084 -0.486398 -0.642261 0.592384 0.990829 0.358501
-0.726884 2.707889 0.443450 -0.540309 -0.611714 0.577817 0.937686 0.320257
-0.407438 2.724021 0.443450 -0.290937 -0.300290 0.908395 0.986763 0.320949
-0.407438 2.724021 0.443450 -0.290937 -0.300290 0.908395 0.939463 0.271207
-0.726884 2.707889 0.150373 -0.540223 -0.611124 -0.578521 0.892742 0.318629
-0.407438 2.724021 0.150373 -0.253127 -0.264195 -0.930660 0.894519 0.269579
-0.726884 2.707889 0.150373 -0.540223 -0.611124 -0.578521 0.007452 0.652813
-0.457352 4.056046 0.150373 0.000000 0.707107 -0.707107 0.048851 0.445740
-0.457352 4.056046 0.150373 0.000000 0.707107 -0.707107 0.324779 0.665967
-0.457352 4.056046 0.443450 0.000000 0.710113 0.704088 0.324779 0.710939
-0.689623 3.981637 0.444084 -0.306651 0.304202 0.901902 0.360421 0.722357
-0.689623 3.981637 1.345263 -0.707107 0.707107 0.000000 0.360421 0.860641
-0.689623 3.981637 1.761701 -0.198332 0.897440 -0.394039 0.360421 0.924542
-0.778467 4.165137 2.092789 0.200335 0.551119 0.810021 0.037688 0.038159
-0.778467 2.965117 2.092789 -0.015837 -0.052484 0.998496 0.221858 0.038083
-0.406002 2.976174 1.761701 -0.495471 -0.654196 -0.571434 0.995738 0.561679
-0.689623 2.976174 1.761701 -0.335879 -0.340413 -0.878239 0.952242 0.563260
-0.689623 2.976174 1.345263 -0.707107 -0.707107 0.000000 0.952359 0.498287
-0.406002 2.976174 1.345263 -0.604003 -0.796982 0.000000 0.995855 0.496705
-0.689623 2.976174 0.444084 -0.307426 -0.301740 0.902464 0.947334 0.360082
-0.740974 2.901765 0.443450 -0.715816 -0.027102 0.697763 0.936606 0.350066
-0.740974 2.901765 0.150373 -0.714618 -0.025934 -0.699034 0.891662 0.348438
-0.740974 2.901765 0.150373 -0.714618 -0.025934 -0.699034 0.005288 0.623035
-0.740974 4.056046 0.150373 -0.577350 0.577350 -0.577350 0.005288 0.445740
-0.740974 4.056046 0.150373 -0.577350 0.577350 -0.577350 0.368300 0.665967
-0.740974 4.056046 0.443450 -0.578168 0.578453 0.575425 0.368300 0.710939
-0.120658 2.730486 0.443450 0.964490 0.001106 0.264115 0.979211 0.678652
-0.120847 2.726609 0.238833 0.376517 -0.778192 0.502645 0.978616 0.647254
-0.121035 2.798430 0.274372 0.763017 -0.145945 0.629687 0.989636 0.652708
-0.121035 2.798430 0.444084 0.999999 0.001041 0.000747 0.989636 0.678750
-0.121035 2.798430 0.444084 0.999999 0.001041 0.000747 0.857633 0.000500
-0.121035 3.384080 0.444084 0.707107 -0.707107 0.000000 0.857633 0.090368
-0.121035 3.384080 1.345263 0.577350 -0.577350 -0.577350 0.719346 0.090369
-0.121035 2.798430 1.345263 0.904534 -0.301511 -0.301511 0.719347 0.000500
-0.121035 2.798430 1.345263 0.904534 -0.301511 -0.301511 0.629477 0.090373
-0.121035 2.798430 0.274372 0.763017 -0.145945 0.629687 0.883675 0.000500
-0.121035 3.384080 0.273872 0.577346 -0.577159 0.577547 0.883752 0.090368
-0.121035 2.798430 1.345263 0.904534 -0.301511 -0.301511 0.989636 0.817034
-0.121035 2.731089 1.345263 0.730761 -0.679085 -0.069511 0.979303 0.817034
-0.121035 2.731089 0.444084 0.768488 -0.285605 0.572587 0.979303 0.678750
-0.120658 2.656680 0.443450 0.577805 -0.579569 0.574667 0.967885 0.678652
-0.120658 2.656680 0.150373 0.577350 -0.577350 -0.577350 0.967885 0.633680
-0.120658 2.724021 0.150373 0.324107 -0.174297 -0.929825 0.978219 0.633680
-0.120658 2.724021 0.150373 0.324107 -0.174297 -0.929825 0.499273 0.296560
-0.407438 2.724021 0.150373 -0.253127 -0.264195 -0.930660 0.455267 0.296560
-0.407438 2.724021 0.150373 -0.253127 -0.264195 -0.930660 0.444934 0.306894
-0.407438 2.724021 0.443450 -0.290937 -0.300290 0.908395 0.444934 0.351866
-0.356088 2.731089 0.444084 -0.306651 -0.304201 0.901902 0.443849 0.359746
-0.356088 2.798430 0.444084 -0.729517 -0.101504 0.676389 0.433516 0.359746
-0.356088 2.731089 0.444084 -0.306651 -0.304201 0.901902 0.758525 0.362664
-0.356088 2.731089 1.345263 -0.730761 -0.679085 -0.069511 0.758572 0.500966
-0.356088 2.644934 1.761701 -0.284250 -0.327019 -0.901255 0.771816 0.564871
-0.380392 2.569782 2.092789 -0.026273 -0.027559 0.999275 0.282556 0.099152
-0.099857 2.569782 2.092789 0.026534 -0.026177 0.999305 0.282573 0.142206
-0.121035 2.798430 1.761701 0.588215 -0.586602 -0.556688 0.989636 0.880935
-0.121035 2.644934 1.761701 0.292832 -0.323706 -0.899702 0.966083 0.880935
-0.120847 2.726609 0.238833 0.376517 -0.778192 0.502645 0.985920 0.090396
-0.121035 2.798430 0.274372 0.763017 -0.145945 0.629687 0.973623 0.090365
-0.120658 2.724021 0.150373 0.324107 -0.174297 -0.929825 0.999500 0.090452
-0.040291 2.717685 1.770651 0.296840 -0.283383 -0.911910 0.977246 0.893401
0.005525 2.698871 1.981070 0.600381 -0.672932 -0.432095 0.974359 0.926446
0.005525 2.517158 1.981070 0.631908 -0.464798 -0.620206 0.946476 0.926446
-0.040291 2.564189 1.770651 0.525782 -0.523594 -0.670374 0.953693 0.893401
-0.040291 2.564189 1.770651 0.525782 -0.523594 -0.670374 0.511605 0.579288
0.005525 2.517158 1.981070 0.631908 -0.464798 -0.620206 0.518635 0.612373
-0.463911 2.517158 1.981070 -0.570310 -0.540184 -0.618828 0.446601 0.612373
-0.436833 2.564189 1.770651 -0.507822 -0.556123 -0.657909 0.450757 0.579288
-0.436833 2.564189 1.770651 -0.507822 -0.556123 -0.657909 0.779531 0.586554
-0.463911 2.517158 1.981070 -0.570310 -0.540184 -0.618828 0.781617 0.619838
-0.499585 2.776378 1.981070 -0.917552 -0.092773 -0.386642 0.741832 0.614388
-0.466967 2.783157 1.770651 -0.685948 -0.073864 -0.723892 0.745924 0.581951
-0.508422 2.897979 1.981070 -0.647375 -0.696545 -0.309405 0.723351 0.611668
-0.474432 2.885876 1.770651 -0.346399 -0.330450 -0.877958 0.730318 0.579653
-0.474432 2.885876 1.770651 -0.346399 -0.330450 -0.877958 0.985750 0.575976
-0.508422 2.897979 1.981070 -0.647375 -0.696545 -0.309405 0.980614 0.608333
-0.858759 2.909289 1.981070 -0.480407 -0.686361 -0.546002 0.926832 0.608803
-0.770368 2.895430 1.770651 -0.456570 -0.626980 -0.631221 0.940312 0.576169
-0.770368 2.895430 1.770651 -0.456570 -0.626980 -0.631221 0.696184 0.928681
-0.858759 2.909289 1.981070 -0.480407 -0.686361 -0.546002 0.694669 0.963733
-0.895306 4.184577 1.981070 -0.035960 0.426615 -0.903718 0.498979 0.969318
-0.801240 3.972690 1.770651 -0.372310 0.402289 -0.836390 0.530881 0.933398
-0.689623 3.981637 1.990020 0.221052 0.811333 -0.541179 0.360421 0.959577
-0.406002 3.981637 1.990020 0.000000 0.834906 -0.550393 0.316900 0.959577
-0.356088 3.981637 1.990020 0.000000 0.834906 -0.550393 0.309241 0.959577
-0.121035 3.981637 1.990020 0.000000 0.834906 -0.550393 0.273173 0.959577
-0.356088 2.644934 1.761701 -0.284250 -0.327019 -0.901255 0.770947 0.571215
-0.474432 2.885876 1.770651 -0.346399 -0.330450 -0.877958 0.730434 0.578809
-0.689623 3.981637 1.761701 -0.198332 0.897440 -0.394039 0.933483 0.517549
-0.801240 3.972690 1.770651 -0.372310 0.402289 -0.836390 0.931706 0.534574
-0.895306 4.184577 1.981070 -0.035960 0.426615 -0.903718 0.889909 0.565931
-0.689623 3.981637 1.990020 0.221052 0.811333 -0.541179 0.896615 0.515707
-1.023949 4.407345 2.082107 -0.339629 0.771577 0.537887 0.000500 0.000500
-0.980330 2.885289 2.082107 -0.584900 -0.579441 0.567574 0.234096 0.007098
-0.562202 2.871791 2.082107 -0.333236 -0.377766 0.863856 0.236194 0.071268
-0.551656 2.726660 2.082107 -0.732944 -0.078559 0.675738 0.258468 0.072878
-0.509079 2.417281 2.082107 -0.539507 -0.619085 0.570671 0.305952 0.079392
0.051193 2.417281 2.082107 0.584026 -0.584078 0.563708 0.305988 0.165379
0.051193 2.634155 2.082107 0.316864 -0.335817 0.887031 0.272740 0.165397
-0.778467 4.165137 2.068714 0.438322 0.774112 -0.456755 0.374054 0.990214
-0.439965 4.165137 2.068714 0.000000 0.834906 -0.550393 0.322111 0.990214
-0.380392 4.165137 2.068714 0.000000 0.834906 -0.550393 0.312970 0.990214
-0.099857 4.165137 2.068714 0.000000 0.834906 -0.550393 0.269923 0.990214
0.051193 2.634155 2.058032 0.651091 -0.601596 -0.462778 0.964429 0.940178
0.051193 2.417281 2.058032 0.634637 -0.668794 -0.387235 0.931150 0.940178
0.051193 2.417281 2.058032 0.634637 -0.668794 -0.387235 0.525643 0.631721
-0.509079 2.417281 2.058032 -0.589990 -0.705551 -0.392568 0.439671 0.631721
-0.463911 2.517158 1.981070 -0.570310 -0.540184 -0.618828 0.781758 0.618690
-0.509079 2.417281 2.058032 -0.589990 -0.705551 -0.392568 0.794328 0.634953
-0.551656 2.726660 2.058032 -0.944207 -0.102828 -0.312889 0.746676 0.629819
-0.562202 2.871791 2.058032 -0.598403 -0.725345 -0.340277 0.724620 0.626572
-0.508422 2.897979 1.981070 -0.647375 -0.696545 -0.309405 0.980623 0.608575
-0.562202 2.871791 2.058032 -0.598403 -0.725345 -0.340277 0.972547 0.620931
-0.980330 2.885289 2.058032 -0.676687 -0.619230 -0.398307 0.908350 0.621203
-0.980330 2.885289 2.058032 -0.676687 -0.619230 -0.398307 0.698447 0.985796
-1.023949 4.407345 2.058032 -0.354882 0.806852 -0.472280 0.464890 0.992462
-1.023949 4.407345 2.058032 -0.354882 0.806852 -0.472280 0.866102 0.589852
-0.778467 4.165137 2.068714 0.438322 0.774112 -0.456755 0.872659 0.544036
-0.778467 4.165137 2.092789 0.200335 0.551119 0.810021 0.374054 0.993909
-0.439965 4.165137 2.092789 0.000000 0.707107 0.707107 0.322111 0.993909
-0.380392 4.165137 2.092789 0.000000 0.707107 0.707107 0.312970 0.993909
-0.099857 4.165137 2.092789 0.000000 0.707107 0.707107 0.269923 0.993909
0.051193 2.634155 2.082107 0.316864 -0.335817 0.887031 0.964429 0.943872
0.051193 2.417281 2.082107 0.584026 -0.584078 0.563708 0.931150 0.943872
0.051193 2.417281 2.082107 0.584026 -0.584078 0.563708 0.525643 0.635415
-0.509079 2.417281 2.082107 -0.539507 -0.619085 0.570671 0.439671 0.635415
-0.509079 2.417281 2.058032 -0.589990 -0.705551 -0.392568 0.794092 0.636799
-0.509079 2.417281 2.082107 -0.539507 -0.619085 0.570671 0.793554 0.640455
-0.551656 2.726660 2.082107 -0.732944 -0.078559 0.675738 0.746138 0.633474
-0.562202 2.871791 2.082107 -0.333236 -0.377766 0.863856 0.724090 0.630229
-0.562202 2.871791 2.082107 -0.333236 -0.377766 0.863856 0.972562 0.624625
-0.980330 2.885289 2.082107 -0.584900 -0.579441 0.567574 0.908366 0.624897
-0.980330 2.885289 2.082107 -0.584900 -0.579441 0.567574 0.698552 0.989489
-1.023949 4.407345 2.082107 -0.339629 0.771577 0.537887 0.464996 0.996154
-1.023949 4.407345 2.082107 -0.339629 0.771577 0.537887 0.861983 0.593102
-0.778467 4.165137 2.092789 0.200335 0.551119 0.810021 0.869210 0.543424
-0.121035 2.798430 1.761701 0.588215 -0.586602 -0.556688 0.565577 0.090375
0.005525 2.698871 1.981070 0.600381 -0.672932 -0.432095 0.517498 0.110559
-0.040291 2.717685 1.770651 0.296840 -0.283383 -0.911910 0.549739 0.102759
-0.040291 2.717685 1.770651 0.296840 -0.283383 -0.911910 0.553111 0.102766
0.051193 2.634155 2.058032 0.651091 -0.601596 -0.462778 0.503964 0.117700
0.005525 2.698871 1.981070 0.600381 -0.672932 -0.432095 0.519327 0.110545
0.051193 2.634155 2.082107 0.316864 -0.335817 0.887031 0.498403 0.117846
0.051193 2.634155 2.058032 0.651091 -0.601596 -0.462778 0.502094 0.117750
4 0 1 2 3
4 4 5 6 7
4 3 2 8 9
4 5 10 11 6
4 12 13 14 15
4 7 6 16 17
4 6 11 18 16
4 19 20 21 22
4 23 24 25 26
4 24 27 28 25
4 29 30 31 32
4 33 34 35 36
4 37 38 39 40
4 7 17 30 29
4 1 0 34 33
4 28 27 38 37
4 12 15 41 42
4 15 14 43 41
4 14 13 44 43
4 13 45 46 44
4 17 16 47 48
4 16 18 49 47
4 22 21 50 51
4 52 53 54 55
4 53 56 57 54
4 56 58 59 57
4 58 60 61 59
4 41 43 62 63
4 31 30 64 65
4 30 17 48 64
4 48 47 66 67
4 47 49 68 66
4 51 50 69 70
4 71 72 73 74
4 72 75 76 73
4 75 77 78 76
4 77 79 80 78
4 63 62 81 82
4 65 64 83 84
4 64 48 67 83
4 85 86 87 88
4 89 90 91 92
4 93 94 91 95
4 89 92 96 97
4 98 99 96 92
4 100 86 101 102
4 86 85 103 101
4 85 104 105 103
4 106 107 40 39
4 60 58 108 109
4 58 56 110 108
4 111 112 113 114
4 112 52 115 113
4 21 20 116 117
4 118 100 102 119
4 120 121 122 123
4 121 124 125 122
4 126 127 128 129
4 130 131 132 133
4 134 135 136 137
4 135 138 139 136
4 140 141 142 143
4 144 145 146 147
4 68 49 148 149
4 49 18 150 148
4 18 11 151 150
4 10 152 151 11
4 118 119 127 126
4 23 26 131 130
4 153 52 135 134
4 52 55 154 135
4 71 74 141 140
4 9 8 145 144
4 155 156 157 158
4 70 69 159 160
4 69 50 161 159
4 50 21 162 161
4 21 117 163 162
4 117 116 164 163
4 116 20 165 164
4 166 167 165 20
4 149 148 168 169
4 148 150 170 168
4 150 151 171 170
4 152 172 171 151
4 129 128 173 174
4 133 132 175 176
4 177 178 179 180
4 178 139 181 179
4 143 142 182 183
4 147 146 184 185
4 157 156 186 187
4 169 168 188 189
4 168 170 190 188
4 170 171 191 190
4 172 192 191 171
4 174 173 193 194
4 176 175 195 196
4 197 179 198 199
4 179 181 200 198
4 183 182 201 202
4 185 184 203 204
4 187 186 205 206
4 13 12 207 45
4 20 19 208 166
4 92 91 94 98
4 95 209 210 93
4 29 32 211 212
4 7 29 212 4
4 12 42 213 207
4 123 96 99 120
4 214 215 216 217
4 210 209 215 214
4 217 216 218 219
4 218 220 221 219
4 222 223 224 225
4 226 5 4 227
4 223 228 229 224
4 230 10 5 226
4 231 232 233 234
4 227 235 236 226
4 226 236 237 230
4 238 239 240 241
4 242 243 244 245
4 245 244 246 247
4 248 249 250 251
4 252 253 254 255
4 256 257 258 259
4 227 248 251 235
4 225 252 255 222
4 246 256 259 247
4 231 260 261 232
4 232 261 262 233
4 233 262 263 234
4 234 263 46 45
4 235 264 265 236
4 236 265 266 237
4 239 267 268 240
4 269 270 271 272
4 272 271 273 274
4 275 276 277 278
4 279 277 280 281
4 261 282 283 262
4 250 284 285 251
4 251 285 264 235
4 264 286 287 265
4 265 287 288 266
4 267 289 290 268
4 291 292 293 294
4 294 293 295 276
4 276 295 296 277
4 277 296 297 280
4 282 298 299 283
4 284 300 301 285
4 285 301 286 264
4 302 303 304 305
4 306 307 308 309
4 308 94 93 310
4 306 311 312 307
4 312 99 98 307
4 313 314 315 305
4 305 315 316 302
4 302 316 317 318
4 319 258 257 320
4 321 257 256 322
4 322 256 323 324
4 274 325 326 272
4 272 326 327 269
4 240 328 329 241
4 330 331 314 313
4 332 121 120 333
4 334 124 121 332
4 335 336 337 338
4 339 340 341 342
4 343 344 345 346
4 346 345 347 348
4 349 350 351 352
4 353 354 355 356
4 288 357 358 266
4 266 358 359 237
4 237 359 360 230
4 360 152 10 230
4 330 335 338 331
4 242 339 342 243
4 361 343 346 269
4 269 346 362 270
4 291 349 352 292
4 228 353 356 229
4 363 364 365 366
4 289 367 368 290
4 290 368 369 268
4 268 369 370 240
4 240 370 371 328
4 328 371 372 329
4 329 372 373 241
4 373 167 166 241
4 357 374 375 358
4 358 375 376 359
4 359 376 377 360
4 377 172 152 360
4 336 378 379 337
4 340 380 381 341
4 382 383 384 345
4 345 384 385 347
4 386 387 388 351
4 354 389 390 355
4 365 391 392 366
4 374 393 394 375
4 375 394 395 376
4 376 395 396 377
4 396 192 172 377
4 378 397 398 379
4 380 399 400 381
4 401 402 403 384
4 384 403 404 385
4 387 405 406 388
4 389 407 408 390
4 391 409 410 392
4 207 231 234 45
4 208 238 241 166
4 94 308 307 98
4 210 411 310 93
4 211 249 248 212
4 212 248 227 4
4 213 260 231 207
4 99 312 333 120
4 214 217 412 413
4 210 214 414 411
4 217 219 415 416
4 221 417 418 219
