ply
format ascii 1.0
comment Created by Blender 3.4.1 - www.blender.org
element vertex 36
property float x
property float y
property float z
property float nx
property float ny
property float nz
property float s
property float t
element face 18
property list uchar uint vertex_indices
end_header
-0.420420 -0.032714 0.096084 -0.555978 -0.620595 -0.552946 0.041484 0.544340
-0.420420 0.032073 0.095439 -0.576829 0.574731 -0.580476 0.041484 0.522855
0.861780 0.032073 0.095439 0.576829 0.574731 -0.580476 0.466673 0.522854
0.861780 -0.032714 0.096084 0.555887 -0.621447 -0.552081 0.466673 0.544339
-0.420420 -0.032713 1.547060 -0.555945 -0.617584 0.556340 0.041484 0.020000
0.861780 -0.032713 1.547060 0.555872 -0.618410 0.555495 0.466673 0.020000
0.861780 0.032073 1.547060 0.577350 0.577350 0.577350 0.466673 0.041483
-0.420420 0.032073 1.547060 -0.577350 0.577350 0.577350 0.041484 0.041484
-0.212339 0.026391 0.295085 0.489583 -0.735112 0.468955 0.043730 0.575495
0.658901 0.026391 0.295085 -0.445165 -0.760274 0.473087 0.332642 0.575495
0.658901 0.026391 1.344228 -0.449415 -0.785762 -0.424976 0.332642 0.923401
-0.212339 0.026391 1.344228 0.494959 -0.759525 -0.422064 0.043731 0.923401
0.861780 -0.032714 0.096084 0.555887 -0.621447 -0.552081 0.488157 0.522640
0.861780 -0.032713 1.547060 0.555872 -0.618410 0.555495 0.488157 0.041483
-0.420420 -0.032714 0.096084 -0.555978 -0.620595 -0.552946 0.020000 0.522641
-0.420420 -0.032713 1.547060 -0.555945 -0.617584 0.556340 0.020000 0.041484
-0.420420 -0.032714 0.096084 -0.555978 -0.620595 -0.552946 0.980000 0.539993
0.861780 -0.032714 0.096084 0.555887 -0.621447 -0.552081 0.979637 0.966795
0.702854 0.002677 0.253687 -0.082190 -0.993143 0.083135 0.926315 0.912945
-0.254633 0.002677 0.253687 0.078213 -0.993406 0.083833 0.926746 0.595969
0.861780 -0.032713 1.547060 0.555872 -0.618410 0.555495 0.497307 0.966089
0.702854 0.002677 1.384856 -0.082660 -0.993331 -0.080380 0.552146 0.912529
-0.420420 -0.032713 1.547060 -0.555945 -0.617584 0.556340 0.497568 0.539993
-0.254633 0.002677 1.384856 0.078664 -0.993600 -0.081059 0.552186 0.595844
0.669020 0.002677 0.286718 -0.198385 -0.961080 0.192272 0.915468 0.901791
-0.219433 0.002677 0.286718 0.207080 -0.955037 0.212182 0.915834 0.607582
0.669020 0.002677 1.355923 -0.178748 -0.966635 -0.183484 0.561646 0.901407
-0.219433 0.002677 1.355923 0.185358 -0.961881 -0.201063 0.561712 0.607454
-0.219433 0.002677 0.286718 0.207080 -0.955037 0.212182 0.041378 0.567157
0.669020 0.002677 0.286718 -0.198385 -0.961080 0.192272 0.335997 0.567157
0.669020 0.002677 0.286718 -0.198385 -0.961080 0.192272 0.341191 0.572721
0.669020 0.002677 1.355923 -0.178748 -0.966635 -0.183484 0.341191 0.927279
0.669020 0.002677 1.355923 -0.178748 -0.966635 -0.183484 0.335997 0.932169
-0.219433 0.002677 1.355923 0.185358 -0.961881 -0.201063 0.041378 0.932169
-0.219433 0.002677 1.355923 0.185358 -0.961881 -0.201063 0.035522 0.927279
-0.219433 0.002677 0.286718 0.207080 -0.955037 0.212182 0.035522 0.572721
4 0 1 2 3
4 4 5 6 7
4 8 9 10 11
4 12 2 6 13
4 2 1 7 6
4 1 14 15 7
4 16 17 18 19
4 17 20 21 18
4 20 22 23 21
4 22 16 19 23
4 19 18 24 25
4 18 21 26 24
4 21 23 27 26
4 23 19 25 27
4 28 29 9 8
4 30 31 10 9
4 32 33 11 10
4 34 35 8 11
