ply
format ascii 1.0
comment Created by Blender 3.4.1 - www.blender.org
element vertex 494
property float x
property float y
property float z
property float nx
property float ny
property float nz
property float s
property float t
element face 482
property list uchar uint vertex_indices
end_header
-2.898982 -3.817302 0.197556 0.000000 0.000000 1.000000 0.571752 0.199999
3.762072 -3.817302 0.197556 -0.000000 0.000000 1.000000 0.966996 0.199999
3.762072 3.582503 0.197556 0.000000 0.000000 1.000000 0.966996 0.639080
-2.898982 3.582503 0.197556 -0.000000 0.000000 1.000000 0.571752 0.639080
-3.446770 2.036823 6.511791 0.707107 0.000000 -0.707107 0.410469 0.155059
-3.446770 4.191045 6.511791 0.577350 -0.577350 -0.577350 0.538293 0.155059
-1.507612 4.191045 6.511791 0.000000 -0.707107 -0.707107 0.538293 0.270122
0.431545 4.191045 6.511791 0.000000 -0.707107 -0.707107 0.538293 0.385185
2.370703 4.191045 6.511791 0.000000 -0.707107 -0.707107 0.538293 0.500248
4.309859 4.191045 6.511791 0.000000 -0.707107 -0.707107 0.538293 0.615311
-3.446770 -0.117399 6.511791 0.707107 0.000000 -0.707107 0.282645 0.155059
-3.446770 -2.271621 6.511791 0.707107 0.000000 -0.707107 0.154820 0.155059
-3.446770 -4.425842 6.511791 0.707107 0.000000 -0.707107 0.026996 0.155059
4.309859 -4.425842 6.511791 0.000000 0.000000 -1.000000 0.026996 0.615311
-1.507612 4.191045 0.285047 0.000000 -0.851146 0.524930 0.646159 0.681365
-3.446770 4.191045 0.285047 0.631979 -0.595759 0.495655 0.530416 0.681365
-3.446770 4.191045 0.197556 0.577350 -0.577350 0.577350 0.530416 0.676142
0.431545 4.191045 0.285047 0.000000 -0.851146 0.524930 0.761902 0.681365
2.370703 4.191045 0.285047 0.000000 -0.851146 0.524929 0.877645 0.681365
4.309860 4.191045 0.285047 0.000000 -0.851146 0.524930 0.993388 0.681365
4.309860 4.191045 0.197556 0.000000 -0.707107 0.707107 0.993388 0.676142
-3.446770 -2.271622 0.285047 0.872556 0.000000 0.488515 0.010592 0.283714
-3.446770 -4.425843 0.285047 0.817701 0.348970 0.457804 0.010592 0.155059
-3.446770 -4.425843 0.197556 0.707109 0.000000 0.707105 0.015817 0.155059
-3.446770 -0.117399 0.285047 0.872556 0.000000 0.488515 0.010592 0.412368
-3.446770 2.036823 0.285047 0.872556 0.000000 0.488515 0.010592 0.541023
-3.446770 4.191045 0.285047 0.631979 -0.595759 0.495655 0.010592 0.669678
-3.446770 4.191045 0.197556 0.577350 -0.577350 0.577350 0.015817 0.669678
-3.446770 4.191045 0.197556 0.577350 -0.577350 0.577350 0.539248 0.675188
-3.446770 -4.425843 0.197556 0.707109 0.000000 0.707105 0.539248 0.163891
4.309860 -4.425843 0.197556 -0.000000 0.000000 1.000000 0.999500 0.163891
4.309860 4.191045 0.197556 0.000000 -0.707107 0.707107 0.999500 0.675188
0.431545 4.394691 4.062436 0.000000 -0.851144 -0.524932 0.119979 0.991978
0.431545 4.394691 0.387350 0.000000 -0.851146 0.524930 0.119979 0.773911
2.370703 4.394691 0.387350 0.000000 -0.851146 0.524930 0.235042 0.773911
2.370703 4.394691 4.062436 0.000000 -0.851144 -0.524932 0.235042 0.991978
-4.112443 0.015148 2.267616 0.577350 0.577350 0.577350 0.031189 0.688627
-4.112443 1.904275 2.267616 0.577350 -0.577350 0.577350 0.143835 0.688627
-4.112443 1.904275 3.046902 0.577350 -0.577350 -0.577350 0.143835 0.735095
-4.112443 0.015148 3.046902 0.577350 0.577350 -0.577350 0.031189 0.735095
-4.112443 -4.293296 2.267616 0.577350 0.577350 0.577350 0.031189 0.688627
-4.112443 -2.404170 2.267616 0.577350 -0.577350 0.577350 0.143835 0.688627
-4.112443 -2.404169 3.046902 0.577350 -0.577350 -0.577350 0.143835 0.735095
-4.112443 -4.293296 3.046903 0.577350 0.577350 -0.577350 0.031189 0.735095
-4.112444 -2.154258 2.267765 0.577350 0.577350 0.577350 0.031074 0.688723
-4.112444 -0.234763 2.267765 0.577350 -0.577350 0.577350 0.144550 0.688723
-4.112444 -0.234763 3.049768 0.577350 -0.577350 -0.577350 0.144550 0.734954
-4.112444 -2.154258 3.049768 0.577350 0.577350 -0.577350 0.031074 0.734954
-4.112444 4.073682 2.181171 0.577350 -0.577350 -0.577350 0.144144 0.734362
-4.112444 2.154186 2.181171 0.577350 0.577350 -0.577350 0.030880 0.734362
-4.112444 2.154186 1.400866 0.577350 0.577350 0.577350 0.030880 0.688318
-4.112444 4.073682 1.400866 0.577350 -0.577350 0.577350 0.144144 0.688318
-3.291530 4.777452 2.257653 0.577350 -0.577350 0.577350 0.641503 0.720990
-1.662852 4.777452 2.257653 -0.577350 -0.577350 0.577350 0.738383 0.720990
-1.662852 4.777452 3.057976 -0.577350 -0.577350 -0.577350 0.738383 0.768596
-3.291530 4.777452 3.057976 0.577350 -0.577350 -0.577350 0.641503 0.768596
-1.507612 4.394691 4.062436 0.000000 -0.851144 -0.524932 0.004916 0.991360
-1.507612 4.394691 0.387350 0.000000 -0.851145 0.524930 0.004916 0.773294
4.154620 4.777452 2.182910 -0.577350 -0.577350 -0.577350 0.738056 0.767963
2.525941 4.777452 2.182909 0.577350 -0.577350 -0.577350 0.641542 0.767946
2.525941 4.777452 1.401031 0.577350 -0.577350 0.577350 0.641550 0.721613
4.154620 4.777452 1.401032 -0.577350 -0.577350 0.577350 0.738064 0.721630
-4.112443 -4.293296 0.538823 0.577350 0.577350 0.577350 0.031189 0.688627
-4.112443 -2.404170 0.538823 0.577350 -0.577350 0.577350 0.143835 0.688627
-4.112443 -2.404170 1.316766 0.577350 -0.577350 -0.577350 0.143835 0.735015
-4.112443 -4.293296 1.316766 0.577350 0.577350 -0.577350 0.031189 0.735015
-4.112443 -4.293296 1.403729 0.577350 0.577350 0.577350 0.031501 0.688132
-4.112443 -2.404170 1.403729 0.577350 -0.577350 0.577350 0.144009 0.688132
-4.112443 -2.404170 2.181323 0.577350 -0.577350 -0.577350 0.144009 0.734442
-4.112443 -4.293296 2.181324 0.577350 0.577350 -0.577350 0.031501 0.734442
-4.112443 -2.404169 3.907814 0.577350 -0.577350 -0.577350 0.143835 0.734639
-4.112443 -4.293296 3.907814 0.577350 0.577350 -0.577350 0.031189 0.734639
-4.112443 -4.293296 3.136167 0.577350 0.577350 0.577350 0.031189 0.688627
-4.112443 -2.404169 3.136167 0.577350 -0.577350 0.577350 0.143835 0.688627
-4.112444 -2.154258 0.532944 0.577350 0.577350 0.577350 0.029875 0.689397
-4.112444 -0.234763 0.532944 0.577350 -0.577350 0.577350 0.143393 0.688303
-4.112444 -0.234763 1.313599 0.577350 -0.577350 -0.577350 0.143838 0.734470
-4.112444 -2.154258 1.313599 0.577350 0.577350 -0.577350 0.030320 0.735565
-4.112444 -2.154258 1.400866 0.577350 0.577350 0.577350 0.031085 0.688741
-4.112444 -0.234763 1.400866 0.577350 -0.577350 0.577350 0.144621 0.688741
-4.112444 -0.234763 2.181171 0.577350 -0.577350 -0.577350 0.144621 0.734895
-4.112444 -2.154258 2.181172 0.577350 0.577350 -0.577350 0.031085 0.734895
-4.112444 -0.234763 3.913682 0.577350 -0.577350 -0.577350 0.144144 0.734010
-4.112444 -2.154258 3.913682 0.577350 0.577350 -0.577350 0.030880 0.734010
-4.112444 -2.154258 3.139345 0.577350 0.577350 0.577350 0.030880 0.688318
-4.112444 -0.234763 3.139345 0.577350 -0.577350 0.577350 0.144144 0.688318
-4.112443 0.015148 0.538823 0.577350 0.577350 0.577350 0.031189 0.688627
-4.112443 1.904275 0.538823 0.577350 -0.577350 0.577350 0.143835 0.688627
-4.112443 1.904275 1.316766 0.577350 -0.577350 -0.577350 0.143835 0.735015
-4.112443 0.015148 1.316766 0.577350 0.577350 -0.577350 0.031189 0.735015
-4.112443 0.015148 1.403729 0.577350 0.577350 0.577350 0.030986 0.688100
-4.112443 1.904275 1.403729 0.577350 -0.577350 0.577350 0.143648 0.688100
-4.112443 1.904275 2.181323 0.577350 -0.577350 -0.577350 0.143648 0.734474
-4.112443 0.015148 2.181324 0.577350 0.577350 -0.577350 0.030986 0.734474
-4.112443 1.904275 3.907814 0.577350 -0.577350 -0.577350 0.143835 0.734639
-4.112443 0.015148 3.907814 0.577350 0.577350 -0.577350 0.031189 0.734639
-4.112443 0.015148 3.136167 0.577350 0.577350 0.577350 0.031189 0.688627
-4.112443 1.904275 3.136167 0.577350 -0.577350 0.577350 0.143835 0.688627
-4.112444 4.073682 3.913682 0.577350 -0.577350 -0.577350 0.144144 0.734010
-4.112444 2.154186 3.913682 0.577350 0.577350 -0.577350 0.030880 0.734010
-4.112444 2.154186 3.139345 0.577350 0.577350 0.577350 0.030880 0.688318
-4.112444 4.073682 3.139345 0.577350 -0.577350 0.577350 0.144144 0.688318
-4.112444 4.073682 3.049768 0.577350 -0.577350 -0.577350 0.144144 0.734462
-4.112444 2.154186 3.049768 0.577350 0.577350 -0.577350 0.030880 0.734462
-4.112444 2.154186 2.267765 0.577350 0.577350 0.577350 0.030880 0.688318
-4.112444 4.073682 2.267765 0.577350 -0.577350 0.577350 0.144144 0.688318
-4.112444 2.154186 0.532944 0.577351 0.577350 0.577350 0.030880 0.688318
-4.112444 4.073682 0.532943 0.577350 -0.577350 0.577350 0.144144 0.688318
-4.112444 4.073682 1.313599 0.577350 -0.577350 -0.577350 0.144144 0.734382
-4.112444 2.154186 1.313599 0.577350 0.577350 -0.577350 0.030880 0.734382
-3.615745 -2.271622 4.061132 0.872556 0.000000 -0.488515 0.773294 0.945278
-3.615745 -4.425843 4.061132 0.690124 0.611917 -0.386375 0.773294 0.817453
-3.615745 -4.293296 3.907814 0.904534 0.301511 -0.301511 0.782391 0.825318
-3.615745 -2.404169 3.907814 0.904534 -0.301511 -0.301511 0.782391 0.937413
-3.615745 -0.117399 4.061132 0.872555 -0.000000 -0.488515 0.773294 0.945278
-3.615745 -2.271622 4.061132 0.872556 0.000000 -0.488515 0.773294 0.817453
-3.615746 -2.154258 3.913682 0.904533 0.301513 -0.301512 0.782043 0.824417
-3.615746 -0.234763 3.913682 0.904533 -0.301513 -0.301512 0.782043 0.938314
-3.615745 2.036823 4.061132 0.872556 0.000000 -0.488514 0.991265 0.817658
-3.615745 -0.117399 4.061132 0.872555 -0.000000 -0.488515 0.991265 0.945482
-3.615745 0.015148 3.907814 0.904534 0.301511 -0.301511 0.982167 0.937617
-3.615745 1.904275 3.907814 0.904534 -0.301511 -0.301511 0.982167 0.825523
-3.615745 4.191045 4.061132 0.690122 -0.611919 -0.386377 0.773294 0.945278
-3.615745 2.036823 4.061132 0.872556 0.000000 -0.488514 0.773294 0.817453
-3.615746 2.154186 3.913682 0.904533 0.301513 -0.301512 0.782043 0.824417
-3.615746 4.073682 3.913682 0.904533 -0.301513 -0.301512 0.782043 0.938314
-3.615745 0.015148 3.136167 0.904534 0.301511 0.301511 0.936380 0.937617
-3.615745 0.015148 3.046902 -0.577266 0.577393 -0.577393 0.931084 0.937617
-3.615745 1.904275 3.046902 0.904534 -0.301511 -0.301511 0.931084 0.825523
-3.615745 1.904275 3.136167 0.577350 -0.577350 0.577350 0.936380 0.825523
-3.615746 -2.154258 3.139345 0.904533 0.301514 0.301511 0.827990 0.824417
-3.615746 -2.154258 3.049768 0.904534 0.301511 -0.301511 0.833305 0.824417
-3.615746 -0.234763 3.049768 0.904533 -0.301514 -0.301511 0.833305 0.938314
-3.615746 -0.234763 3.139345 0.904534 -0.301511 0.301511 0.827990 0.938314
-3.615746 2.154186 3.139345 0.904533 0.301514 0.301511 0.827990 0.824417
-3.615746 2.154186 3.049768 0.904534 0.301511 -0.301511 0.833305 0.824417
-3.615746 4.073682 3.049768 0.904533 -0.301513 -0.301511 0.833305 0.938314
-3.615746 4.073682 3.139345 0.577350 -0.577350 0.577350 0.827990 0.938314
-3.615746 4.073682 2.267765 0.577351 -0.577350 0.577350 0.879706 0.938314
-3.615746 2.154186 2.267765 -0.577350 0.577350 0.577350 0.879706 0.824417
-3.615746 2.154186 2.181171 0.904533 0.301513 -0.301511 0.884844 0.824417
-3.615746 4.073682 2.181171 0.904533 -0.301514 -0.301511 0.884844 0.938314
-3.615745 -2.404170 2.267616 0.904534 -0.301511 0.301511 0.879715 0.937413
-3.615745 -4.293296 2.267616 0.904534 0.301511 0.301511 0.879715 0.825318
-3.615745 -4.293296 2.181324 0.577351 0.577350 -0.577350 0.884835 0.825318
-3.615745 -2.404170 2.181323 0.577350 -0.577351 -0.577350 0.884836 0.937413
-3.615746 -0.234763 2.267765 0.904533 -0.301514 0.301511 0.879706 0.938314
-3.615746 -2.154258 2.267765 0.904534 0.301514 0.301511 0.879706 0.824417
-3.615746 -2.154258 2.181172 0.577351 0.577350 -0.577350 0.884844 0.824417
-3.615746 -0.234763 2.181171 -0.577350 -0.577350 -0.577350 0.884844 0.938314
-3.615745 1.904275 2.267616 0.904534 -0.301511 0.301511 0.884843 0.825523
-3.615745 0.015148 2.267616 0.904522 0.301529 0.301529 0.884843 0.937617
-3.615745 0.015148 2.181324 0.904534 0.301511 -0.301511 0.879723 0.937617
-3.615745 1.904275 2.181323 0.577350 -0.577350 -0.577350 0.879723 0.825523
-3.615745 -4.425843 0.388652 0.690123 0.611918 0.386376 0.991207 0.817453
-3.615745 -2.271622 0.388652 0.872555 0.000001 0.488515 0.991207 0.945278
-3.615745 -2.404170 0.538823 0.904534 -0.301511 0.301511 0.982296 0.937413
-3.615745 -4.293296 0.538823 0.904534 0.301511 0.301511 0.982296 0.825318
-3.615745 -2.404169 3.136167 0.904534 -0.301511 0.301511 0.828178 0.937413
-3.615745 -2.404169 3.046902 0.904534 -0.301511 -0.301511 0.833475 0.937413
-3.615745 -2.404170 1.403729 0.577350 -0.577350 0.577350 0.930975 0.937413
-3.615745 -2.404170 1.316766 0.904534 -0.301511 -0.301511 0.936136 0.937413
-3.615745 -4.293296 1.403729 0.904534 0.301511 0.301511 0.930975 0.825318
-3.615745 -4.293296 1.316766 0.577350 0.577350 -0.577350 0.936136 0.825318
-3.615745 -4.293296 3.136167 0.904534 0.301511 0.301511 0.828178 0.825318
-3.615745 -4.293296 3.046903 0.904534 0.301511 -0.301511 0.833475 0.825318
-3.615745 -2.271622 0.388652 0.872555 0.000001 0.488515 0.991207 0.817453
-3.615745 -0.117399 0.388652 0.872556 -0.000000 0.488514 0.991207 0.945278
-3.615746 -0.234763 0.532944 0.904533 -0.301513 0.301512 0.982645 0.938314
-3.615746 -2.154258 0.532944 0.904533 0.301513 0.301512 0.982645 0.824417
-3.615746 -0.234763 1.400866 0.904522 -0.301530 0.301529 0.931145 0.938314
-3.615746 -0.234763 1.313599 0.904545 -0.301495 -0.301493 0.936323 0.938314
-3.615746 -2.154258 1.400866 0.904533 0.301514 0.301511 0.931145 0.824417
-3.615746 -2.154258 1.313599 0.577350 0.577350 -0.577350 0.936323 0.824417
-3.615745 -0.117399 0.388652 0.872556 -0.000000 0.488514 0.773352 0.945482
-3.615745 2.036823 0.388652 0.872556 0.000001 0.488515 0.773352 0.817658
-3.615745 1.904275 0.538823 0.904534 -0.301511 0.301511 0.782262 0.825523
-3.615745 0.015148 0.538823 0.904522 0.301530 0.301529 0.782262 0.937617
-3.615745 1.904275 1.403729 0.577350 -0.577350 0.577350 0.833583 0.825523
-3.615745 1.904275 1.316766 0.904534 -0.301511 -0.301511 0.828423 0.825523
-3.615745 0.015148 1.403729 0.904534 0.301511 0.301511 0.833583 0.937617
-3.615745 0.015148 1.316766 -0.577266 0.577393 -0.577393 0.828423 0.937617
-3.615745 4.191045 0.388652 0.690121 -0.611919 0.386377 0.991207 0.945278
-3.615746 4.073682 1.400866 0.577350 -0.577350 0.577350 0.931145 0.938314
-3.615746 4.073682 1.313599 0.904533 -0.301514 -0.301511 0.936323 0.938314
-3.615746 4.073682 0.532943 0.904533 -0.301513 0.301512 0.982645 0.938314
-3.615746 2.154186 1.400866 0.904533 0.301514 0.301511 0.931145 0.824417
-3.615746 2.154186 1.313599 0.577351 0.577350 -0.577350 0.936323 0.824417
-3.615745 2.036823 0.388652 0.872556 0.000001 0.488515 0.991207 0.817453
-3.615746 2.154186 0.532944 0.904533 0.301513 0.301512 0.982645 0.824417
-3.615745 0.015148 3.046902 -0.577266 0.577393 -0.577393 0.001571 0.735095
-3.615745 0.015148 2.267616 0.904522 0.301529 0.301529 0.001571 0.688627
-3.615745 0.015148 2.267616 0.904522 0.301529 0.301529 0.031189 0.659010
-3.615745 1.904275 2.267616 0.904534 -0.301511 0.301511 0.143835 0.659010
-3.615745 1.904275 2.267616 0.904534 -0.301511 0.301511 0.173453 0.688627
-3.615745 1.904275 3.046902 0.904534 -0.301511 -0.301511 0.173453 0.735095
-3.615745 1.904275 3.046902 0.904534 -0.301511 -0.301511 0.143835 0.764712
-3.615745 0.015148 3.046902 -0.577266 0.577393 -0.577393 0.031189 0.764712
-3.615745 -4.293296 3.046903 0.904534 0.301511 -0.301511 0.001571 0.735095
-3.615745 -4.293296 2.267616 0.904534 0.301511 0.301511 0.001571 0.688627
-3.615745 -4.293296 2.267616 0.904534 0.301511 0.301511 0.031189 0.659010
-3.615745 -2.404170 2.267616 0.904534 -0.301511 0.301511 0.143835 0.659010
-3.615745 -2.404170 2.267616 0.904534 -0.301511 0.301511 0.173453 0.688627
-3.615745 -2.404169 3.046902 0.904534 -0.301511 -0.301511 0.173453 0.735095
-3.615745 -2.404169 3.046902 0.904534 -0.301511 -0.301511 0.143835 0.764712
-3.615745 -4.293296 3.046903 0.904534 0.301511 -0.301511 0.031189 0.764712
-3.615746 -2.154258 3.049768 0.904534 0.301511 -0.301511 0.001710 0.734954
-3.615746 -2.154258 2.267765 0.904534 0.301514 0.301511 0.001710 0.688723
-3.615746 -2.154258 2.267765 0.904534 0.301514 0.301511 0.031074 0.659360
-3.615746 -0.234763 2.267765 0.904533 -0.301514 0.301511 0.144550 0.659360
-3.615746 -0.234763 2.267765 0.904533 -0.301514 0.301511 0.173913 0.688723
-3.615746 -0.234763 3.049768 0.904533 -0.301514 -0.301511 0.173913 0.734953
-3.615746 -0.234763 3.049768 0.904533 -0.301514 -0.301511 0.144550 0.764317
-3.615746 -2.154258 3.049768 0.904534 0.301511 -0.301511 0.031074 0.764317
-3.615746 4.073682 1.400866 0.577350 -0.577350 0.577350 0.173453 0.688318
-3.615746 4.073682 2.181171 0.904533 -0.301514 -0.301511 0.173453 0.734362
-3.615746 4.073682 2.181171 0.904533 -0.301514 -0.301511 0.144144 0.763670
-3.615746 2.154186 2.181171 0.904533 0.301513 -0.301511 0.030880 0.763670
-3.615746 2.154186 2.181171 0.904533 0.301513 -0.301511 0.001571 0.734362
-3.615746 2.154186 1.400866 0.904533 0.301514 0.301511 0.001571 0.688318
-3.615746 2.154186 1.400866 0.904533 0.301514 0.301511 0.030880 0.659010
-3.615746 4.073682 1.400866 0.577350 -0.577350 0.577350 0.144144 0.659010
-3.615745 -4.293296 0.538823 0.904534 0.301511 0.301511 0.031189 0.659010
-3.615745 -2.404170 0.538823 0.904534 -0.301511 0.301511 0.143835 0.659010
-3.615745 -2.404170 0.538823 0.904534 -0.301511 0.301511 0.173453 0.688627
-3.615745 -2.404170 1.316766 0.904534 -0.301511 -0.301511 0.173453 0.735015
-3.615745 -2.404170 1.316766 0.904534 -0.301511 -0.301511 0.143835 0.764632
-3.615745 -4.293296 1.316766 0.577350 0.577350 -0.577350 0.031189 0.764632
-3.615745 -4.293296 1.316766 0.577350 0.577350 -0.577350 0.001571 0.735015
-3.615745 -4.293296 0.538823 0.904534 0.301511 0.301511 0.001571 0.688627
-3.615745 -4.293296 2.181324 0.577351 0.577350 -0.577350 0.001920 0.734442
-3.615745 -4.293296 1.403729 0.904534 0.301511 0.301511 0.001920 0.688132
-3.615745 -4.293296 1.403729 0.904534 0.301511 0.301511 0.031501 0.658551
-3.615745 -2.404170 1.403729 0.577350 -0.577350 0.577350 0.144009 0.658551
-3.615745 -2.404170 1.403729 0.577350 -0.577350 0.577350 0.173589 0.688132
-3.615745 -2.404170 2.181323 0.577350 -0.577351 -0.577350 0.173589 0.734442
-3.615745 -2.404170 2.181323 0.577350 -0.577351 -0.577350 0.144009 0.764023
-3.615745 -4.293296 2.181324 0.577351 0.577350 -0.577350 0.031501 0.764023
-3.615745 -2.404169 3.907814 0.904534 -0.301511 -0.301511 0.143835 0.764257
-3.615745 -4.293296 3.907814 0.904534 0.301511 -0.301511 0.031189 0.764257
-3.615745 -4.293296 3.907814 0.904534 0.301511 -0.301511 0.001571 0.734639
-3.615745 -4.293296 3.136167 0.904534 0.301511 0.301511 0.001571 0.688627
-3.615745 -4.293296 3.136167 0.904534 0.301511 0.301511 0.031189 0.659010
-3.615745 -2.404169 3.136167 0.904534 -0.301511 0.301511 0.143835 0.659010
-3.615745 -2.404169 3.136167 0.904534 -0.301511 0.301511 0.173453 0.688627
-3.615745 -2.404169 3.907814 0.904534 -0.301511 -0.301511 0.173453 0.734639
-3.615746 -2.154258 0.532944 0.904533 0.301513 0.301512 0.029591 0.660023
-3.615746 -0.234763 0.532944 0.904533 -0.301513 0.301512 0.143110 0.658928
-3.615746 -0.234763 0.532944 0.904533 -0.301513 0.301512 0.172768 0.688019
-3.615746 -0.234763 1.313599 0.904545 -0.301495 -0.301493 0.173213 0.734187
-3.615746 -0.234763 1.313599 0.904545 -0.301495 -0.301493 0.144121 0.763845
-3.615746 -2.154258 1.313599 0.577350 0.577350 -0.577350 0.030603 0.764940
-3.615746 -2.154258 1.313599 0.577350 0.577350 -0.577350 0.000945 0.735848
-3.615746 -2.154258 0.532944 0.904533 0.301513 0.301512 0.000500 0.689681
-3.615746 -2.154258 2.181172 0.577351 0.577350 -0.577350 0.001706 0.734895
-3.615746 -2.154258 1.400866 0.904533 0.301514 0.301511 0.001706 0.688741
-3.615746 -2.154258 1.400866 0.904533 0.301514 0.301511 0.031085 0.659362
-3.615746 -0.234763 1.400866 0.904522 -0.301530 0.301529 0.144621 0.659362
-3.615746 -0.234763 1.400866 0.904522 -0.301530 0.301529 0.174000 0.688741
-3.615746 -0.234763 2.181171 -0.577350 -0.577350 -0.577350 0.174000 0.734895
-3.615746 -0.234763 2.181171 -0.577350 -0.577350 -0.577350 0.144621 0.764274
-3.615746 -2.154258 2.181172 0.577351 0.577350 -0.577350 0.031085 0.764274
-3.615746 -0.234763 3.913682 0.904533 -0.301513 -0.301512 0.144144 0.763318
-3.615746 -2.154258 3.913682 0.904533 0.301513 -0.301512 0.030880 0.763318
-3.615746 -2.154258 3.913682 0.904533 0.301513 -0.301512 0.001571 0.734010
-3.615746 -2.154258 3.139345 0.904533 0.301514 0.301511 0.001571 0.688318
-3.615746 -2.154258 3.139345 0.904533 0.301514 0.301511 0.030880 0.659010
-3.615746 -0.234763 3.139345 0.904534 -0.301511 0.301511 0.144144 0.659010
-3.615746 -0.234763 3.139345 0.904534 -0.301511 0.301511 0.173453 0.688318
-3.615746 -0.234763 3.913682 0.904533 -0.301513 -0.301512 0.173453 0.734010
-3.615745 0.015148 0.538823 0.904522 0.301530 0.301529 0.031189 0.659010
-3.615745 1.904275 0.538823 0.904534 -0.301511 0.301511 0.143835 0.659010
-3.615745 1.904275 0.538823 0.904534 -0.301511 0.301511 0.173453 0.688627
-3.615745 1.904275 1.316766 0.904534 -0.301511 -0.301511 0.173453 0.735015
-3.615745 1.904275 1.316766 0.904534 -0.301511 -0.301511 0.143835 0.764632
-3.615745 0.015148 1.316766 -0.577266 0.577393 -0.577393 0.031189 0.764632
-3.615745 0.015148 1.316766 -0.577266 0.577393 -0.577393 0.001571 0.735015
-3.615745 0.015148 0.538823 0.904522 0.301530 0.301529 0.001571 0.688627
-3.615745 0.015148 2.181324 0.904534 0.301511 -0.301511 0.001365 0.734474
-3.615745 0.015148 1.403729 0.904534 0.301511 0.301511 0.001365 0.688100
-3.615745 0.015148 1.403729 0.904534 0.301511 0.301511 0.030986 0.658479
-3.615745 1.904275 1.403729 0.577350 -0.577350 0.577350 0.143648 0.658479
-3.615745 1.904275 1.403729 0.577350 -0.577350 0.577350 0.173270 0.688100
-3.615745 1.904275 2.181323 0.577350 -0.577350 -0.577350 0.173270 0.734474
-3.615745 1.904275 2.181323 0.577350 -0.577350 -0.577350 0.143648 0.764095
-3.615745 0.015148 2.181324 0.904534 0.301511 -0.301511 0.030986 0.764095
-3.615745 1.904275 3.907814 0.904534 -0.301511 -0.301511 0.143835 0.764257
-3.615745 0.015148 3.907814 0.904534 0.301511 -0.301511 0.031189 0.764257
-3.615745 0.015148 3.907814 0.904534 0.301511 -0.301511 0.001571 0.734639
-3.615745 0.015148 3.136167 0.904534 0.301511 0.301511 0.001571 0.688627
-3.615745 0.015148 3.136167 0.904534 0.301511 0.301511 0.031189 0.659010
-3.615745 1.904275 3.136167 0.577350 -0.577350 0.577350 0.143835 0.659010
-3.615745 1.904275 3.136167 0.577350 -0.577350 0.577350 0.173453 0.688627
-3.615745 1.904275 3.907814 0.904534 -0.301511 -0.301511 0.173453 0.734639
-3.615746 4.073682 3.913682 0.904533 -0.301513 -0.301512 0.144144 0.763318
-3.615746 2.154186 3.913682 0.904533 0.301513 -0.301512 0.030880 0.763318
-3.615746 2.154186 3.913682 0.904533 0.301513 -0.301512 0.001571 0.734010
-3.615746 2.154186 3.139345 0.904533 0.301514 0.301511 0.001571 0.688318
-3.615746 2.154186 3.139345 0.904533 0.301514 0.301511 0.030880 0.659010
-3.615746 4.073682 3.139345 0.577350 -0.577350 0.577350 0.144144 0.659010
-3.615746 4.073682 3.139345 0.577350 -0.577350 0.577350 0.173453 0.688318
-3.615746 4.073682 3.913682 0.904533 -0.301513 -0.301512 0.173453 0.734010
-3.615746 4.073682 2.267765 0.577351 -0.577350 0.577350 0.173453 0.688318
-3.615746 4.073682 3.049768 0.904533 -0.301513 -0.301511 0.173453 0.734462
-3.615746 4.073682 3.049768 0.904533 -0.301513 -0.301511 0.144144 0.763771
-3.615746 2.154186 3.049768 0.904534 0.301511 -0.301511 0.030880 0.763771
-3.615746 2.154186 3.049768 0.904534 0.301511 -0.301511 0.001571 0.734462
-3.615746 2.154186 2.267765 -0.577350 0.577350 0.577350 0.001571 0.688318
-3.615746 2.154186 2.267765 -0.577350 0.577350 0.577350 0.030880 0.659010
-3.615746 4.073682 2.267765 0.577351 -0.577350 0.577350 0.144144 0.659010
-3.615746 4.073682 0.532943 0.904533 -0.301513 0.301512 0.173453 0.688318
-3.615746 4.073682 1.313599 0.904533 -0.301514 -0.301511 0.173453 0.734382
-3.615746 4.073682 1.313599 0.904533 -0.301514 -0.301511 0.144144 0.763691
-3.615746 2.154186 1.313599 0.577351 0.577350 -0.577350 0.030880 0.763691
-3.615746 2.154186 1.313599 0.577351 0.577350 -0.577350 0.001571 0.734382
-3.615746 2.154186 0.532944 0.904533 0.301513 0.301512 0.001571 0.688318
-3.615746 2.154186 0.532944 0.904533 0.301513 0.301512 0.030880 0.659010
-3.615746 4.073682 0.532943 0.904533 -0.301513 0.301512 0.144144 0.659010
-3.291530 4.777452 0.534647 0.577350 -0.577350 0.577350 0.641584 0.721591
-1.662852 4.777452 0.534647 -0.577350 -0.577350 0.577350 0.738061 0.721591
-1.662852 4.777452 1.317605 -0.577350 -0.577350 -0.577350 0.738061 0.767971
-3.291530 4.777452 1.317605 0.577350 -0.577350 -0.577350 0.641584 0.767971
-3.291530 4.777452 1.401031 0.577350 -0.577350 0.577350 0.738258 0.767840
-1.662852 4.777452 1.401032 -0.577350 -0.577350 0.577350 0.641935 0.767840
-1.662852 4.777452 2.182909 -0.577350 -0.577350 -0.577350 0.641935 0.721598
-3.291530 4.777452 2.182909 0.577350 -0.577350 -0.577350 0.738258 0.721598
-1.662852 4.777452 3.918330 -0.577350 -0.577350 -0.577350 0.738383 0.767943
-3.291530 4.777452 3.918330 0.577350 -0.577350 -0.577350 0.641503 0.767943
-3.291530 4.777452 3.128989 0.577350 -0.577350 0.577350 0.641503 0.720990
-1.662852 4.777452 3.128989 -0.577350 -0.577350 0.577350 0.738383 0.720990
4.154620 4.777452 3.918330 -0.577350 -0.577350 -0.577350 0.738383 0.767943
2.525941 4.777452 3.918330 0.577350 -0.577350 -0.577350 0.641503 0.767943
2.525941 4.777452 3.128989 0.577350 -0.577350 0.577350 0.641503 0.720990
4.154620 4.777452 3.128989 -0.577350 -0.577350 0.577350 0.738383 0.720990
4.154620 4.777452 3.057976 -0.577350 -0.577350 -0.577350 0.738383 0.768596
2.525941 4.777452 3.057976 0.577350 -0.577350 -0.577350 0.641503 0.768596
2.525941 4.777452 2.257653 0.577350 -0.577350 0.577350 0.641503 0.720990
4.154620 4.777452 2.257653 -0.577350 -0.577350 0.577350 0.738383 0.720990
2.525941 4.777452 0.534647 0.577350 -0.577350 0.577350 0.641480 0.721791
4.154620 4.777452 0.534647 -0.577350 -0.577350 0.577350 0.737766 0.721791
4.154620 4.777452 1.317605 -0.577350 -0.577350 -0.577350 0.737766 0.768078
2.525941 4.777452 1.317605 0.577350 -0.577350 -0.577350 0.641480 0.768078
-1.507612 4.394691 4.062436 0.000000 -0.851144 -0.524932 0.773294 0.813286
-3.446769 4.394691 4.062436 0.605860 -0.677146 -0.417621 0.773294 0.698222
-3.291530 4.394691 3.918330 0.301511 -0.904534 -0.301511 0.781844 0.707434
-1.662852 4.394691 3.918330 -0.301511 -0.904534 -0.301511 0.781844 0.804074
4.309860 4.394691 4.062436 0.000000 -0.851144 -0.524932 0.773294 0.813390
2.370703 4.394691 4.062436 0.000000 -0.851144 -0.524932 0.773294 0.698327
2.525941 4.394691 3.918330 0.301511 -0.904534 -0.301511 0.781844 0.707539
4.154620 4.394691 3.918330 -0.301511 -0.904534 -0.301511 0.781844 0.804179
-1.662852 4.394691 3.128989 -0.577350 -0.577350 0.577350 0.828681 0.804074
-3.291530 4.394691 3.128989 0.577350 -0.577350 0.577350 0.828681 0.707434
-3.291530 4.394691 3.057976 0.301511 -0.904534 -0.301511 0.832895 0.707434
-1.662852 4.394691 3.057976 -0.301511 -0.904534 -0.301511 0.832895 0.804074
4.154620 4.394691 3.128989 -0.577350 -0.577350 0.577350 0.828681 0.804179
2.525941 4.394691 3.128989 0.577350 -0.577350 0.577350 0.828681 0.707539
2.525941 4.394691 3.057976 0.301511 -0.904534 -0.301511 0.832895 0.707539
4.154620 4.394691 3.057976 -0.301511 -0.904534 -0.301511 0.832895 0.804179
4.154620 4.394691 2.257653 -0.577350 -0.577350 0.577350 0.880383 0.804179
2.525941 4.394691 2.257653 0.577350 -0.577350 0.577350 0.880383 0.707539
2.525941 4.394691 2.182909 0.301511 -0.904534 -0.301511 0.884818 0.707539
4.154620 4.394691 2.182910 -0.301511 -0.904534 -0.301511 0.884818 0.804179
-1.662852 4.394691 2.257653 -0.577350 -0.577350 0.577350 0.880383 0.804074
-3.291530 4.394691 2.257653 0.577350 -0.577350 0.577350 0.880383 0.707434
-3.291530 4.394691 2.182909 0.301511 -0.904534 -0.301511 0.884818 0.707434
-1.662852 4.394691 2.182909 -0.301511 -0.904534 -0.301511 0.884818 0.804074
-3.446769 4.394691 0.387350 0.605860 -0.677147 0.417619 0.991361 0.698222
-1.507612 4.394691 0.387350 0.000000 -0.851145 0.524930 0.991361 0.813286
-1.662852 4.394691 0.534647 -0.301511 -0.904534 0.301511 0.982621 0.804074
-3.291530 4.394691 0.534647 0.301511 -0.904534 0.301511 0.982621 0.707434
-1.662852 4.394691 1.401032 -0.577350 -0.577350 0.577350 0.931212 0.804074
-1.662852 4.394691 1.317605 -0.301511 -0.904534 -0.301511 0.936163 0.804074
-3.291530 4.394691 1.401031 0.577350 -0.577350 0.577350 0.931212 0.707434
-3.291530 4.394691 1.317605 0.301511 -0.904534 -0.301511 0.936163 0.707434
4.309860 4.394691 0.387350 0.000000 -0.851145 0.524930 0.991361 0.813391
4.154620 4.394691 1.401032 -0.577350 -0.577351 0.577350 0.931212 0.804179
4.154620 4.394691 1.317605 -0.301511 -0.904534 -0.301511 0.936163 0.804179
4.154620 4.394691 0.534647 -0.301511 -0.904534 0.301511 0.982621 0.804179
2.525941 4.394691 1.401031 0.577350 -0.577350 0.577350 0.931212 0.707539
2.525941 4.394691 1.317605 0.301511 -0.904534 -0.301511 0.936163 0.707539
2.370703 4.394691 0.387350 0.000000 -0.851146 0.524930 0.991361 0.698327
2.525941 4.394691 0.534647 0.301511 -0.904534 0.301511 0.982621 0.707539
-3.291530 4.394691 3.057976 0.301511 -0.904534 -0.301511 0.618735 0.768596
-3.291530 4.394691 2.257653 0.577350 -0.577350 0.577350 0.618735 0.720990
-3.291530 4.394691 2.257653 0.577350 -0.577350 0.577350 0.641503 0.698222
-1.662852 4.394691 2.257653 -0.577350 -0.577350 0.577350 0.738383 0.698222
-1.662852 4.394691 2.257653 -0.577350 -0.577350 0.577350 0.761150 0.720990
-1.662852 4.394691 3.057976 -0.301511 -0.904534 -0.301511 0.761150 0.768596
-1.662852 4.394691 3.057976 -0.301511 -0.904534 -0.301511 0.738383 0.791364
-3.291530 4.394691 3.057976 0.301511 -0.904534 -0.301511 0.641503 0.791364
4.154620 4.394691 1.401032 -0.577350 -0.577351 0.577350 0.760746 0.721634
4.154620 4.394691 2.182910 -0.301511 -0.904534 -0.301511 0.760738 0.767967
4.154620 4.394691 2.182910 -0.301511 -0.904534 -0.301511 0.738052 0.790645
2.525941 4.394691 2.182909 0.301511 -0.904534 -0.301511 0.641538 0.790628
2.525941 4.394691 2.182909 0.301511 -0.904534 -0.301511 0.618860 0.767942
2.525941 4.394691 1.401031 0.577350 -0.577350 0.577350 0.618868 0.721609
2.525941 4.394691 1.401031 0.577350 -0.577350 0.577350 0.641554 0.698931
4.154620 4.394691 1.401032 -0.577350 -0.577351 0.577350 0.738068 0.698948
-3.291530 4.394691 0.534647 0.301511 -0.904534 0.301511 0.641584 0.698918
-1.662852 4.394691 0.534647 -0.301511 -0.904534 0.301511 0.738061 0.698918
-1.662852 4.394691 0.534647 -0.301511 -0.904534 0.301511 0.760734 0.721591
-1.662852 4.394691 1.317605 -0.301511 -0.904534 -0.301511 0.760734 0.767971
-1.662852 4.394691 1.317605 -0.301511 -0.904534 -0.301511 0.738061 0.790644
-3.291530 4.394691 1.317605 0.301511 -0.904534 -0.301511 0.641584 0.790644
-3.291530 4.394691 1.317605 0.301511 -0.904534 -0.301511 0.618911 0.767971
-3.291530 4.394691 0.534647 0.301511 -0.904534 0.301511 0.618911 0.721591
-3.291530 4.394691 2.182909 0.301511 -0.904534 -0.301511 0.760895 0.721598
-3.291530 4.394691 1.401031 0.577350 -0.577350 0.577350 0.760895 0.767840
-3.291530 4.394691 1.401031 0.577350 -0.577350 0.577350 0.738258 0.790477
-1.662852 4.394691 1.401032 -0.577350 -0.577350 0.577350 0.641935 0.790477
-1.662852 4.394691 1.401032 -0.577350 -0.577350 0.577350 0.619298 0.767840
-1.662852 4.394691 2.182909 -0.301511 -0.904534 -0.301511 0.619298 0.721598
-1.662852 4.394691 2.182909 -0.301511 -0.904534 -0.301511 0.641935 0.698961
-3.291530 4.394691 2.182909 0.301511 -0.904534 -0.301511 0.738258 0.698961
-1.662852 4.394691 3.918330 -0.301511 -0.904534 -0.301511 0.738383 0.790711
-3.291530 4.394691 3.918330 0.301511 -0.904534 -0.301511 0.641503 0.790711
-3.291530 4.394691 3.918330 0.301511 -0.904534 -0.301511 0.618735 0.767943
-3.291530 4.394691 3.128989 0.577350 -0.577350 0.577350 0.618735 0.720990
-3.291530 4.394691 3.128989 0.577350 -0.577350 0.577350 0.641503 0.698222
-1.662852 4.394691 3.128989 -0.577350 -0.577350 0.577350 0.738383 0.698222
-1.662852 4.394691 3.128989 -0.577350 -0.577350 0.577350 0.761150 0.720990
-1.662852 4.394691 3.918330 -0.301511 -0.904534 -0.301511 0.761150 0.767943
4.154620 4.394691 3.918330 -0.301511 -0.904534 -0.301511 0.738383 0.790711
2.525941 4.394691 3.918330 0.301511 -0.904534 -0.301511 0.641503 0.790711
2.525941 4.394691 3.918330 0.301511 -0.904534 -0.301511 0.618735 0.767943
2.525941 4.394691 3.128989 0.577350 -0.577350 0.577350 0.618735 0.720990
2.525941 4.394691 3.128989 0.577350 -0.577350 0.577350 0.641503 0.698222
4.154620 4.394691 3.128989 -0.577350 -0.577350 0.577350 0.738383 0.698222
4.154620 4.394691 3.128989 -0.577350 -0.577350 0.577350 0.761150 0.720990
4.154620 4.394691 3.918330 -0.301511 -0.904534 -0.301511 0.761150 0.767943
4.154620 4.394691 2.257653 -0.577350 -0.577350 0.577350 0.761150 0.720990
4.154620 4.394691 3.057976 -0.301511 -0.904534 -0.301511 0.761150 0.768596
4.154620 4.394691 3.057976 -0.301511 -0.904534 -0.301511 0.738383 0.791364
2.525941 4.394691 3.057976 0.301511 -0.904534 -0.301511 0.641503 0.791364
2.525941 4.394691 3.057976 0.301511 -0.904534 -0.301511 0.618735 0.768596
2.525941 4.394691 2.257653 0.577350 -0.577350 0.577350 0.618735 0.720990
2.525941 4.394691 2.257653 0.577350 -0.577350 0.577350 0.641503 0.698222
4.154620 4.394691 2.257653 -0.577350 -0.577350 0.577350 0.738383 0.698222
4.154620 4.394691 0.534647 -0.301511 -0.904534 0.301511 0.760395 0.721791
4.154620 4.394691 1.317605 -0.301511 -0.904534 -0.301511 0.760395 0.768078
4.154620 4.394691 1.317605 -0.301511 -0.904534 -0.301511 0.737766 0.790707
2.525941 4.394691 1.317605 0.301511 -0.904534 -0.301511 0.641480 0.790707
2.525941 4.394691 1.317605 0.301511 -0.904534 -0.301511 0.618852 0.768078
2.525941 4.394691 0.534647 0.301511 -0.904534 0.301511 0.618852 0.721791
2.525941 4.394691 0.534647 0.301511 -0.904534 0.301511 0.641480 0.699162
4.154620 4.394691 0.534647 -0.301511 -0.904534 0.301511 0.737766 0.699162
-3.446770 -4.425843 4.164738 0.817702 0.348969 -0.457804 0.005722 0.012682
-3.446770 -2.271622 4.164738 0.872556 0.000000 -0.488514 0.134266 0.012682
-3.446770 -2.271621 6.511791 0.707107 0.000000 -0.707107 0.134669 0.152293
-3.446770 -4.425842 6.511791 0.707107 0.000000 -0.707107 0.006528 0.152293
-3.446770 -0.117399 4.164738 0.872556 0.000000 -0.488514 0.262809 0.012682
-3.446770 -0.117399 6.511791 0.707107 0.000000 -0.707107 0.262809 0.152293
-3.446770 2.036823 4.164738 0.872556 -0.000000 -0.488514 0.391353 0.012682
-3.446770 2.036823 6.511791 0.707107 0.000000 -0.707107 0.390950 0.152293
-3.446770 4.191045 4.164737 0.631980 -0.595757 -0.495655 0.519489 0.012682
-3.446770 4.191045 6.511791 0.577350 -0.577350 -0.577350 0.519090 0.152293
-1.507612 4.191045 4.164737 0.000000 -0.851144 -0.524932 0.633949 0.012682
-1.507612 4.191045 6.511791 0.000000 -0.707107 -0.707107 0.634438 0.152293
0.431545 4.191045 4.164737 0.000000 -0.851144 -0.524932 0.749623 0.012682
0.431545 4.191045 6.511791 0.000000 -0.707107 -0.707107 0.749786 0.152293
2.370703 4.191045 4.164737 0.000000 -0.851144 -0.524932 0.865297 0.012682
2.370703 4.191045 6.511791 0.000000 -0.707107 -0.707107 0.865134 0.152293
4.309860 4.191045 4.164737 0.000000 -0.851144 -0.524932 0.980971 0.012682
4.309859 4.191045 6.511791 0.000000 -0.707107 -0.707107 0.980481 0.152293
-3.615745 -4.425843 4.061132 0.690124 0.611917 -0.386375 0.004916 0.002568
-3.615745 -2.271622 4.061132 0.872556 0.000000 -0.488515 0.133863 0.002568
-3.446770 -4.425843 4.164738 0.817702 0.348969 -0.457804 0.257204 0.628761
-3.446770 -4.425843 0.285047 0.817701 0.348970 0.457804 0.026996 0.628761
-3.615745 -4.425843 0.388652 0.690123 0.611918 0.386376 0.033143 0.618735
-3.615745 -4.425843 4.061132 0.690124 0.611917 -0.386375 0.251056 0.618735
-3.615745 -2.271622 0.388652 0.872555 0.000001 0.488515 0.000500 0.283714
-3.615745 -4.425843 0.388652 0.690123 0.611918 0.386376 0.000500 0.155059
-3.615745 -0.117399 0.388652 0.872556 -0.000000 0.488514 0.000500 0.412368
-3.615745 2.036823 0.388652 0.872556 0.000001 0.488515 0.000500 0.541023
-3.615745 4.191045 0.388652 0.690121 -0.611919 0.386377 0.000500 0.669678
-3.446770 4.191045 0.285047 0.631979 -0.595759 0.495655 0.026996 0.644370
-3.446770 4.191045 4.164737 0.631980 -0.595757 -0.495655 0.256792 0.644370
-3.615745 4.191045 4.061132 0.690122 -0.611919 -0.386377 0.247724 0.654109
-3.615745 4.191045 0.388652 0.690121 -0.611919 0.386377 0.036064 0.654109
-3.615745 2.036823 4.061132 0.872556 0.000000 -0.488514 0.391756 0.002568
-3.615745 4.191045 4.061132 0.690122 -0.611919 -0.386377 0.520703 0.002568
-3.615745 -0.117399 4.061132 0.872555 -0.000000 -0.488515 0.262809 0.002568
-3.446769 4.394691 4.062436 0.605860 -0.677146 -0.417621 0.517459 0.000500
-1.507612 4.394691 4.062436 0.000000 -0.851144 -0.524932 0.633459 0.000500
-3.446769 4.394691 0.387350 0.605860 -0.677147 0.417619 0.030122 0.631983
-3.446769 4.394691 4.062436 0.605860 -0.677146 -0.417621 0.253667 0.631983
-1.507612 4.394691 0.387350 0.000000 -0.851145 0.524930 0.646159 0.693520
-3.446769 4.394691 0.387350 0.605860 -0.677147 0.417619 0.530416 0.693520
0.431545 4.394691 0.387350 0.000000 -0.851146 0.524930 0.761902 0.693520
2.370703 4.394691 0.387350 0.000000 -0.851146 0.524930 0.877645 0.693520
4.309860 4.394691 0.387350 0.000000 -0.851145 0.524930 0.993388 0.693520
2.370703 4.394691 4.062436 0.000000 -0.851144 -0.524932 0.865460 0.000500
4.309860 4.394691 4.062436 0.000000 -0.851144 -0.524932 0.981461 0.000500
0.431545 4.394691 4.062436 0.000000 -0.851144 -0.524932 0.749460 0.000500
3 0 1 2
3 2 3 0
3 4 5 6
3 4 6 7
3 4 7 8
3 4 8 9
3 10 4 9
3 11 10 9
3 12 11 9
3 12 9 13
3 14 15 16
3 17 14 16
3 18 17 16
3 19 18 16
3 20 19 16
3 21 22 23
3 24 21 23
3 25 24 23
3 26 25 23
3 27 26 23
3 28 29 0
3 0 3 28
3 29 30 1
3 1 0 29
3 30 31 2
3 2 1 30
3 31 28 3
3 3 2 31
3 32 33 34
3 34 35 32
3 36 37 38
3 38 39 36
3 40 41 42
3 42 43 40
3 44 45 46
3 46 47 44
3 48 49 50
3 50 51 48
3 52 53 54
3 54 55 52
3 56 57 33
3 33 32 56
3 58 59 60
3 60 61 58
3 62 63 64
3 64 65 62
3 66 67 68
3 68 69 66
3 70 71 72
3 72 73 70
3 74 75 76
3 76 77 74
3 78 79 80
3 80 81 78
3 82 83 84
3 84 85 82
3 86 87 88
3 88 89 86
3 90 91 92
3 92 93 90
3 94 95 96
3 96 97 94
3 98 99 100
3 100 101 98
3 102 103 104
3 104 105 102
3 106 107 108
3 108 109 106
3 110 111 112
3 112 113 110
3 114 115 116
3 116 117 114
3 118 119 120
3 120 121 118
3 122 123 124
3 124 125 122
3 126 127 128
3 128 129 126
3 130 131 132
3 132 133 130
3 134 135 136
3 136 137 134
3 138 139 140
3 140 141 138
3 142 143 144
3 144 145 142
3 146 147 148
3 148 149 146
3 150 151 152
3 152 153 150
3 154 155 156
3 156 157 154
3 155 110 113
3 155 113 158
3 155 158 159
3 155 159 142
3 145 160 161
3 142 145 161
3 155 142 161
3 155 161 156
3 162 163 161
3 161 160 162
3 162 144 143
3 164 112 111
3 165 164 111
3 143 165 111
3 162 143 111
3 111 154 157
3 162 111 157
3 162 157 163
3 166 167 168
3 168 169 166
3 167 114 117
3 117 133 132
3 167 117 132
3 167 132 146
3 149 170 171
3 146 149 171
3 167 146 171
3 167 171 168
3 172 173 171
3 171 170 172
3 172 148 147
3 147 131 130
3 130 116 115
3 147 130 115
3 172 147 115
3 115 166 169
3 172 115 169
3 172 169 173
3 174 175 176
3 176 177 174
3 175 118 121
3 121 129 128
3 175 121 128
3 175 128 150
3 153 178 179
3 150 153 179
3 175 150 179
3 175 179 176
3 180 181 179
3 179 178 180
3 180 152 151
3 151 127 126
3 126 120 119
3 151 126 119
3 180 151 119
3 119 174 177
3 180 119 177
3 180 177 181
3 182 122 125
3 125 137 136
3 182 125 136
3 136 138 141
3 182 136 141
3 141 183 184
3 182 141 184
3 182 184 185
3 186 187 184
3 184 183 186
3 139 135 134
3 140 139 134
3 134 124 123
3 140 134 123
3 186 140 123
3 123 188 189
3 186 123 189
3 186 189 187
3 188 182 185
3 185 189 188
3 190 191 36
3 36 39 190
3 192 193 37
3 37 36 192
3 194 195 38
3 38 37 194
3 196 197 39
3 39 38 196
3 198 199 40
3 40 43 198
3 200 201 41
3 41 40 200
3 202 203 42
3 42 41 202
3 204 205 43
3 43 42 204
3 206 207 44
3 44 47 206
3 208 209 45
3 45 44 208
3 210 211 46
3 46 45 210
3 212 213 47
3 47 46 212
3 214 215 48
3 48 51 214
3 216 217 49
3 49 48 216
3 218 219 50
3 50 49 218
3 220 221 51
3 51 50 220
3 222 223 63
3 63 62 222
3 224 225 64
3 64 63 224
3 226 227 65
3 65 64 226
3 228 229 62
3 62 65 228
3 230 231 66
3 66 69 230
3 232 233 67
3 67 66 232
3 234 235 68
3 68 67 234
3 236 237 69
3 69 68 236
3 238 239 71
3 71 70 238
3 240 241 72
3 72 71 240
3 242 243 73
3 73 72 242
3 244 245 70
3 70 73 244
3 246 247 75
3 75 74 246
3 248 249 76
3 76 75 248
3 250 251 77
3 77 76 250
3 252 253 74
3 74 77 252
3 254 255 78
3 78 81 254
3 256 257 79
3 79 78 256
3 258 259 80
3 80 79 258
3 260 261 81
3 81 80 260
3 262 263 83
3 83 82 262
3 264 265 84
3 84 83 264
3 266 267 85
3 85 84 266
3 268 269 82
3 82 85 268
3 270 271 87
3 87 86 270
3 272 273 88
3 88 87 272
3 274 275 89
3 89 88 274
3 276 277 86
3 86 89 276
3 278 279 90
3 90 93 278
3 280 281 91
3 91 90 280
3 282 283 92
3 92 91 282
3 284 285 93
3 93 92 284
3 286 287 95
3 95 94 286
3 288 289 96
3 96 95 288
3 290 291 97
3 97 96 290
3 292 293 94
3 94 97 292
3 294 295 99
3 99 98 294
3 296 297 100
3 100 99 296
3 298 299 101
3 101 100 298
3 300 301 98
3 98 101 300
3 302 303 102
3 102 105 302
3 304 305 103
3 103 102 304
3 306 307 104
3 104 103 306
3 308 309 105
3 105 104 308
3 310 311 108
3 108 107 310
3 312 313 109
3 109 108 312
3 314 315 106
3 106 109 314
3 316 317 107
3 107 106 316
3 318 319 320
3 320 321 318
3 322 323 324
3 324 325 322
3 326 327 328
3 328 329 326
3 330 331 332
3 332 333 330
3 334 335 336
3 336 337 334
3 338 339 340
3 340 341 338
3 342 343 344
3 344 345 342
3 346 347 348
3 348 349 346
3 350 351 352
3 352 353 350
3 354 355 356
3 356 357 354
3 358 359 360
3 360 361 358
3 362 363 364
3 364 365 362
3 366 367 368
3 368 369 366
3 367 342 345
3 345 350 353
3 367 345 353
3 353 362 365
3 367 353 365
3 365 370 371
3 367 365 371
3 367 371 368
3 370 372 373
3 373 371 370
3 364 363 352
3 352 351 344
3 352 344 343
3 364 352 343
3 343 366 369
3 343 369 373
3 364 343 373
3 372 364 373
3 374 346 349
3 349 354 357
3 374 349 357
3 357 358 361
3 374 357 361
3 361 375 376
3 374 361 376
3 374 376 377
3 375 378 379
3 379 376 375
3 360 359 356
3 356 355 348
3 356 348 347
3 360 356 347
3 347 380 381
3 347 381 379
3 360 347 379
3 378 360 379
3 380 374 377
3 377 381 380
3 382 383 52
3 52 55 382
3 384 385 53
3 53 52 384
3 386 387 54
3 54 53 386
3 388 389 55
3 55 54 388
3 390 391 58
3 58 61 390
3 392 393 59
3 59 58 392
3 394 395 60
3 60 59 394
3 396 397 61
3 61 60 396
3 398 399 319
3 319 318 398
3 400 401 320
3 320 319 400
3 402 403 321
3 321 320 402
3 404 405 318
3 318 321 404
3 406 407 322
3 322 325 406
3 408 409 323
3 323 322 408
3 410 411 324
3 324 323 410
3 412 413 325
3 325 324 412
3 414 415 327
3 327 326 414
3 416 417 328
3 328 327 416
3 418 419 329
3 329 328 418
3 420 421 326
3 326 329 420
3 422 423 331
3 331 330 422
3 424 425 332
3 332 331 424
3 426 427 333
3 333 332 426
3 428 429 330
3 330 333 428
3 430 431 334
3 334 337 430
3 432 433 335
3 335 334 432
3 434 435 336
3 336 335 434
3 436 437 337
3 337 336 436
3 438 439 340
3 340 339 438
3 440 441 341
3 341 340 440
3 442 443 338
3 338 341 442
3 444 445 339
3 339 338 444
3 446 447 448
3 448 449 446
3 447 450 451
3 451 448 447
3 450 452 453
3 453 451 450
3 452 454 455
3 455 453 452
3 454 456 457
3 457 455 454
3 456 458 459
3 459 457 456
3 458 460 461
3 461 459 458
3 460 462 463
3 463 461 460
3 165 159 158
3 158 164 165
3 447 446 464
3 464 465 447
3 466 467 468
3 468 469 466
3 22 21 470
3 470 471 22
3 21 24 472
3 472 470 21
3 24 25 473
3 473 472 24
3 25 26 474
3 474 473 25
3 475 476 477
3 477 478 475
3 454 452 479
3 479 480 454
3 452 450 481
3 481 479 452
3 450 447 465
3 465 481 450
3 456 454 482
3 482 483 456
3 476 475 484
3 484 485 476
3 15 14 486
3 486 487 15
3 14 17 488
3 488 486 14
3 17 18 489
3 489 488 17
3 18 19 490
3 490 489 18
3 462 460 491
3 491 492 462
3 460 458 493
3 493 491 460
3 458 456 483
3 483 493 458
